<svg xmlns="http://www.w3.org/2000/svg" xmlns:xlink="http://www.w3.org/1999/xlink" width="137" height="120" viewBox="0 0 137 120">
    <defs>
        <circle id="a" cx="60.482" cy="60.426" r="60"/>
        <linearGradient id="c" x1="100%" x2="1.766%" y1="37.62%" y2="33.096%">
            <stop offset="0%" stop-color="#052892"/>
            <stop offset="100%" stop-color="#3255BE"/>
        </linearGradient>
        <linearGradient id="d" x1="87.405%" x2="0%" y1="11.118%" y2="100%">
            <stop offset="0%" stop-color="#D7E1FF"/>
            <stop offset="50.47%" stop-color="#EDF2FF"/>
            <stop offset="100%" stop-color="#D7E1FF"/>
        </linearGradient>
        <linearGradient id="e" x1="87.405%" x2="0%" y1="11.118%" y2="100%">
            <stop offset="0%" stop-color="#CFDBFF"/>
            <stop offset="50.47%" stop-color="#D7E1FF"/>
            <stop offset="100%" stop-color="#C5D3FF"/>
        </linearGradient>
        <linearGradient id="f" x1="100%" y1="64.412%" y2="46.311%">
            <stop offset="0%" stop-color="#AAB8E5"/>
            <stop offset="100%" stop-color="#D7E1FF"/>
        </linearGradient>
        <linearGradient id="h" x1="107.98%" x2="-117.57%" y1="34.581%" y2="-16.148%">
            <stop offset="0%" stop-color="#FFF"/>
            <stop offset="100%" stop-color="#C7D5FF"/>
        </linearGradient>
        <path id="g" d="M33.199 40.528c-4.268 1.144-9.06-2.902-10.704-9.037-1.644-6.135.483-12.035 4.751-13.179 3.214-.861 6.725 1.221 8.966 4.922.372.616 3.235.38 3.53 1.08.117.278.397 1.096 0 1.564-.572.673-1.788 1.26-1.67 1.7.049.183.307.871.424 1.842.137 1.145.008 2.367 0 2.592-.155 4.222-2.14 7.67-5.297 8.516zm-.59-3.787c2.286-.613 3.208-4.586 2.059-8.875-1.15-4.29-3.935-7.27-6.22-6.657-2.287.612-3.208 4.586-2.06 8.875 1.15 4.289 3.935 7.27 6.221 6.657z"/>
        <linearGradient id="i" x1="57.809%" x2="61.671%" y1="30.471%" y2="55.487%">
            <stop offset="0%" stop-color="#AAB8E5"/>
            <stop offset="100%" stop-color="#D7E1FF"/>
        </linearGradient>
        <linearGradient id="l" x1="100%" x2="-23.733%" y1="90.752%" y2="33.941%">
            <stop offset="0%" stop-color="#FFF"/>
            <stop offset="100%" stop-color="#C7D5FF"/>
        </linearGradient>
        <path id="k" d="M18.684 8.607c1.144-.631 2.33-.82 3.56-.565 1.243.269 1.762.714 2.358 1.206.256.212.573.61.949 1.194l-1.8 2.483c-.421-1.1-1.094-1.727-2.018-1.88-.821-.135-1.552.057-2.192.578.008 1.519.008 2.408-.002 2.668-.154 4.22-2.14 7.67-5.297 8.516-4.268 1.143-9.06-2.903-10.704-9.038-.514-1.92-.66-3.817-.485-5.552.052-.52-.511-.977-1.074-1.316C1.384 6.543.79 6.28.897 4.814c.117-1.588 1.278-1.66 2.454-1.829.936-.134 1.895-.445 2.246-.8C6.355 1.419 7.26.866 8.29.59c4.026-1.078 8.52 2.462 10.395 8.017zm-5.032 10.412c2.287-.612 3.208-4.586 2.059-8.875-1.15-4.29-3.934-7.27-6.22-6.657-2.286.613-3.208 4.586-2.059 8.875 1.15 4.29 3.934 7.27 6.22 6.657z"/>
    </defs>
    <g fill="none" fill-rule="evenodd">
        <g transform="translate(9.518 -.426)">
            <mask id="b" fill="#fff">
                <use xlink:href="#a"/>
            </mask>
            <use fill="#F3F5FA" xlink:href="#a"/>
            <path fill="#E4E8F1" d="M69.632 41.776l52.089 11.963 2.64 16.511-70.735 26.394a4 4 0 0 1-2.992-.079l-11.438-4.967-6.413 1.701-4.11-5.903L-1.9 73.75l70.26-31.846a2 2 0 0 1 1.273-.127z" mask="url(#b)"/>
        </g>
        <path fill="url(#c)" d="M3.54 43.608C3.1 43.309.55 41.189.365 37.732c-.088-1.63.581-3.305 1.616-4.294.69-.66 1.448-1.134 2.275-1.424L77.463 5.877a2 2 0 0 1 1.4.02l57.003 22.238c-2.216 2.698-3.324 4.637-3.324 5.82 0 1.181 1.108 2.41 3.324 3.685v2.188L60.821 67.43C22.926 51.748 3.833 43.807 3.54 43.608z" transform="translate(.518 26.074)"/>
        <g transform="translate(33.23 26.916)">
            <path fill="#052892" d="M24.165 34.131c-.68-2.802-.415-4.243.793-4.321 2.336-.152 3.948 3.168 6.655 3.685 2.065.394 5.363.231 8.505-.1.58-.06-4.467-7.48-9.611-8.832-2.58-.678-5.565 5.439-7.11 4.192-2.177-1.759 1.646-8.017 2.01-8.07.614-.088 1.167-1.855 3.704-.603 4.195 2.07 5.555 1.622 9.804 4.48 4.25 2.86 3.835 7.74 4.41 8.125 1.49.997 4.944-.518 5.058-.544 4.557-1.055 10.34-3.494 17.73-5.553 1.45-.404 3.811-.76 7.083-1.066l-.64 1.77-9.325 2.974-29.555 10.286-9.511-6.423z"/>
            <path fill="#052892" d="M4.759 24.295v-5.8c0-2.27 2.342 4.07 5.751 5.29 1.405.503 3.528.203 6.369-.899.367-.142-.242-2.78-3.868-4.023-1.055-.362-3.358-.362-6.91 0l12.7-4.48c.694-.183 1.409.214 2.143 1.189.734.975 1.41 2.426 2.028 4.351 1.544-1.048 3.778-2.28 6.703-3.698 2.925-1.418 7.435-3.278 13.529-5.582v2.725l-10.463 4.34-9.99 6.949c2.396 4.177 3.132 6.583 2.207 7.217-.698.478-2.43-1.872-4.471-2.603-1.361-.487-2.457-.308-3.288.539l-4.381 1.545-8.06-7.06z"/>
            <path fill="#BDC9EC" d="M39.305 24.588c17.407-5.68 26.305-8.504 26.697-8.47.079.007 2.057-1.247 4.737.96s2.568 2.605 2.837 5.098c.111 1.03.004 2.256-.322 3.679-.365 1.585-.84 1.85-1.422.795-.873-1.582.352-3.83-.672-6.163-1.023-2.333-2.927-2.269-5.345-1.946-1.612.214-10.448 3.068-26.506 8.56l.087-1-.09-1.513z"/>
            <path fill="url(#d)" d="M.336 10.543c4.515-1.762 7.805-2.975 9.87-3.64 4.477-1.44 8.219-3.074 11.217-4.059 4.131-1.356 5.284-1.766 6.069-1.942 1.268-.285 2.31-.417 3.446.27 1.136.688 1.306.716 2.03 1.672.725.956 1.777 1.983 1.777 4.94 0 1.524-.966-.84-1.11-1.408-.692-2.749-1.27-2.998-2.295-3.82a3.432 3.432 0 0 0-2.783-.726c-2.17.41-2.567.751-5.296 1.58-2.862.868-8.115 3.084-12.374 4.766-2.236.883-5.625 2.229-10.167 4.037l-.384-1.67z" transform="rotate(5 -123.326 461.123)"/>
            <path fill="#BDC9EC" d="M3.878 10.99C23.755 4.586 33.915 1.385 34.36 1.385c.09 0 1.83-1.118 5.065.847 3.236 1.965 3.864 2.193 4.413 4.653.226 1.015.252 2.791.079 5.328-.352 1.471-.907 1.707-1.667.707-1.14-1.5.042-4.633-1.341-6.868-1.383-2.235-3.828-2.77-6.52-2.238-1.477.292-8.844 2.772-22.102 7.44-.918.323-4.978 1.054-6.504 2.56-1.642 1.62-2.743 3.187-3.1 2.903-2.06-1.639-2.435-1.705-2.39-3.1.03-.93 1.225-1.806 3.586-2.627z"/>
            <path fill="url(#e)" d="M.845 12.872c.854-.68 1.577-1.176 2.168-1.487 4.235-2.23 9.419-3.612 11.126-4.162 4.477-1.44 8.27-2.71 11.268-3.695C29.537 2.172 34.79 1.116 35.574.94c1.27-.285 3.428.089 4.565.776.47.285 1.337.714 2.061 1.67.334.44 1.78 1.798 1.78 4.756 0 1.523-.965-.84-1.109-1.409-.692-2.748-2.982-4.045-3.403-4.248-1.485-.714-2.95-.607-3.654-.52C33.805 2.214 31.1 3 28.371 3.83 25.51 4.697 18.758 6.719 14.5 8.4c-2.236.883-5.903 2.21-11.001 3.98l-2.653.492z"/>
            <path fill="#CDDAFF" d="M18.103 16.73c1.391-.675 2.709-.85 3.952-.528.759.197 1.628.54 2.413 1.164.524.417.998.924 1.422 1.523l-1.5 1.179L18.676 19l-.573-2.27z"/>
            <path fill="url(#f)" d="M32.407 40.722c4.694 0 7.631-4.426 7.631-10.672 0-.385-.033-.888-.1-1.511-.015-.144-.015-.969 0-1.491.038-1.243.135-2.662.1-2.734-.093-.197-.431-1.068-.532-1.259-.147-.28-1.38.21-1.543-.057-1.895-3.087-4.82-5.262-7.63-5.262-2.538 0-4.997.678-6.208 2.997-.515.984 2.44-2.03 7.261-.214 1.076.405 2.722 2.532 4.938 6.379l-.884 8.959c-3.58 3.243-4.592 4.865-3.033 4.865z"/>
            <mask id="j" fill="#fff">
                <use xlink:href="#g"/>
            </mask>
            <use fill="url(#h)" xlink:href="#g"/>
            <path fill="url(#i)" d="M30.422 37.38c1.393-.005 2.117-1.034 2.814-2.068.94-1.392 1.598-3.163 1.598-5.963 0-4.879-2.057-8.22-4.73-8.22-2.673 0-5.2 3.08-5.2 7.959 0 3.422.993 6.088 2.782 7.396.762.556 1.76.9 2.736.896z" mask="url(#j)" transform="rotate(-15 29.869 29.255)"/>
        </g>
        <g transform="translate(32.637 36.06)">
            <path fill="url(#f)" d="M13.45 23c4.694 0 7.23-4.566 7.23-10.812 0-6.246-4.61-12.174-9.304-12.174-2.538 0-4.996.679-6.208 2.997-.514.984 2.44-2.03 7.262-.214 1.076.406 2.721 2.532 4.937 6.379l-.884 8.959C12.903 21.378 11.892 23 13.45 23z"/>
            <mask id="m" fill="#fff">
                <use xlink:href="#k"/>
            </mask>
            <use fill="url(#l)" xlink:href="#k"/>
            <path fill="url(#i)" d="M11.466 19.659c1.392-.006 2.117-1.035 2.814-2.069.938-1.392 1.597-3.163 1.597-5.962 0-4.88-2.057-8.22-4.73-8.22-2.672 0-5.2 3.079-5.2 7.958 0 3.422.993 6.089 2.782 7.396.762.557 1.76.9 2.737.897z" mask="url(#m)" transform="rotate(-15 10.912 11.533)"/>
        </g>
        <path fill="#FEFFFE" d="M6.463 59.285c.808.14 19.197 7.691 55.168 22.653-.374 2.07-.56 3.714-.56 4.932 0 1.218.093 2.765.28 4.64L5.602 68.052c-1.933-1.05-2.827-2.583-2.68-4.603.22-3.029 2.328-4.373 3.54-4.164z"/>
        <path fill="url(#i)" d="M61.114 55.861l74.752-27.362v.687c-1.39 1.094-2.084 2.554-2.084 4.379 0 1.825.695 3.195 2.084 4.11L60.834 65.431c-.74-1.39-1.11-2.928-1.11-4.612 0-1.683.464-3.336 1.39-4.958z" transform="translate(.518 26.074)"/>
        <path fill="#052892" d="M42.782 77.568l8.635 3.595c-.554.291-1.36 1.147-2.419 2.566-.647.869-1.82 4.39-3.254 6.707-.608.981-1.756 1.794-3.446 2.438-1.897-1.17-3.398-1.982-4.503-2.438a11.881 11.881 0 0 0-3.462-.85c1.881-1.18 3.089-2.181 3.623-3.003.8-1.229 1.482-4.54 2.611-6.288.753-1.165 1.491-2.074 2.215-2.727z"/>
        <path fill="#001D76" d="M34.338 89.587c1.375.097 2.619.38 3.73.847.984.413 2.203 1.096 3.658 2.048.026.018 1.814-.284 3.65-2.683.598-.782 1.203-2.737 2.385-4.794.5-.872 1.465-2.258 2.893-4.158l.748.293a7.643 7.643 0 0 0-.5.388c-.389.344-.663.651-.88.875-.156.16-.295.378-.463.596-.24.31-.51.644-.72 1.016-.39.684-.682 1.404-.774 1.587-.262.518-.455 1.137-.663 1.562-.242.494-.424.906-.594 1.26-.238.495-.435.875-.604 1.202-.31.603-.613 1.01-.751 1.21-.275.395-.865.91-1.684 1.368-.286.16-.776.38-1.468.66l-.608.256a545.5 545.5 0 0 1-3.858-2.155c-.92-.52-2.417-.715-3.452-.962-.174-.041-.19-.18-.045-.416zM61.626 81.542l74.751-27.331v1.071l-74.751 27.34L6.51 59.288c.418-.18.89-.182 1.31-.008l53.806 22.262z"/>
    </g>
</svg>
