<svg xmlns="http://www.w3.org/2000/svg" width="80" height="80" viewBox="0 0 80 80">
    <g fill="#052892" fill-rule="nonzero">
        <path d="M40 80c22.091 0 40-17.909 40-40S62.091 0 40 0 0 17.909 0 40s17.909 40 40 40zm0-2.5C19.29 77.5 2.5 60.71 2.5 40S19.29 2.5 40 2.5 77.5 19.29 77.5 40 60.71 77.5 40 77.5z"/>
        <g transform="translate(16.5 17.5)">
            <path d="M35.216 5.256c.315 0 .525-.21.525-.526V1.577c0-.316-.21-.526-.525-.526-.316 0-.526.21-.526.526V4.73c0 .316.21.526.526.526zM40.472 40.997c-.316 0-.526.21-.526.526v2.102c0 .316.21.526.526.526.315 0 .525-.21.525-.526v-2.102c0-.315-.21-.526-.525-.526zM40.472 5.256c.315 0 .525-.21.525-.526V2.628c0-.315-.21-.526-.525-.526-.316 0-.526.21-.526.526V4.73c0 .316.21.526.526.526zM44.677 30.485c-.316 0-.526.21-.526.526v5.256c0 .315.21.526.526.526.315 0 .525-.21.525-.526v-5.256c0-.315-.21-.526-.525-.526zM44.151 11.038v3.153c0 .316.21.526.526.526.315 0 .525-.21.525-.526v-3.153c0-.316-.21-.526-.525-.526-.316 0-.526.21-.526.526zM12.089 21.024h6.307c.316 0 .526-.21.526-.525 0-.316-.21-.526-.526-.526H12.09c-.315 0-.526.21-.526.526 0 .315.21.525.526.525zM17.87 26.806c0 .315.21.526.526.526h6.308c.315 0 .525-.21.525-.526 0-.315-.21-.526-.525-.526h-6.308c-.315 0-.525.21-.525.526zM18.396 32.588H12.09c-.315 0-.526.21-.526.525 0 .316.21.526.526.526h6.307c.316 0 .526-.21.526-.526 0-.315-.21-.525-.526-.525zM12.089 27.332h4.205c.315 0 .525-.21.525-.526 0-.315-.21-.526-.525-.526h-4.205c-.315 0-.526.21-.526.526 0 .315.21.526.526.526zM12.089 31.537h4.205c.315 0 .525-.21.525-.526 0-.315-.21-.526-.525-.526h-4.205c-.315 0-.526.21-.526.526 0 .315.21.526.526.526zM12.089 23.127h7.359c.315 0 .525-.21.525-.526 0-.315-.21-.525-.525-.525h-7.359c-.315 0-.526.21-.526.525 0 .316.21.526.526.526zM15.768 24.704c0 .315.21.525.526.525h7.358c.316 0 .526-.21.526-.525 0-.316-.21-.526-.526-.526h-7.358c-.316 0-.526.21-.526.526zM12.089 29.434h7.359c.315 0 .525-.21.525-.526 0-.315-.21-.525-.525-.525h-7.359c-.315 0-.526.21-.526.525 0 .316.21.526.526.526zM19.973 20.499c0 .315.21.525.526.525h3.153c.316 0 .526-.21.526-.525 0-.316-.21-.526-.526-.526H20.5c-.316 0-.526.21-.526.526zM17.345 17.87h5.256c.316 0 .526-.21.526-.525 0-.315-.21-.526-.526-.526h-5.256c-.315 0-.526.21-.526.526 0 .315.21.526.526.526zM12.089 25.23h2.102c.316 0 .526-.211.526-.526 0-.316-.21-.526-.526-.526H12.09c-.315 0-.526.21-.526.526 0 .315.21.525.526.525zM23.652 30.485H21.55c-.315 0-.526.21-.526.526 0 .315.21.526.526.526h2.102c.316 0 .526-.21.526-.526 0-.315-.21-.526-.526-.526zM25.755 29.434h1.051c.315 0 .526-.21.526-.526 0-.315-.21-.525-.526-.525h-1.051c-.316 0-.526.21-.526.525 0 .316.21.526.526.526zM17.345 37.844h-1.051c-.316 0-.526.21-.526.525 0 .316.21.526.526.526h1.051c.315 0 .526-.21.526-.526 0-.315-.21-.525-.526-.525zM19.448 30.485h-1.052c-.315 0-.525.21-.525.526 0 .315.21.526.525.526h1.052c.315 0 .525-.21.525-.526 0-.315-.21-.526-.525-.526zM14.191 37.844H12.09c-.315 0-.526.21-.526.525 0 .316.21.526.526.526h2.102c.316 0 .526-.21.526-.526 0-.315-.21-.525-.526-.525zM23.652 28.383H21.55c-.315 0-.526.21-.526.525 0 .316.21.526.526.526h2.102c.316 0 .526-.21.526-.526 0-.315-.21-.525-.526-.525zM25.23 31.537c-1.052 0-1.998.42-2.734 1.05h-1.997c-.316 0-.526.211-.526.526 0 .316.21.526.526.526h1.156c-.315.63-.63 1.367-.63 2.102a4.217 4.217 0 0 0 4.204 4.205 4.217 4.217 0 0 0 4.205-4.205 4.217 4.217 0 0 0-4.205-4.204zm0 6.307a2.109 2.109 0 0 1-2.103-2.103c0-1.156.946-2.102 2.102-2.102 1.157 0 2.103.946 2.103 2.102a2.109 2.109 0 0 1-2.103 2.103z"/>
            <circle cx="25.229" cy="35.741" r="1.051"/>
            <path d="M42.049 15.243v-4.415c0-.421.21-.841.42-1.157l1.892-1.892c.526-.42.841-1.156.841-1.787V4.1c.631-.21 1.052-.841 1.052-1.472 0-.84-.736-1.577-1.577-1.577S43.1 1.787 43.1 2.628c0 .736.42 1.262 1.051 1.472v1.892c0 .42-.21.84-.42 1.156L41.838 9.04c-.525.421-.84 1.157-.84 1.788v3.784c-.631-.315-1.367-.63-2.103-.736v-4.52c.63-.21 1.051-.841 1.051-1.472 0-.84-.736-1.577-1.577-1.577-.84 0-1.576.736-1.576 1.577 0 .736.42 1.262 1.05 1.472v4.415c-.315 0-.735-.105-1.05-.105a9.91 9.91 0 0 0-3.154.525V7.36c0-1.788-1.367-3.154-3.154-3.154h-2.102V3.154C28.383 1.367 27.016 0 25.229 0s-3.153 1.367-3.153 3.154v1.05H3.154C1.367 4.205 0 5.572 0 7.36v33.638c0 1.788 1.367 3.154 3.154 3.154h27.331c1.787 0 3.154-1.366 3.154-3.154v-8.935a9.91 9.91 0 0 0 3.154.526V39c-.631.21-1.052.841-1.052 1.472 0 .84.736 1.577 1.577 1.577s1.577-.736 1.577-1.577c0-.736-.42-1.262-1.051-1.472v-6.517c.736-.106 1.472-.21 2.102-.526v2.313c0 .736.316 1.366.736 1.892l1.892 1.892c.316.315.42.736.42 1.156v1.893c-.63.21-1.05.84-1.05 1.471 0 .841.735 1.577 1.576 1.577.841 0 1.577-.736 1.577-1.577 0-.736-.42-1.261-1.051-1.471V39.21c0-.735-.315-1.366-.736-1.892l-1.892-1.892c-.315-.315-.42-.736-.42-1.156v-2.733c3.153-1.577 5.256-4.731 5.256-8.515 0-3.154-1.682-6.097-4.205-7.78zm2.628-13.14c.315 0 .525.21.525.525 0 .315-.21.526-.525.526-.316 0-.526-.21-.526-.526 0-.315.21-.526.526-.526zm-1.052 39.946c.316 0 .526.21.526.525 0 .316-.21.526-.526.526-.315 0-.525-.21-.525-.526 0-.315.21-.525.525-.525zM38.37 7.359c.316 0 .526.21.526.525 0 .315-.21.526-.526.526-.315 0-.525-.21-.525-.526 0-.315.21-.525.525-.525zM24.178 3.154c0-.631.42-1.052 1.051-1.052.63 0 1.051.42 1.051 1.052v1.05h-2.102v-1.05zM3.154 42.049c-.631 0-1.052-.42-1.052-1.052V7.36c0-.631.42-1.052 1.052-1.052h.21c-.105.316-.21.631-.21 1.052v33.638c0 .42.105.736.21 1.052h-.21zm3.364 0h-.21c-.631 0-1.052-.42-1.052-1.052V7.36c0-.631.42-1.052 1.051-1.052h6.938L7.253 12.3c-.63.631-.946 1.367-.946 2.208v26.49c0 .42.105.736.21 1.052zm8.199-34.27v3.784c0 .631-.42 1.052-1.051 1.052H9.88l4.836-4.836zm16.82 33.218c0 .631-.421 1.052-1.052 1.052H9.461c-.63 0-1.051-.42-1.051-1.052V15.768c0-.63.42-1.051 1.051-1.051h4.205c1.787 0 3.153-1.367 3.153-3.154V7.36c0-.631.421-1.052 1.052-1.052h8.41v6.308c0 .63-.421 1.05-1.052 1.05-.63 0-1.051-.42-1.051-1.05V9.46c0-.63-.42-1.051-1.051-1.051s-1.051.42-1.051 1.051v3.154c0 1.787 1.366 3.153 3.153 3.153s3.154-1.366 3.154-3.153V6.307h2.102c.631 0 1.052.42 1.052 1.052v7.884c-2.208 1.471-3.785 3.994-4.1 6.833H21.55c-.315 0-.526.21-.526.525 0 .316.21.526.526.526h5.782c0 .315 0 .736.105 1.051h-1.682c-.316 0-.526.21-.526.526 0 .315.21.525.526.525h1.787c.525 2.418 1.997 4.415 3.995 5.782v9.986zm5.781 0c-.315 0-.525-.21-.525-.525 0-.316.21-.526.525-.526.316 0 .526.21.526.526 0 .315-.21.525-.526.525zm-.525-10.512a7.313 7.313 0 0 1-7.359-7.358c0-4.1 3.259-7.359 7.359-7.359s7.358 3.259 7.358 7.359-3.259 7.358-7.358 7.358z"/>
            <path d="M39.946 22.076v-2.103c0-1.787-1.366-3.154-3.153-3.154s-3.154 1.367-3.154 3.154v2.103c-.63 0-1.051.42-1.051 1.05v4.206c0 .63.42 1.05 1.05 1.05h6.308c.631 0 1.051-.42 1.051-1.05v-4.205c0-.631-.42-1.051-1.05-1.051zm-3.153 4.204c-.631 0-1.052-.42-1.052-1.05 0-.632.42-1.052 1.052-1.052.63 0 1.05.42 1.05 1.051 0 .63-.42 1.051-1.05 1.051zm1.05-4.204h-2.102v-2.103c0-.63.42-1.051 1.052-1.051.63 0 1.05.42 1.05 1.051v2.103z"/>
        </g>
    </g>
</svg>
