<svg xmlns="http://www.w3.org/2000/svg" xmlns:xlink="http://www.w3.org/1999/xlink" width="163" height="78" viewBox="0 0 163 78">
    <defs>
        <rect id="a" width="163" height="78" rx="2"/>
    </defs>
    <g fill="none" fill-rule="evenodd">
        <use fill="#1046FE" xlink:href="#a"/>
        <g fill="#FFF">
            <path fill-rule="nonzero" d="M52.228 25.1h3.552v19.953h-3.552zM80.257 25.099v19.186l-3.552 2.051V25.1zM70.633 23.684v8.489c-1.1-1.415-2.685-2.685-5.2-2.685-3.637 0-7.073 2.859-7.073 7.91v.06c0 5.05 3.492 7.91 7.074 7.91 2.484 0 4.074-1.27 5.199-2.86v2.545h3.552v-23.42l-3.552 2.05zm.056 13.773c0 .28-.02.552-.056.814-.348 2.462-2.249 4.067-4.362 4.067-2.367 0-4.39-1.937-4.39-4.88v-.06c0-3.032 1.993-4.88 4.39-4.88 2.113 0 4.018 1.582 4.362 4.06.036.263.056.539.056.821v.058zM82.07 37.486v-.058c0-4.36 3.09-7.941 7.45-7.941 4.851 0 7.307 3.812 7.307 8.201 0 .318-.03.635-.058.982H85.564c.375 2.483 2.137 3.87 4.389 3.87 1.704 0 2.917-.635 4.13-1.82l2.05 1.82c-1.444 1.732-3.437 2.859-6.238 2.859-4.417 0-7.825-3.207-7.825-7.913zm11.29-1.127c-.23-2.253-1.558-4.014-3.869-4.014-2.137 0-3.639 1.646-3.956 4.014h7.826z"/>
            <path d="M21.897 17.137V44.65H10.075L10 44.608V24.004l.454-.262zM25.707 51.483V23.968h11.822l.074.043v20.604l-.453.262z"/>
        </g>
    </g>
</svg>
