<svg xmlns="http://www.w3.org/2000/svg" width="80" height="80" viewBox="0 0 80 80">
    <g fill="#052892" fill-rule="nonzero">
        <path d="M40 80c22.091 0 40-17.909 40-40S62.091 0 40 0 0 17.909 0 40s17.909 40 40 40zm0-2.5C19.29 77.5 2.5 60.71 2.5 40S19.29 2.5 40 2.5 77.5 19.29 77.5 40 60.71 77.5 40 77.5z"/>
        <path d="M58.617 50.87l8.151 8.145-7.752 7.753-8.152-8.152a21.477 21.477 0 0 1-21.728 0l-8.152 8.152-7.752-7.752 8.152-8.152a21.477 21.477 0 0 1 0-21.728l-8.152-8.152 7.752-7.751 8.158 8.15a21.477 21.477 0 0 1 21.729 0l8.144-8.151 7.753 7.752-8.152 8.152a21.447 21.447 0 0 1 2.949 10.863 21.447 21.447 0 0 1-2.948 10.872zm-3.186.352l.555-.85A18.947 18.947 0 0 0 59.065 40a18.949 18.949 0 0 0-3.08-10.365l-.554-.85 7.801-7.8-4.216-4.217-7.794 7.8-.85-.554a18.976 18.976 0 0 0-20.731 0l-.85.554-7.806-7.8-4.217 4.216 7.8 7.8-.554.85a18.976 18.976 0 0 0 0 20.732l.554.85-7.8 7.8 4.216 4.216 7.8-7.8.85.554a18.976 18.976 0 0 0 20.732 0l.85-.554 7.8 7.8 4.216-4.216-7.8-7.794zm-20.34-23.394a13.102 13.102 0 0 1 16.86 17.52l-.743 1.654-8.215-8.227-4.218 4.218 8.217 8.215-1.653.743A13.078 13.078 0 0 1 26.9 40a13.102 13.102 0 0 1 8.193-12.17zm12.55 4.797a10.602 10.602 0 0 0-18.242 7.371v.005a10.578 10.578 0 0 0 13.136 10.286l-7.296-7.294 7.755-7.755 7.294 7.305a10.603 10.603 0 0 0-2.648-9.918z"/>
    </g>
</svg>
