<svg height="120" viewBox="0 0 157 120" width="157" xmlns="http://www.w3.org/2000/svg" xmlns:xlink="http://www.w3.org/1999/xlink"><defs><circle id="a" cx="60" cy="60" r="60"/><linearGradient id="b"><stop offset="0" stop-color="#4966bb"/><stop offset="1" stop-color="#959ed7"/></linearGradient><linearGradient id="c" x1="44.54361%" x2="0%" xlink:href="#b" y1="0%" y2="50%"/><linearGradient id="d"><stop offset="0" stop-color="#cad0fd"/><stop offset="1" stop-color="#fff"/></linearGradient><linearGradient id="e" x1="0%" x2="70.897644%" xlink:href="#d" y1="34.381103%" y2="105.366366%"/><linearGradient id="f"><stop offset="0" stop-color="#aab8e5"/><stop offset="1" stop-color="#d7e1ff"/></linearGradient><linearGradient id="g" x1="100%" x2="62.076226%" xlink:href="#f" y1="15.096888%" y2="15.096888%"/><linearGradient id="h" x1="100%" x2="0%" y1="100%" y2="0%"><stop offset="0" stop-color="#95a6dc"/><stop offset="1" stop-color="#d7e1ff"/></linearGradient><linearGradient id="i" x1="100%" x2="1.765755%" y1="37.619836%" y2="33.096139%"><stop offset="0" stop-color="#052892"/><stop offset="1" stop-color="#3255be"/></linearGradient><linearGradient id="j" x1="-2.900212%" x2="111.490452%" y1="72.992545%" y2="107.349181%"><stop offset="0" stop-color="#fff"/><stop offset="1" stop-color="#c7d5ff"/></linearGradient><linearGradient id="k" x1="-63.31908%" x2="87.332354%" y1="-16.735338%" y2="68.953408%"><stop offset="0" stop-color="#2e4fb2"/><stop offset="1" stop-color="#001f7b"/></linearGradient><linearGradient id="l" x1="1.765755%" x2="100%" y1="33.096139%" y2="37.619836%"><stop offset="0" stop-color="#4160bb"/><stop offset="1" stop-color="#5f7bdf"/></linearGradient><linearGradient id="m" x1="100%" x2="0%" xlink:href="#b" y1="63.451812%" y2="63.451812%"/><linearGradient id="n" x1="96.8346%" x2="2.061395%" xlink:href="#d" y1="37.163746%" y2="60.706128%"/><linearGradient id="o" x1="100%" x2="0%" xlink:href="#f" y1="55.487474%" y2="55.487474%"/><mask id="p" fill="#fff"><use fill="#fff" fill-rule="evenodd" xlink:href="#a"/></mask></defs><g fill="none" fill-rule="evenodd"><g transform="translate(18)"><use fill="#f3f5fa" xlink:href="#a"/><path d="m61.9430663 59.4327012 59.2858927 23.2641612-83.7583729 31.9011876c-.9669823.368296-2.0390627.347539-2.9910639-.057912l-55.4795222-23.6283485 81.4917405-31.4829156c.4671894-.1804905.9850948-.1791247 1.4513258.0038273z" fill="#e4e8f1" mask="url(#p)"/></g><g transform="translate(-1.225614 12.056572)"><g transform="translate(45.02007)"><path d="m55.567381 39.5677074 56.981728 22.7457669v2.0369944c0 .885384-.582133 1.6653997-1.430918 1.9173277l-43.295325 12.8504877c-.3917532.1162762-.8097235.1097594-1.1976613-.0186734l-57.98823397-19.1979088.05965892-2.1811304c.02232756-.8162958.53867894-1.5370328 1.30441395-1.8207357l44.1300366-16.3500679c.4644701-.172085.9762736-.1656926 1.4363008.0179395z" fill="url(#c)" transform="matrix(-1 0 0 -1 121.18608 118.626144)"/><path d="m55.1393219 35.4296069 57.9460171 22.9343624-51.9904083 19.0158638c-.4733276.173123-.9945668.1611603-1.4594537-.0334952l-48.6345694-20.3640582c-1.52828979-.6399189-2.24845666-2.3975994-1.60853771-3.9258892.32371875-.7731231.95610381-1.3755687 1.74400681-1.6614392z" fill="url(#e)" transform="matrix(-1 0 0 -1 121.712624 112.946096)"/><path d="m27.6580231 48.2917885 67.6910355-.3102195-24.8244944 23.1822499-68.44573333 1.0431581z" fill="url(#g)" transform="matrix(.92387953 .38268343 -.38268343 .92387953 26.705211 -14.067616)"/><path d="m66.2923705 24.2830753v53.5919182c0 .5522848-.4477152 1-1 1-.125958 0-.2507822-.0237962-.3679059-.070137l-56.56389038-22.3798448v-53.55696853c0-1.1045695.8954305-2 1.99999998-2 .2527416 0 .503193.04790494.7380938.14117844l53.9317963 21.41503219c.7617914.3024892 1.2619062 1.0391718 1.2619062 1.8588215z" fill="url(#h)"/></g><path d="m97.8327616 29.6749468v53.2334146l-57.9317964-22.9210651v-51.72738163c0-1.1045695.8954305-2 2-2 .2527416 0 .503193.04790494.7380938.14117844l53.9317963 21.41503219c.7617914.3024892 1.2619063 1.0391718 1.2619063 1.8588215z" fill="url(#i)"/><path d="m94.679137 32.1823219v44.5931743c0 .5522848-.4477153 1-1 1-.1259581 0-.2507822-.0237962-.3679059-.0701369l-49.5991117-19.6241881c-.7629948-.3018835-1.2641882-1.0391807-1.2641882-1.8597261v-44.6636133c0-.5522848.4477153-1 1-1 .1263708 0 .2515965.0239524.3690469.0705892l49.6002527 19.6950793c.7617913.3024892 1.2619062 1.0391718 1.2619062 1.8588216z" fill="url(#j)"/><g transform="translate(55.746151 30.784138)"><path d="m5.02995605 8.4713294v-3.43264892c0-1.33688648.10827637-2.52886643.32482911-3.57593985 1.29296875-.45349904 2.61113281-.68024856 3.95449218-.68024856 2.01503906 0 3.27247736.45655846 4.47908936 1.2063262 1.4265936.88646049 2.7626409 2.17809682 3.3955444 3.18909398 1.1682129 1.86609794 1.7106079 3.34048366 1.7106079 5.17036645v3.3167159l.5232607.1960134c1.5619009.5850881 2.5968199 2.0779175 2.5968199 3.7458091v8.3436691c0 .8075981-.6393957 1.4702296-1.4464795 1.4990449l-2.4078709.0859684-12.2745852-5.316421c-.61742246-.2674203-1.12702179-.7346359-1.44691589-1.326575-3.57582818-6.6167913-4.92270981-10.454879-4.0406449-11.51426314.92202149-1.10737305 2.43545797-1.42110742 4.54030947-.94120311zm2.55358887.95657438 8.66239588 3.24493342c-.015703-1.4735581-.0156194-2.6209574.0002506-3.44219764.0581909-3.01125222-3.7415405-6.07847901-5.8340332-6.0171753-2.09249267.06130372-2.82861328 1.60816637-2.82861328 2.72840595z" fill="url(#k)"/><path d="m2.79519043 9.08804174v-3.43264892c0-2.00532971.62950187-2.88377027 1.51450195-3.6.88500009-.71622974 2.0288086-1.00082172 3.8677002-.78474091.84263403.09901455 2.16959652.58511096 3.37620852 1.3348787 1.4265935.88646048 2.7626409 2.17809682 3.3955444 3.18909398.2966584.47388076.5907702.93570917.8080811 1.37130577.6384387 1.27974189.9025268 2.43386211.9025268 3.79906074v3.3167158l.5232606.1960135c1.5619009.585088 2.59682 2.0779174 2.59682 3.7458091v7.81197c0 .8284272-.6715729 1.5-1.5 1.5-.1849687 0-.368342-.0342109-.5408676-.1009066l-15.70148776-6.0699496c-1.15605806-.446914-1.91826477-1.5587504-1.91826477-2.7981867v-8.3171455c0-.82842717.67157287-1.50000005 1.5-1.50000005.17969114 0 .35792034.03228684.52619252.0953216l.55824066.20911694zm2.55358887.95657436 8.6623959 3.2449334c-.015703-1.4735581-.0156195-2.6209573.0002506-3.4421976.0581909-3.01125222-3.7415405-6.07847901-5.83403322-6.0171753-2.09249268.06130371-2.82861328 1.60816637-2.82861328 2.72840595z" fill="url(#l)"/></g><path d="m39.8854285 61.7686972 57.9460167 21.1505928v.4313231c0 .8334179-.5168142 1.5794763-1.2970593 1.872398l-42.5404539 15.9706509c-.9571463.359335-2.0155542.33853-2.9578399-.058141l-48.54755726-20.436899c-.74169972-.3122308-1.22402074-1.0385874-1.22402074-1.8433274v-2.0263543z" fill="url(#m)"/><path d="m39.8854285 59.9714067 57.9460167 22.9343624-43.8406358 16.490692c-.9552666.3593243-2.0117547.3399057-2.9531715-.0542803l-47.98529342-20.0921962c-1.52828981-.6399189-2.24845668-2.3975994-1.60853773-3.9258892.32007895-.7644303.94211848-1.3624019 1.71857781-1.6520828z" fill="url(#n)"/><path d="m35.2461412 67.9829078 62.2723249-.967265-18.6077502 17.3956004-60.9800853-.2857201z" fill="url(#o)" transform="matrix(.92387953 .38268343 -.38268343 .92387953 33.3683 -16.326885)"/></g></g></svg>