<?xml version="1.0" encoding="utf-8"?>
<svg viewBox="38.856 170.559 163 78" xmlns="http://www.w3.org/2000/svg">
  <defs>
    <linearGradient id="d" x1="50%" x2="50%" y1="0%" y2="100%">
      <stop offset="0" stop-color="#FFF"/>
      <stop offset="1" stop-color="#FFF" stop-opacity="0"/>
    </linearGradient>
    <linearGradient id="g" x1="50%" x2="50%" y1="0%" y2="100%">
      <stop offset="0" stop-color="#FFF"/>
      <stop offset="0.9875" stop-color="#FFF" stop-opacity="0"/>
    </linearGradient>
    <linearGradient id="j" x1="50%" x2="50%" y1="0%" y2="100%">
      <stop offset="0" stop-color="#FFF"/>
      <stop offset="0.997" stop-color="#FFF" stop-opacity="0"/>
    </linearGradient>
    <linearGradient id="m" x1="50%" x2="50%" y1="0%" y2="100%">
      <stop offset="0" stop-color="#FFF"/>
      <stop offset="1" stop-color="#FFF" stop-opacity="0"/>
    </linearGradient>
  </defs>
  <g fill="none" fill-rule="evenodd" transform="matrix(1, 0, 0, 1, 38.855625, 170.558594)">
    <mask id="b" fill="#fff">
      <rect width="163" height="78" rx="2" transform="matrix(1, 0, 0, 1, 0, 0)"/>
    </mask>
    <rect width="163" height="78" rx="2" transform="matrix(1, 0, 0, 1, 0, 0)" fill="#1361F2"/>
    <g mask="url(#b)">
      <path fill="#FFF" fill-rule="nonzero" d="M69.052 39.526V27.81h2.316l5.061 8.654 5.044-8.654h2.316v11.717h-2.402v-6.812l-3.98 6.812h-1.973l-3.98-6.812v6.812h-2.402zm23.604 0c-3.191 0-5.593-2.21-5.593-5.423v-6.294h2.402v6.294c0 1.908 1.372 3.08 3.19 3.08 1.82 0 3.175-1.172 3.175-3.08v-6.294h2.402v6.294c0 3.214-2.385 5.423-5.576 5.423zm8.85 0V27.81h2.401v9.374h5.456v2.343h-7.858zm12.437 0v-9.373h-4.34v-2.344h11.083v2.344h-4.34v9.373h-2.403zm10.116 0V27.81h2.402v11.717h-2.402zm10.357 0c-2.145 0-3.603-1.105-4.032-2.963l2.162-.87c.223.97.806 1.49 1.87 1.49.909 0 1.458-.352 1.458-1.021 0-.737-.583-.971-2.179-1.49-1.818-.62-3.191-1.523-3.191-3.465 0-2.092 1.544-3.398 3.86-3.398 2.145 0 3.603 1.105 4.032 2.963l-2.162.87c-.223-.987-.806-1.49-1.87-1.49-.91 0-1.458.352-1.458 1.022 0 .736.583.97 2.179 1.49 1.818.619 3.19 1.523 3.19 3.464 0 2.093-1.543 3.398-3.86 3.398z"/>
      <g transform="translate(10 10)">
        <mask id="e" fill="#fff">
          <rect width="46.88" height="46.867" rx="23.433" transform="matrix(1, 0, 0, 1, 0, 0)"/>
        </mask>
        <path stroke="url(#d)" stroke-width="2" d="M23.436 7.498h-.004c-8.8 0-15.931 7.134-15.93 15.933 0 8.802 7.136 15.937 15.938 15.938h.008c8.8 0 15.931-7.135 15.93-15.933 0-8.802-7.136-15.937-15.938-15.938h-.004z" mask="url(#e)" transform="rotate(-30 23.44 23.433)"/>
      </g>
      <g transform="translate(10 10)">
        <mask id="h" fill="#fff">
          <rect width="46.88" height="46.867" rx="23.433" transform="matrix(1, 0, 0, 1, 0, 0)"/>
        </mask>
        <path stroke="url(#g)" stroke-width="2" d="M23.436 5.155c-10.095 0-18.279 8.184-18.28 18.28v.001c.001 10.094 8.184 18.276 18.278 18.276h.01c10.095 0 18.279-8.184 18.28-18.28v-.001C41.722 13.337 33.54 5.155 23.445 5.155h-.01z" mask="url(#h)" transform="rotate(10 23.44 23.433)"/>
      </g>
      <g transform="translate(10 10)">
        <mask id="k" fill="#fff">
          <rect width="46.88" height="46.867" rx="23.433" transform="matrix(1, 0, 0, 1, 0, 0)"/>
        </mask>
        <path stroke="url(#j)" stroke-width="2" d="M23.442 2.807c-11.39 0-20.623 9.234-20.624 20.624v.009c.001 11.39 9.233 20.621 20.62 20.62 11.39 0 20.623-9.234 20.624-20.624v-.009-.004c0-11.387-9.233-20.617-20.62-20.616z" mask="url(#k)" transform="rotate(70 23.44 23.433)"/>
      </g>
      <g transform="translate(10 10)">
        <mask id="n" fill="#fff">
          <rect width="46.88" height="46.867" rx="23.433" transform="matrix(1, 0, 0, 1, 0, 0)"/>
        </mask>
        <path stroke="url(#m)" stroke-width="2" d="M23.434.467h-.006C10.748.469.468 10.75.47 23.431.472 36.116 10.755 46.398 23.44 46.4h.012c12.68-.002 22.96-10.283 22.958-22.964C46.408 10.751 36.125.47 23.44.467h-.006z" mask="url(#n)" transform="rotate(-30 23.44 23.433)"/>
      </g>
    </g>
  </g>
  <rect x="45.296" y="177.432" width="138.8" height="55.241" style="fill: rgb(19, 97, 242);"/>
  <g transform="matrix(1, 0, 0, 1, -5, 0)">
    <path d="M 56.624 198.298 L 56.624 213.396 L 53.991 213.396 L 53.991 195.857 C 53.991 194.451 55.438 193.65 56.451 194.495 L 68.956 204.944 C 69.342 205.266 69.569 205.772 69.569 206.308 L 69.569 213.396 L 66.935 213.396 L 66.935 206.915 L 56.624 198.298 Z" fill="#FFFFFF" style=""/>
    <path d="M 99.085 196.831 C 98.052 196.831 97.214 197.761 97.214 198.909 L 97.214 212.043 L 99.644 212.043 L 99.644 200.664 L 102.92 206.598 C 103.293 207.274 103.956 207.687 104.669 207.687 C 105.381 207.687 106.043 207.277 106.415 206.602 L 109.71 200.664 L 109.71 212.043 L 112.14 212.043 L 112.14 198.811 C 112.14 197.718 111.341 196.831 110.355 196.831 C 109.723 196.831 109.137 197.204 108.817 197.81 L 104.716 205.566 L 100.705 197.869 C 100.371 197.226 99.753 196.831 99.085 196.831 Z" fill="#FFFFFF" style=""/>
    <path fill-rule="evenodd" clip-rule="evenodd" d="M 123.362 196.831 C 122.559 196.831 121.838 197.375 121.541 198.204 L 116.603 212.043 L 118.956 212.043 L 120.489 208.06 L 126.082 208.06 L 127.614 212.043 L 130.112 212.043 L 125.182 198.206 C 124.887 197.375 124.165 196.831 123.362 196.831 Z M 123.285 199.946 L 125.233 205.588 L 121.328 205.588 L 123.285 199.946 Z" fill="#FFFFFF" style=""/>
    <path d="M 136.686 203.8 L 142.612 197.19 C 142.819 196.961 143.098 196.831 143.391 196.831 C 144.37 196.831 144.859 198.147 144.164 198.913 L 139.463 204.11 L 146.395 212.043 L 143.243 212.043 L 136.686 204.679 L 136.686 212.043 L 134.256 212.043 L 134.256 198.18 C 134.256 197.435 134.8 196.831 135.471 196.831 C 136.142 196.831 136.686 197.435 136.686 198.18 L 136.686 203.8 Z" fill="#FFFFFF" style=""/>
    <path d="M 150.695 209.608 C 150.695 210.953 151.677 212.043 152.889 212.043 L 159.19 212.043 C 159.807 212.043 160.308 211.487 160.308 210.802 C 160.308 210.115 159.807 209.56 159.19 209.56 L 153.134 209.56 L 153.134 205.448 L 158.659 205.448 C 159.277 205.448 159.777 204.893 159.777 204.207 C 159.777 203.521 159.277 202.965 158.659 202.965 L 153.134 202.965 L 153.134 199.315 L 159.19 199.315 C 159.807 199.315 160.308 198.759 160.308 198.073 C 160.308 197.386 159.807 196.831 159.19 196.831 L 152.889 196.831 C 151.677 196.831 150.695 197.921 150.695 199.267 L 150.695 209.608 Z" fill="#FFFFFF" style=""/>
    <path fill-rule="evenodd" clip-rule="evenodd" d="M 176.457 201.188 C 176.457 201.673 176.402 202.137 176.293 202.58 C 176.19 203.015 176.023 203.436 175.791 203.843 C 175.567 204.25 175.255 204.615 174.856 204.936 C 174.465 205.256 173.998 205.506 173.458 205.685 L 177.594 212.043 L 174.433 212.043 L 170.595 206.144 L 168.271 206.144 L 168.271 212.043 L 165.841 212.043 L 165.841 199.267 C 165.841 197.921 166.824 196.831 168.036 196.831 L 171.675 196.831 C 171.963 196.831 172.228 196.842 172.465 196.864 C 172.71 196.878 173.002 196.921 173.342 196.991 C 173.69 197.056 173.995 197.145 174.258 197.259 C 174.529 197.374 174.805 197.541 175.088 197.762 C 175.377 197.983 175.616 198.243 175.801 198.544 C 175.994 198.837 176.152 199.211 176.273 199.668 C 176.396 200.117 176.457 200.624 176.457 201.188 Z M 168.271 199.304 L 168.271 203.662 L 170.507 203.662 C 170.893 203.662 171.235 203.647 171.53 203.618 C 171.826 203.589 172.131 203.532 172.446 203.447 C 172.761 203.354 173.018 203.229 173.217 203.072 C 173.423 202.915 173.59 202.697 173.718 202.419 C 173.854 202.141 173.921 201.813 173.921 201.434 C 173.921 200.014 172.935 199.304 170.961 199.304 L 168.271 199.304 Z" fill="#FFFFFF" style=""/>
    <path d="M 84.489 213.396 L 84.489 198.298 L 74.176 206.915 L 74.176 213.396 L 71.543 213.396 L 71.543 206.308 C 71.543 205.772 71.771 205.266 72.155 204.944 L 84.662 194.495 C 85.674 193.65 87.122 194.451 87.122 195.857 L 87.122 213.396 L 84.489 213.396 Z" fill="#FFFFFF" style=""/>
  </g>
</svg>