<svg height="120" viewBox="0 0 131 120" width="131" xmlns="http://www.w3.org/2000/svg" xmlns:xlink="http://www.w3.org/1999/xlink"><defs><circle id="a" cx="64" cy="60" r="60"/><linearGradient id="b" x1="100%" x2="0%" y1="63.451812%" y2="63.451812%"><stop offset="0" stop-color="#4966bb"/><stop offset="1" stop-color="#959ed7"/></linearGradient><linearGradient id="c"><stop offset="0" stop-color="#cad0fd"/><stop offset="1" stop-color="#fff"/></linearGradient><linearGradient id="d" x1="112.869735%" x2="-12.517668%" xlink:href="#c" y1="50%" y2="41.656005%"/><linearGradient id="e" x1="100%" x2="0%" y1="50%" y2="50%"><stop offset="0" stop-color="#cad0fd"/><stop offset="1" stop-color="#d9e3ff"/></linearGradient><linearGradient id="f" x1="96.8346%" x2="2.061395%" y1="37.163746%" y2="60.706128%"><stop offset="0" stop-color="#cad0fd"/><stop offset="1" stop-color="#e8edff"/></linearGradient><path id="g" d="m47.7875097.19790131 26.1317392 10.19216289-48.1835883 18.1518329-25.43686284-10.7155413z"/><linearGradient id="h" x1="100%" x2="0%" y1="50%" y2="50%"><stop offset="0" stop-color="#052892"/><stop offset="1" stop-color="#001d76"/></linearGradient><linearGradient id="i" x1="96.8346%" x2="2.061395%" xlink:href="#c" y1="37.163746%" y2="60.706128%"/><path id="j" d="m47.7875097.19790131 26.1317392 10.19216289-48.1835883 18.1518329-25.43686284-10.7155413z"/><linearGradient id="k" x1="100%" x2="1.765755%" y1="37.619836%" y2="33.096139%"><stop offset="0" stop-color="#052892"/><stop offset="1" stop-color="#3255be"/></linearGradient><path id="l" d="m47.7875097.19790131 26.1317392 10.19216289-48.1835883 18.1518329-25.43686284-10.7155413z"/><mask id="m" fill="#fff"><use fill="#fff" fill-rule="evenodd" xlink:href="#a"/></mask><mask id="n" fill="#fff"><use fill="#fff" fill-rule="evenodd" xlink:href="#g"/></mask><mask id="o" fill="#fff"><use fill="#fff" fill-rule="evenodd" xlink:href="#j"/></mask><mask id="p" fill="#fff"><use fill="#fff" fill-rule="evenodd" xlink:href="#l"/></mask></defs><g fill="none" fill-rule="evenodd"><use fill="#f3f5fa" xlink:href="#a"/><path d="m133.698069 80.8534268c-10.842631 2.6421739-17.723572 4.6801122-20.642824 6.1138147-3.074754 1.5100727.333093 3.5252073-2.459542 6.6645357-2.450743 2.7549929-5.115261 3.7090535-6.208077 4.1165138-2.196683.819041-6.3260428.9762652-9.7919229 0-2.8146333-.7928227-5.1449011-2.7632471-6.0224609-2.2848869-6.3079427 3.4384766-11.6337891 2.5751869-15.9775391-2.5898689.0075791 2.2033213-2.9571904 3.066611-8.8943084 2.5898689-8.905677-.7151131-5.8617509-.5367191-9.7996479 1.0071165-11.2322061 4.4035384-18.2584881 3.6236154-21.0788459-2.3397678l.0000033-.0000016c-.4110856-.8692021-1.1215105-1.5612434-2.0011892-1.9494046l-27.50189078-12.1352998 9.29882808-25.1696848 120.9648237 22.0664391c1.086625.1982222 1.806818 1.239797 1.608595 2.3264222-.141677.7766549-.726976 1.3972916-1.494002 1.5842035z" fill="#e4e8f1" mask="url(#m)"/><g transform="translate(74.595703 47.513916)"><ellipse cx="8.170623" cy="7.128801" fill="url(#b)" rx="8.10827" ry="4.671108"/><path d="m.06235335 4.70503451h16.21653995v2.34604924h-16.21653995z" fill="url(#b)"/><ellipse cx="8.170623" cy="4.705035" fill="#cad0fd" rx="8.10827" ry="4.671108"/></g><g transform="translate(74.595703 44.513916)"><ellipse cx="8.170623" cy="7.128801" fill="url(#b)" rx="8.10827" ry="4.671108"/><path d="m.06235335 4.70503451h16.21653995v2.34604924h-16.21653995z" fill="url(#b)"/><ellipse cx="8.170623" cy="4.705035" fill="#cad0fd" rx="8.10827" ry="4.671108"/></g><g transform="translate(74.595703 41.513916)"><ellipse cx="8.170623" cy="7.128801" fill="url(#b)" rx="8.10827" ry="4.671108"/><path d="m.06235335 4.70503451h16.21653995v2.34604924h-16.21653995z" fill="url(#b)"/><ellipse cx="8.170623" cy="4.705035" fill="#cad0fd" rx="8.10827" ry="4.671108"/></g><g transform="translate(74.595703 38.513916)"><ellipse cx="8.170623" cy="7.128801" fill="url(#b)" rx="8.10827" ry="4.671108"/><path d="m.06235335 4.70503451h16.21653995v2.34604924h-16.21653995z" fill="url(#b)"/><ellipse cx="8.170623" cy="4.705035" fill="#cad0fd" rx="8.10827" ry="4.671108"/></g><g transform="translate(74.595703 35.513916)"><ellipse cx="8.170623" cy="7.128801" fill="url(#b)" rx="8.10827" ry="4.671108"/><path d="m.06235335 4.70503451h16.21653995v2.34604924h-16.21653995z" fill="url(#b)"/><ellipse cx="8.170623" cy="4.705035" fill="#cad0fd" rx="8.10827" ry="4.671108"/></g><g transform="translate(74.595703 32.513916)"><ellipse cx="8.170623" cy="7.128801" fill="url(#b)" rx="8.10827" ry="4.671108"/><path d="m.06235335 4.70503451h16.21653995v2.34604924h-16.21653995z" fill="url(#b)"/><ellipse cx="8.170623" cy="4.705035" fill="#cad0fd" rx="8.10827" ry="4.671108"/></g><g transform="translate(74.595703 29.513916)"><ellipse cx="8.170623" cy="7.128801" fill="url(#b)" rx="8.10827" ry="4.671108"/><path d="m.06235335 4.70503451h16.21653995v2.34604924h-16.21653995z" fill="url(#b)"/><ellipse cx="8.170623" cy="4.705035" fill="#cad0fd" rx="8.10827" ry="4.671108"/></g><g transform="translate(74.595703 26.513916)"><ellipse cx="8.170623" cy="7.128801" fill="url(#b)" rx="8.10827" ry="4.671108"/><path d="m.06235335 4.70503451h16.21653995v2.34604924h-16.21653995z" fill="url(#b)"/><ellipse cx="8.170623" cy="4.705035" fill="#cad0fd" rx="8.10827" ry="4.671108"/></g><g transform="translate(74.595703 23.513916)"><ellipse cx="8.170623" cy="7.128801" fill="url(#b)" rx="8.10827" ry="4.671108"/><path d="m.06235335 4.70503451h16.21653995v2.34604924h-16.21653995z" fill="url(#b)"/><ellipse cx="8.170623" cy="4.705035" fill="#929bd6" rx="8.10827" ry="4.671108"/><ellipse cx="7.170623" cy="3.705035" fill="url(#d)" rx="6.299794" ry="3.449722" transform="translate(1 1)"/></g><g transform="translate(90.595703 46.513916)"><ellipse cx="8.170623" cy="7.128801" fill="url(#b)" rx="8.10827" ry="4.671108"/><path d="m.06235335 4.70503451h16.21653995v2.34604924h-16.21653995z" fill="url(#b)"/><ellipse cx="8.170623" cy="4.705035" fill="#cad0fd" rx="8.10827" ry="4.671108"/></g><g transform="translate(90.595703 43.513916)"><ellipse cx="8.170623" cy="7.128801" fill="url(#b)" rx="8.10827" ry="4.671108"/><path d="m.06235335 4.70503451h16.21653995v2.34604924h-16.21653995z" fill="url(#b)"/><ellipse cx="8.170623" cy="4.705035" fill="#cad0fd" rx="8.10827" ry="4.671108"/></g><g transform="translate(90.595703 40.513916)"><ellipse cx="8.170623" cy="7.128801" fill="url(#b)" rx="8.10827" ry="4.671108"/><path d="m.06235335 4.70503451h16.21653995v2.34604924h-16.21653995z" fill="url(#b)"/><ellipse cx="8.170623" cy="4.705035" fill="#cad0fd" rx="8.10827" ry="4.671108"/></g><g transform="translate(90.595703 37.513916)"><ellipse cx="8.170623" cy="7.128801" fill="url(#b)" rx="8.10827" ry="4.671108"/><path d="m.06235335 4.70503451h16.21653995v2.34604924h-16.21653995z" fill="url(#b)"/><ellipse cx="8.170623" cy="4.705035" fill="#cad0fd" rx="8.10827" ry="4.671108"/></g><g transform="translate(90.595703 34.513916)"><ellipse cx="8.170623" cy="7.128801" fill="url(#b)" rx="8.10827" ry="4.671108"/><path d="m.06235335 4.70503451h16.21653995v2.34604924h-16.21653995z" fill="url(#b)"/><ellipse cx="8.170623" cy="4.705035" fill="#cad0fd" rx="8.10827" ry="4.671108"/></g><g transform="translate(90.595703 31.513916)"><ellipse cx="8.170623" cy="7.128801" fill="url(#b)" rx="8.10827" ry="4.671108"/><path d="m.06235335 4.70503451h16.21653995v2.34604924h-16.21653995z" fill="url(#b)"/><ellipse cx="8.170623" cy="4.705035" fill="#929bd6" rx="8.10827" ry="4.671108"/><ellipse cx="7.170623" cy="3.705035" fill="url(#d)" rx="6.299794" ry="3.449722" transform="translate(1 1)"/></g><g transform="translate(6.268555 43.735352)"><path d="m47.7875097 17.5557142 26.1317392 8.8246251v1.3675377l-48.1835883 18.1518329-25.43686284-10.7155412v-1.3824466z" fill="#959ed7"/><path d="m47.7875097 16.1853605 26.1317392 10.1921629-48.1835883 18.1518329-25.43686284-10.7155413z" fill="url(#e)"/><path d="m47.7875097 15.2717914 26.1317392 8.8246251v1.3675378l-48.1835883 18.1518329-25.43686284-10.7155413v-1.3824466z" fill="#959ed7"/><path d="m47.7875097 13.9014378 26.1317392 10.1921629-48.1835883 18.1518328-25.43686284-10.7155412z" fill="url(#e)"/><path d="m47.7875097 12.9878687 26.1317392 8.8246251v1.3675378l-48.1835883 18.1518328-25.43686284-10.7155412v-1.3824466z" fill="#959ed7"/><path d="m47.7875097 11.617515 26.1317392 10.1921629-48.1835883 18.1518329-25.43686284-10.7155413z" fill="url(#e)"/><path d="m47.7875097 10.7039459 26.1317392 8.8246251v1.3675378l-48.1835883 18.1518329-25.43686284-10.7155413v-1.3824466z" fill="#959ed7"/><path d="m47.7875097 9.33359229 26.1317392 10.19216291-48.1835883 18.1518328-25.43686284-10.7155412z" fill="url(#e)"/><path d="m47.7875097 8.42002319 26.1317392 8.82462511v1.3675378l-48.1835883 18.1518328-25.43686284-10.7155412v-1.3824466z" fill="#959ed7"/><path d="m47.7875097 7.04966954 26.1317392 10.19216286-48.1835883 18.1518329-25.43686284-10.7155413z" fill="url(#e)"/><path d="m47.7875097 6.13610044 26.1317392 8.82462506v1.3675378l-48.1835883 18.1518329-25.43686284-10.7155413v-1.3824466z" fill="#959ed7"/><path d="m47.7875097 4.7657468 26.1317392 10.1921629-48.1835883 18.1518329-25.43686284-10.7155413z" fill="url(#e)"/><path d="m47.7875097 3.8521777 26.1317392 8.8246251v1.3675378l-48.1835883 18.1518329-25.43686284-10.7155413v-1.3824466z" fill="#959ed7"/><path d="m47.7875097 2.48182405 26.1317392 10.19216285-48.1835883 18.1518329-25.43686284-10.7155413z" fill="url(#e)"/><path d="m47.7875097 1.56825495 26.1317392 8.82462515v1.3675377l-48.1835883 18.1518329-25.43686284-10.7155413v-1.3824465z" fill="#959ed7"/><use fill="url(#f)" xlink:href="#g"/><path d="m-1.22736361 8.54579594 50.78925851.3597181 1.2126791 1.19545656-50.68990804-.38622682z" fill="#929bd6" mask="url(#n)" transform="matrix(-.93358043 .35836795 -.35836795 -.93358043 51.242959 9.149445)"/><path d="m51.81031-3.29850725 19.9592341 18.03966665-2.0333567.1808363-19.5413626-18.29474138z" fill="#929bd6" mask="url(#n)" transform="matrix(-.93358043 .35836795 -.35836795 -.93358043 119.983398 -10.688358)"/><g transform="translate(15.064639 5.021546)"><path d="m13.6311556 8.20424003 20.630469 6.85477927-6.8315029 20.3963337h-.3247271l-.2795634-.6757338.2407621-.080629-1.9674441-16.6463285-23.49973876-11.26661725z" fill="#9aa2da"/><path d="m17.3695374.57807924 27.1990292 10.35911336-17.1300912 6.3789309-26.95877342-10.4776702z" fill="#052892"/><g fill="#929bd6"><path d="m3.44398851 10.9458378 29.89961359-.95852686-1.1602541.92984686-29.66591509.9012154z" transform="matrix(.92050485 .39073113 -.39073113 .92050485 5.685469 -6.139289)"/><path d="m14.1182601 7.10196954 29.9679361-1.11973486-1.5852431.92475102-29.3092486 1.06751923z" transform="matrix(.92050485 .39073113 -.39073113 .92050485 5.003324 -10.635383)"/></g></g><path d="m59.6103837 15.9486504v18.1101245l-17.1156234 6.4181243v-18.1399003z" fill="url(#h)"/><path d="m45.449354 21.2216674 1.2245185-.4407116v18.1541102l-1.2245185.4366181z" fill="#435eb2"/><path d="m56.2083215 17.1874596 1.2245185-.4407116v18.1541102l-1.2245185.4366181z" fill="#435eb2"/><g fill="#929bd6"><ellipse cx="21.238697" cy="20.079706" rx="4.796238" ry="2.05553"/><ellipse cx="51.959243" cy="7.655156" opacity=".5" rx="4.796238" ry="2.05553"/></g></g><g transform="translate(56.846924 48.748291)"><path d="m47.7875097 17.5557142 26.1317392 8.8246251v1.3675377l-48.1835883 18.1518329-25.43686284-10.7155412v-1.3824466z" fill="#959ed7"/><path d="m47.7875097 16.1853605 26.1317392 10.1921629-48.1835883 18.1518329-25.43686284-10.7155413z" fill="url(#e)"/><path d="m47.7875097 15.2717914 26.1317392 8.8246251v1.3675378l-48.1835883 18.1518329-25.43686284-10.7155413v-1.3824466z" fill="#959ed7"/><path d="m47.7875097 13.9014378 26.1317392 10.1921629-48.1835883 18.1518328-25.43686284-10.7155412z" fill="url(#e)"/><path d="m47.7875097 12.9878687 26.1317392 8.8246251v1.3675378l-48.1835883 18.1518328-25.43686284-10.7155412v-1.3824466z" fill="#959ed7"/><path d="m47.7875097 11.617515 26.1317392 10.1921629-48.1835883 18.1518329-25.43686284-10.7155413z" fill="url(#e)"/><path d="m47.7875097 10.7039459 26.1317392 8.8246251v1.3675378l-48.1835883 18.1518329-25.43686284-10.7155413v-1.3824466z" fill="#959ed7"/><path d="m47.7875097 9.33359229 26.1317392 10.19216291-48.1835883 18.1518328-25.43686284-10.7155412z" fill="url(#e)"/><path d="m47.7875097 8.42002319 26.1317392 8.82462511v1.3675378l-48.1835883 18.1518328-25.43686284-10.7155412v-1.3824466z" fill="#959ed7"/><path d="m47.7875097 7.04966954 26.1317392 10.19216286-48.1835883 18.1518329-25.43686284-10.7155413z" fill="url(#e)"/><path d="m47.7875097 6.13610044 26.1317392 8.82462506v1.3675378l-48.1835883 18.1518329-25.43686284-10.7155413v-1.3824466z" fill="#959ed7"/><path d="m47.7875097 4.7657468 26.1317392 10.1921629-48.1835883 18.1518329-25.43686284-10.7155413z" fill="url(#e)"/><path d="m47.7875097 3.8521777 26.1317392 8.8246251v1.3675378l-48.1835883 18.1518329-25.43686284-10.7155413v-1.3824466z" fill="#959ed7"/><path d="m47.7875097 2.48182405 26.1317392 10.19216285-48.1835883 18.1518329-25.43686284-10.7155413z" fill="url(#e)"/><path d="m47.7875097 1.56825495 26.1317392 8.82462515v1.3675377l-48.1835883 18.1518329-25.43686284-10.7155413v-1.3824465z" fill="#959ed7"/><use fill="url(#i)" xlink:href="#j"/><path d="m47.7948206 1.30686441-46.01332646 17.28996199-1.56054687-.6814696 47.46151733-17.80506454 1.3452228.50829915.5038067-.24661854 24.7996827 10.07661443-1.5347901.5096306z" fill="#929bd6" mask="url(#o)"/><g transform="translate(15.064639 5.021546)"><path d="m13.6311556 8.20424003 20.630469 6.85477927-6.8315029 20.3963337h-.3247271l-.2795634-.6757338.2407621-.080629-1.9674441-16.6463285-23.49973876-11.26661725z" fill="#9aa2da"/><path d="m17.3695374.57807924 27.1990292 10.35911336-17.1300912 6.3789309-26.50983177-10.30318665-.44894165.13499632v-.30947987z" fill="url(#k)"/><g fill="#929bd6"><path d="m3.44398851 10.9458378 29.89961359-.95852686-1.1602541.92984686-29.66591509.9012154z" transform="matrix(.92050485 .39073113 -.39073113 .92050485 5.685469 -6.139289)"/><path d="m14.1182601 7.10196954 29.9679361-1.11973486-1.5852431.92475102-29.3092486 1.06751923z" transform="matrix(.92050485 .39073113 -.39073113 .92050485 5.003324 -10.635383)"/></g></g><path d="m59.6103837 15.9486504v18.1101245l-17.1156234 6.4181243v-18.1399003z" fill="url(#h)"/><path d="m45.449354 21.2216674 1.2245185-.4407116v18.1541102l-1.2245185.4366181z" fill="#435eb2"/><path d="m56.2083215 17.1874596 1.2245185-.4407116v18.1541102l-1.2245185.4366181z" fill="#435eb2"/><g fill="#052892"><ellipse cx="21.789479" cy="20.780956" opacity=".5" rx="4.796238" ry="2.05553"/><ellipse cx="52.636602" cy="8.420023" opacity=".5" rx="4.796238" ry="2.05553"/></g></g><g transform="translate(.268555 24.964111)"><path d="m47.7875097 17.5557142 26.1317392 8.8246251v1.3675377l-48.1835883 18.1518329-25.43686284-10.7155412v-1.3824466z" fill="#959ed7"/><path d="m47.7875097 16.1853605 26.1317392 10.1921629-48.1835883 18.1518329-25.43686284-10.7155413z" fill="url(#e)"/><path d="m47.7875097 15.2717914 26.1317392 8.8246251v1.3675378l-48.1835883 18.1518329-25.43686284-10.7155413v-1.3824466z" fill="#959ed7"/><path d="m47.7875097 13.9014378 26.1317392 10.1921629-48.1835883 18.1518328-25.43686284-10.7155412z" fill="url(#e)"/><path d="m47.7875097 12.9878687 26.1317392 8.8246251v1.3675378l-48.1835883 18.1518328-25.43686284-10.7155412v-1.3824466z" fill="#959ed7"/><path d="m47.7875097 11.617515 26.1317392 10.1921629-48.1835883 18.1518329-25.43686284-10.7155413z" fill="url(#e)"/><path d="m47.7875097 10.7039459 26.1317392 8.8246251v1.3675378l-48.1835883 18.1518329-25.43686284-10.7155413v-1.3824466z" fill="#959ed7"/><path d="m47.7875097 9.33359229 26.1317392 10.19216291-48.1835883 18.1518328-25.43686284-10.7155412z" fill="url(#e)"/><path d="m47.7875097 8.42002319 26.1317392 8.82462511v1.3675378l-48.1835883 18.1518328-25.43686284-10.7155412v-1.3824466z" fill="#959ed7"/><path d="m47.7875097 7.04966954 26.1317392 10.19216286-48.1835883 18.1518329-25.43686284-10.7155413z" fill="url(#e)"/><path d="m47.7875097 6.13610044 26.1317392 8.82462506v1.3675378l-48.1835883 18.1518329-25.43686284-10.7155413v-1.3824466z" fill="#959ed7"/><path d="m47.7875097 4.7657468 26.1317392 10.1921629-48.1835883 18.1518329-25.43686284-10.7155413z" fill="url(#e)"/><path d="m47.7875097 3.8521777 26.1317392 8.8246251v1.3675378l-48.1835883 18.1518329-25.43686284-10.7155413v-1.3824466z" fill="#959ed7"/><path d="m47.7875097 2.48182405 26.1317392 10.19216285-48.1835883 18.1518329-25.43686284-10.7155413z" fill="url(#e)"/><path d="m47.7875097 1.56825495 26.1317392 8.82462515v1.3675377l-48.1835883 18.1518329-25.43686284-10.7155413v-1.3824465z" fill="#959ed7"/><use fill="url(#i)" xlink:href="#l"/><path d="m47.7948206 1.30686441-46.01332646 17.28996199-1.56054687-.6814696 47.46151733-17.80506454 1.3452228.50829915.5038067-.24661854 24.6364441 9.97760013-1.3715515.6086449z" fill="#929bd6" mask="url(#p)"/><g transform="translate(15.064639 5.021546)"><path d="m13.6311556 8.20424003 20.630469 6.85477927-6.8315029 20.3963337h-.3247271l-.2795634-.6757338.2407621-.080629-1.9674441-16.6463285-23.49973876-11.26661725z" fill="#9aa2da"/><path d="m17.3695374.57807924 27.1990292 10.35911336-17.1300912 6.3789309-26.54512143-10.31433901-.41365199.15713501v-.3204662z" fill="url(#k)"/><g fill="#929bd6"><path d="m3.44398851 10.9458378 29.89961359-.95852686-1.1602541.92984686-29.66591509.9012154z" transform="matrix(.92050485 .39073113 -.39073113 .92050485 5.685469 -6.139289)"/><path d="m14.1182601 7.10196954 29.9679361-1.11973486-1.5852431.92475102-29.3092486 1.06751923z" transform="matrix(.92050485 .39073113 -.39073113 .92050485 5.003324 -10.635383)"/></g></g><path d="m59.6103837 15.9486504v18.1101245l-17.1156234 6.4181243v-18.1399003z" fill="url(#h)"/><path d="m45.449354 21.2216674 1.2245185-.4407116v18.1541102l-1.2245185.4366181z" fill="#435eb2"/><path d="m56.2083215 17.1874596 1.2245185-.4407116v18.1541102l-1.2245185.4366181z" fill="#435eb2"/><g fill="#052892"><ellipse cx="21.789479" cy="20.536491" opacity=".5" rx="4.796238" ry="2.05553"/><ellipse cx="52.636602" cy="8.420023" opacity=".5" rx="4.796238" ry="2.05553"/></g></g><g transform="translate(53.411133 82.262207)"><ellipse cx="8.170623" cy="7.128801" fill="url(#b)" rx="8.10827" ry="4.671108"/><path d="m.06235335 4.70503451h16.21653995v2.34604924h-16.21653995z" fill="url(#b)"/><ellipse cx="8.170623" cy="4.705035" fill="#cad0fd" rx="8.10827" ry="4.671108"/></g><g transform="translate(53.411133 79.262207)"><ellipse cx="8.170623" cy="7.128801" fill="url(#b)" rx="8.10827" ry="4.671108"/><path d="m.06235335 4.70503451h16.21653995v2.34604924h-16.21653995z" fill="url(#b)"/><ellipse cx="8.170623" cy="4.705035" fill="#cad0fd" rx="8.10827" ry="4.671108"/></g><g transform="translate(53.411133 76.262207)"><ellipse cx="8.170623" cy="7.128801" fill="url(#b)" rx="8.10827" ry="4.671108"/><path d="m.06235335 4.70503451h16.21653995v2.34604924h-16.21653995z" fill="url(#b)"/><ellipse cx="8.170623" cy="4.705035" fill="#cad0fd" rx="8.10827" ry="4.671108"/></g><g transform="translate(53.411133 73.262207)"><ellipse cx="8.170623" cy="7.128801" fill="url(#b)" rx="8.10827" ry="4.671108"/><path d="m.06235335 4.70503451h16.21653995v2.34604924h-16.21653995z" fill="url(#b)"/><ellipse cx="8.170623" cy="4.705035" fill="#cad0fd" rx="8.10827" ry="4.671108"/></g><g transform="translate(53.411133 70.262207)"><ellipse cx="8.170623" cy="7.128801" fill="url(#b)" rx="8.10827" ry="4.671108"/><path d="m.06235335 4.70503451h16.21653995v2.34604924h-16.21653995z" fill="url(#b)"/><ellipse cx="8.170623" cy="4.705035" fill="#cad0fd" rx="8.10827" ry="4.671108"/></g><g transform="translate(53.411133 67.262207)"><ellipse cx="8.170623" cy="7.128801" fill="url(#b)" rx="8.10827" ry="4.671108"/><path d="m.06235335 4.70503451h16.21653995v2.34604924h-16.21653995z" fill="url(#b)"/><ellipse cx="8.170623" cy="4.705035" fill="#929bd6" rx="8.10827" ry="4.671108"/><ellipse cx="7.170623" cy="3.705035" fill="url(#d)" rx="6.299794" ry="3.449722" transform="translate(1 1)"/></g><g transform="translate(35.411133 85.262207)"><ellipse cx="8.170623" cy="7.128801" fill="url(#b)" rx="8.10827" ry="4.671108"/><path d="m.06235335 4.70503451h16.21653995v2.34604924h-16.21653995z" fill="url(#b)"/><ellipse cx="8.170623" cy="4.705035" fill="#cad0fd" rx="8.10827" ry="4.671108"/></g><g transform="translate(35.411133 82.262207)"><ellipse cx="8.170623" cy="7.128801" fill="url(#b)" rx="8.10827" ry="4.671108"/><path d="m.06235335 4.70503451h16.21653995v2.34604924h-16.21653995z" fill="url(#b)"/><ellipse cx="8.170623" cy="4.705035" fill="#cad0fd" rx="8.10827" ry="4.671108"/></g><g transform="translate(35.411133 79.262207)"><ellipse cx="8.170623" cy="7.128801" fill="url(#b)" rx="8.10827" ry="4.671108"/><path d="m.06235335 4.70503451h16.21653995v2.34604924h-16.21653995z" fill="url(#b)"/><ellipse cx="8.170623" cy="4.705035" fill="#929bd6" rx="8.10827" ry="4.671108"/><ellipse cx="7.170623" cy="3.705035" fill="url(#d)" rx="6.299794" ry="3.449722" transform="translate(1 1)"/></g><g transform="translate(91.411133 85.262207)"><ellipse cx="8.170623" cy="7.128801" fill="url(#b)" rx="8.10827" ry="4.671108"/><path d="m.06235335 4.70503451h16.21653995v2.34604924h-16.21653995z" fill="url(#b)"/><ellipse cx="8.170623" cy="4.705035" fill="#cad0fd" rx="8.10827" ry="4.671108"/></g><g transform="translate(91.411133 82.262207)"><ellipse cx="8.170623" cy="7.128801" fill="url(#b)" rx="8.10827" ry="4.671108"/><path d="m.06235335 4.70503451h16.21653995v2.34604924h-16.21653995z" fill="url(#b)"/><ellipse cx="8.170623" cy="4.705035" fill="#929bd6" rx="8.10827" ry="4.671108"/><ellipse cx="7.170623" cy="3.705035" fill="url(#d)" rx="6.299794" ry="3.449722" transform="translate(1 1)"/></g></g></svg>