<svg xmlns="http://www.w3.org/2000/svg" width="80" height="80" viewBox="0 0 80 80">
    <g fill="#052892" fill-rule="nonzero">
        <path d="M40 80c22.091 0 40-17.909 40-40S62.091 0 40 0 0 17.909 0 40s17.909 40 40 40zm0-2.5C19.29 77.5 2.5 60.71 2.5 40S19.29 2.5 40 2.5 77.5 19.29 77.5 40 60.71 77.5 40 77.5z"/>
        <path stroke="#F3F5FA" stroke-width=".5" d="M58.223 20H21.777c-2.402 0-4.38 1.978-4.38 4.38V50.936c0 2.401 1.978 4.379 4.38 4.379H32.23l-3.39 7.91c-.141.425-.141.99.141 1.272.283.424.707.706 1.13.706h20.201c1.13 0 1.837-1.27 1.13-2.26l-3.531-7.628h10.312c2.402 0 4.38-1.978 4.38-4.38V24.38c0-2.402-1.978-4.38-4.38-4.38zm-38 4.38c0-.848.706-1.555 1.554-1.555h36.446c.848 0 1.554.707 1.554 1.554v21.048h-4.238V28.476c0-.848-.565-1.413-1.413-1.413h-5.65c-.848 0-1.413.565-1.413 1.413v16.951h-2.825V32.714c0-.848-.565-1.413-1.413-1.413h-5.65c-.848 0-1.413.565-1.413 1.413v12.713h-2.825v-7.063c0-.847-.565-1.412-1.413-1.412h-5.65c-.848 0-1.413.565-1.413 1.412v7.063h-4.238V24.38zm32.49 21.047h-2.825V29.888h2.826v15.54zm-11.3 0h-2.826v-11.3h2.826v11.3zm-11.301 0h-2.826v-5.65h2.826v5.65zm17.94 16.952H32.23l2.967-7.063h9.465l3.39 7.063zm11.725-11.442c0 .847-.706 1.554-1.554 1.554H21.777a1.568 1.568 0 0 1-1.554-1.554v-2.684h39.554v2.684z"/>
    </g>
</svg>
