<svg xmlns="http://www.w3.org/2000/svg" width="80" height="81" viewBox="0 0 80 81">
    <g fill="none" fill-rule="nonzero" stroke="#052892">
        <circle cx="40" cy="40.213" r="38.75" stroke-width="2.5"/>
        <g fill="#052892" stroke-width=".25">
            <path d="M20.11 41.075c0 .082-.005.164-.01.245 0 .041-.036.164 0 .006-.03.129-.053.257-.094.38-.018.047-.035.1-.053.146.059-.152.012-.03-.006 0-.076.134-.146.263-.233.391.099-.146-.094.106-.129.14a3.05 3.05 0 0 1-.251.228c.134-.105 0 0-.035.018-.053.035-.105.07-.164.1a2.832 2.832 0 0 0-.134.07c-.17.093.1-.024-.076.029-.123.04-.245.076-.374.105-.163.04-.04.011 0 .006l-.198.017c-.123.006-.246 0-.363-.006-.25-.011.105.024-.04-.006a4.48 4.48 0 0 1-.27-.064c-.058-.017-.309-.117-.151-.047a2.287 2.287 0 0 1-.333-.18 2.45 2.45 0 0 0-.129-.088c.158.11-.04-.035-.058-.053a3.79 3.79 0 0 1-.263-.269c-.158-.175.053.088-.023-.035l-.105-.157c-.024-.041-.053-.088-.076-.135 0 .006-.106-.222-.053-.105s-.04-.117-.035-.11c-.018-.048-.03-.1-.047-.153-.017-.064-.029-.128-.04-.193-.012-.064-.012-.052 0 .036-.006-.041-.006-.082-.012-.117a1.875 1.875 0 0 1 0-.362c0 .005.035-.252.011-.123-.023.128.03-.123.03-.117a7.19 7.19 0 0 1 .099-.333c.047-.134-.1.17.017-.035.035-.064.07-.134.111-.199.024-.04.059-.087.082-.128.117-.205-.11.11.047-.064.07-.076.134-.152.21-.222.053-.053.111-.106.17-.152-.03.023-.129.082.005 0 .123-.07.24-.146.363-.21.128-.065-.193.058.04-.018.047-.018.1-.035.147-.047.064-.017.122-.035.187-.047.046-.011.216-.035.04-.017.123-.018.24-.018.363-.018.07 0 .134.006.204.012.187.012-.117-.035.082.012.128.029.251.064.374.105.228.07-.135-.082.076.03.064.034.134.07.198.11.041.023.088.059.129.082.17.1-.07-.076.064.047.111.105.216.21.321.32.024.03.094.135.006 0 .041.065.088.124.123.194.035.052.058.11.093.17l.053.104c-.035-.082-.035-.087-.018-.029.047.134.088.269.117.409.041.164.012.04.006 0 0 .11.006.216.006.327.006.456.397.9.876.876.467-.023.882-.385.876-.876a3.702 3.702 0 0 0-2.477-3.446c-1.372-.491-3.02-.024-3.937 1.098-.97 1.186-1.15 2.874-.356 4.206.794 1.326 2.33 1.98 3.844 1.705 1.7-.31 2.903-1.869 2.926-3.563.006-.456-.409-.9-.876-.876a.894.894 0 0 0-.876.876zM21.735 47.997c0 1.963.035 3.926 0 5.883v.058c0 .053-.035.217 0 .047-.012.064-.03.129-.047.187-.035.134.1-.164-.012.04a3.516 3.516 0 0 1-.116.2c.023-.035.105-.106-.006 0-.053.052-.105.11-.164.157.123-.099.024-.017-.006 0-.07.035-.128.076-.204.111.204-.087-.316.047-.082.024-.158.017-.321.005-.479.005a.89.89 0 0 0-.876.877v5.964c.017-.105.012-.105-.012-.006-.006.024-.017.047-.023.07.04-.093.035-.093-.012-.006-.006.012-.012.024-.023.03-.035.052-.03.04.023-.03l-.052.053c.07-.047.081-.058.029-.023-.03.035-.193.093-.024.029-.046.017-.099.03-.146.04.158-.04-.058-.005-.117-.005H16.997c-.035 0-.17-.012-.07 0 .129.017-.105-.035-.11-.035.198.076 0 0 .005-.012-.023-.011-.04-.029-.064-.04.082.058.082.058.006-.012.005.011.011.023.023.029.035.052.03.04-.023-.03-.012.006-.059-.122-.012.006-.018-.04-.047-.262-.035-.07 0-.029-.006-.058 0-.093.006-.129 0-.257 0-.38v-1.799-3.692a.89.89 0 0 0-.876-.876h-.316c.006 0-.251-.024-.123-.006.129.023-.116-.035-.116-.035-.03-.006-.164-.059-.006.006-.07-.03-.135-.076-.205-.111-.134-.07-.04-.03-.005 0-.047-.041-.094-.088-.14-.129-.036-.035-.123-.163-.03-.029a1.57 1.57 0 0 1-.082-.128c-.023-.041-.052-.088-.07-.135.07.158.006-.006 0-.047-.011-.046-.035-.216-.017-.04-.006-.053-.006-.106-.006-.164-.006-.31 0-.613 0-.923v-4.013c0-.322-.006-.643 0-.964 0-.035.04-.269 0-.088.012-.058.1-.321.03-.157.022-.059.057-.111.087-.17.017-.04.122-.17.017-.04.035-.042.064-.077.105-.112.024-.023.205-.157.059-.058.04-.03.087-.059.128-.082 0 0 .222-.1.105-.053-.105.041.345-.058.117-.035.07-.005.14-.005.21-.005 1.146-.006 2.29 0 3.43 0h2.009c.246 0-.093-.03.041.005.023.006.251.07.152.035-.117-.04.105.053.105.053.035.023.21.152.07.035.041.035.076.064.111.105.024.024.158.205.059.059.029.04.058.087.081.128.03.059.082.21.041.07l.053.187c.012.064.012.053 0-.035v.175c.012.456.397.9.876.877.467-.024.888-.386.876-.877a2.608 2.608 0 0 0-2.558-2.558c-.392-.006-.789 0-1.18 0h-4.054c-.958 0-1.835.391-2.355 1.227-.356.566-.373 1.185-.373 1.822v4.259c0 .455-.036.934.017 1.39.094.789.502 1.484 1.174 1.916.514.333 1.087.397 1.683.397l-.877-.876V60.983c0 .707.065 1.379.614 1.91.66.643 1.524.561 2.366.561h1.133c.298 0 .596.012.888-.058 1.005-.24 1.53-1.145 1.53-2.12V59.54v-3.967l-.876.876c.508 0 .981-.046 1.449-.268a2.52 2.52 0 0 0 1.192-1.233c.239-.537.239-1.069.239-1.642v-4.124-1.197c0-.456-.403-.9-.876-.876-.485.035-.888.397-.888.887zM34.79 41.075c0 .082-.005.164-.01.245 0 .041-.036.164 0 .006-.03.129-.053.257-.094.38-.018.047-.035.1-.053.146.059-.152.012-.03-.006 0-.076.134-.146.263-.233.391.099-.146-.094.106-.129.14a3.05 3.05 0 0 1-.251.228c.134-.105 0 0-.035.018-.053.035-.105.07-.164.1a2.832 2.832 0 0 0-.134.07c-.17.093.1-.024-.076.029-.123.04-.245.076-.374.105-.163.04-.04.011 0 .006l-.198.017c-.123.006-.246 0-.363-.006-.25-.011.106.024-.04-.006a4.48 4.48 0 0 1-.27-.064c-.058-.017-.309-.117-.151-.047a2.287 2.287 0 0 1-.333-.18c-.041-.03-.082-.06-.129-.088.158.11-.04-.035-.058-.053a3.79 3.79 0 0 1-.263-.269c-.158-.175.053.088-.023-.035l-.105-.157c-.024-.041-.053-.088-.076-.135 0 .006-.105-.222-.053-.105.053.117-.04-.117-.035-.11-.017-.048-.03-.1-.047-.153a2.266 2.266 0 0 1-.04-.193c-.012-.064-.012-.052 0 .036-.006-.041-.006-.082-.012-.117a1.875 1.875 0 0 1 0-.362c0 .005.035-.252.011-.123-.023.128.03-.123.03-.117a7.19 7.19 0 0 1 .099-.333c.047-.134-.1.17.017-.035.036-.064.07-.134.111-.199.024-.04.059-.087.082-.128.117-.205-.11.11.047-.064.07-.076.134-.152.21-.222.053-.053.111-.106.17-.152-.03.023-.129.082.006 0 .122-.07.239-.146.362-.21.128-.065-.193.058.04-.018.047-.018.1-.035.147-.047.064-.017.122-.035.187-.047.046-.011.216-.035.04-.017.123-.018.24-.018.363-.018.07 0 .134.006.204.012.187.012-.117-.035.082.012.128.029.251.064.374.105.228.07-.135-.082.076.03.064.034.134.07.198.11.041.023.088.059.129.082.17.1-.07-.076.064.047.111.105.216.21.321.32.024.03.094.135.006 0 .041.065.088.124.123.194.035.052.058.11.093.17l.053.104c-.035-.082-.035-.087-.018-.029.047.134.088.269.117.409.041.164.012.04.006 0 0 .11.006.216.006.327.006.456.397.9.876.876.467-.023.882-.385.876-.876a3.702 3.702 0 0 0-2.476-3.446c-1.373-.491-3.02-.024-3.938 1.098-.97 1.186-1.15 2.874-.356 4.206.794 1.326 2.33 1.98 3.844 1.705 1.7-.31 2.903-1.869 2.926-3.563.006-.456-.409-.9-.876-.876-.479.017-.87.385-.876.876zM35.293 48.231c.573 2.395 1.18 4.79 1.724 7.191 0 .012.005.024.005.035l-.005-.076a.712.712 0 0 1 0 .158c.017-.105.017-.105 0-.006-.012.03-.106.246-.018.082-.017.03-.152.24-.105.175.076-.093-.1.1-.094.088l-.122.105c.07-.058.064-.053-.024.006-.07.035-.14.082-.216.117.164-.07-.082.011-.093.017-.216.07.146.012-.082.018h-.684c-.52 0-.817.403-.876.876-.105.818-.21 1.636-.321 2.453-.064.509-.134 1.017-.199 1.525-.017.134-.04.269-.052.409 0 .018-.006.035-.006.053-.006.058-.035.14.006 0-.012.035-.012.081-.03.11-.07.112.07-.11-.005 0-.094.14-.006.053-.018.036.006.005-.158.134.006.011-.03.024-.064.041-.093.059-.106.076.11-.07 0 .006-.03.017-.076.017-.111.029.146-.047-.012-.006-.076-.006H32.004c-.035 0-.222-.012-.128 0 .093.017-.205-.105-.035-.012-.041-.023-.088-.046-.129-.082.111.082.006-.005.006-.011-.006.011.094.11.024.029-.018-.018-.094-.158-.047-.058.047.099-.018-.035-.012-.035-.017-.088-.023-.1-.012-.036.006.053.006.053.006 0-.006-.081-.017-.163-.029-.245l-.175-1.355c-.123-.958-.251-1.916-.374-2.88-.058-.467-.35-.876-.876-.876H29.662c-.053 0-.251-.018-.158 0 .135.023-.117-.03-.11-.03-.053-.011-.1-.029-.153-.046.158.052-.093-.059-.146-.088-.204-.105.059.064-.046-.023a2.98 2.98 0 0 1-.14-.135c-.03-.023-.094-.128-.006 0a2.215 2.215 0 0 1-.117-.198c.087.18-.018-.21 0 .006-.006-.053-.006-.106-.006-.158 0 .023-.041.181 0-.012a.208.208 0 0 0 .012-.058l.087-.362c.28-1.18.567-2.355.847-3.535.251-1.04.497-2.08.748-3.119.023-.105.047-.21.076-.315.03-.106.064-.205.105-.31-.064.158.076-.14.1-.175.034-.053.064-.105.104-.158-.023.035-.11.11 0 .006.036-.03.07-.07.1-.105.122-.135-.117.046.047-.035l.122-.07c-.158.087-.023.017.024-.006.046-.018.21-.041.023-.018.053-.006.105-.006.158-.006h3.183c.21 0-.128-.052.065.012.035.012.093.03.134.04-.158-.028-.03-.01.04.03.042.023.077.047.118.076-.164-.117-.006.006.029.04.035.036.064.071.093.106-.122-.152.006.018.03.058.035.053.058.111.087.164.018.035.035.07.047.105-.035-.076-.035-.087-.018-.029.076.146.117.292.152.438.105.462.637.736 1.081.613.473-.128.719-.613.613-1.08-.292-1.256-1.162-2.296-2.523-2.325-.514-.012-1.034 0-1.554 0s-1.034-.012-1.554 0c-1.355.029-2.214 1.086-2.524 2.325-.56 2.231-1.074 4.48-1.606 6.718-.164.689-.286 1.343.058 2.02.322.638.97 1.105 1.648 1.298.426.117.864.093 1.297.093l-.877-.876.35 2.71.194 1.496.035.315c.058.631.327 1.163.84 1.543.567.42 1.24.373 1.9.373.531 0 1.115.065 1.635-.046a2.021 2.021 0 0 0 1.32-.988c.181-.327.216-.654.257-1.016.041-.403.105-.806.158-1.21.14-1.057.275-2.114.415-3.177l-.876.876c.496 0 .993.024 1.46-.158.771-.292 1.46-.91 1.659-1.735.152-.619-.035-1.197-.181-1.793-.397-1.665-.795-3.33-1.198-4.995l-.35-1.454c-.111-.462-.631-.736-1.08-.613-.457.134-.708.625-.597 1.086zM49.465 41.075c0 .082-.006.164-.012.245 0 .041-.035.164 0 .006-.029.129-.052.257-.093.38-.018.047-.035.1-.053.146.059-.152.012-.03-.005 0-.076.134-.146.263-.234.391.1-.146-.094.106-.129.14a3.05 3.05 0 0 1-.25.228c.134-.105 0 0-.036.018-.052.035-.105.07-.163.1-.047.023-.094.046-.135.07-.17.093.1-.024-.076.029-.122.04-.245.076-.374.105-.163.04-.04.011 0 .006l-.198.017c-.123.006-.246 0-.362-.006-.252-.011.105.024-.041-.006a4.48 4.48 0 0 1-.269-.064c-.058-.017-.31-.117-.152-.047a2.287 2.287 0 0 1-.333-.18c-.04-.03-.082-.06-.128-.088.157.11-.041-.035-.059-.053a3.79 3.79 0 0 1-.263-.269c-.157-.175.053.088-.023-.035l-.105-.157c-.024-.041-.053-.088-.076-.135 0 .006-.105-.222-.053-.105.053.117-.04-.117-.035-.11-.017-.048-.029-.1-.046-.153-.018-.064-.03-.128-.041-.193-.012-.064-.012-.052 0 .036-.006-.041-.006-.082-.012-.117a1.875 1.875 0 0 1 0-.362c0 .005.035-.252.012-.123-.024.128.029-.123.029-.117.029-.111.064-.222.1-.333.046-.134-.1.17.017-.035.035-.064.07-.134.11-.199.024-.04.06-.087.082-.128.117-.205-.11.11.047-.064.07-.076.135-.152.21-.222.053-.053.111-.106.17-.152-.03.023-.129.082.006 0 .122-.07.24-.146.362-.21.128-.065-.193.058.04-.018.048-.018.1-.035.147-.047.064-.017.123-.035.187-.047.046-.011.216-.035.04-.017.123-.018.24-.018.363-.018.07 0 .134.006.204.012.187.012-.117-.035.082.012.129.029.251.064.374.105.228.07-.134-.082.076.03.064.034.134.07.198.11.041.023.088.059.129.082.17.1-.07-.076.064.047.111.105.216.21.322.32.023.03.093.135.005 0 .041.065.088.124.123.194.035.052.058.11.094.17l.052.104c-.035-.082-.035-.087-.017-.029.046.134.087.269.116.409.041.164.012.04.006 0 .006.11.006.216.006.327.006.456.397.9.876.876.468-.023.882-.385.877-.876a3.702 3.702 0 0 0-2.477-3.446c-1.373-.491-3.02-.024-3.938 1.098-.97 1.186-1.15 2.874-.356 4.206.795 1.326 2.331 1.98 3.844 1.705 1.7-.31 2.903-1.869 2.927-3.563.005-.456-.41-.9-.877-.876a.894.894 0 0 0-.876.876zM51.09 47.997c0 1.963.034 3.926 0 5.883v.058c0 .053-.036.217 0 .047-.013.064-.03.129-.048.187-.035.134.1-.164-.011.04a3.516 3.516 0 0 1-.117.2c.023-.035.105-.106-.006 0-.053.052-.105.11-.164.157.123-.099.024-.017-.005 0-.07.035-.129.076-.205.111.205-.087-.315.047-.082.024-.157.017-.32.005-.479.005a.89.89 0 0 0-.876.877v5.964c.018-.105.012-.105-.012-.006-.005.024-.017.047-.023.07.04-.093.035-.093-.012-.006-.005.012-.011.024-.023.03-.035.052-.03.04.023-.03l-.052.053c.07-.047.082-.058.029-.023-.03.035-.193.093-.023.029-.047.017-.1.03-.146.04.157-.04-.059-.005-.117-.005h-2.39c-.035 0-.169-.012-.07 0 .129.017-.105-.035-.11-.035.198.076 0 0 .005-.012-.023-.011-.04-.029-.064-.04.082.058.082.058.006-.012.006.011.012.023.023.029.035.052.03.04-.023-.03-.012.006-.059-.122-.012.006-.017-.04-.047-.262-.035-.07 0-.029-.006-.058 0-.093.006-.129 0-.257 0-.38v-1.799-3.692a.89.89 0 0 0-.876-.876h-.316c.006 0-.25-.024-.122-.006.128.023-.117-.035-.117-.035-.03-.006-.164-.059-.006.006-.07-.03-.134-.076-.204-.111-.135-.07-.041-.03-.006 0-.047-.041-.094-.088-.14-.129-.035-.035-.123-.163-.03-.029a1.57 1.57 0 0 1-.081-.128c-.024-.041-.053-.088-.07-.135.07.158.005-.006 0-.047-.012-.046-.036-.216-.018-.04-.006-.053-.006-.106-.006-.164-.006-.31 0-.613 0-.923v-4.013c0-.322-.006-.643 0-.964 0-.035.041-.269 0-.088.012-.058.1-.321.03-.157.023-.059.058-.111.087-.17.017-.04.123-.17.017-.04.036-.042.065-.077.106-.112.023-.023.204-.157.058-.058.04-.03.088-.059.129-.082 0 0 .222-.1.105-.053-.105.041.344-.058.117-.035.07-.005.14-.005.21-.005 1.145-.006 2.29 0 3.429 0h2.009c.246 0-.093-.03.041.005.024.006.251.07.152.035-.117-.04.105.053.105.053.035.023.21.152.07.035.041.035.076.064.111.105.024.024.158.205.059.059.029.04.058.087.082.128.029.059.081.21.04.07.018.065.036.123.053.187.012.064.012.053 0-.035-.006.07 0 .123 0 .175.012.456.397.9.876.877.468-.024.888-.386.877-.877a2.608 2.608 0 0 0-2.56-2.558c-.39-.006-.788 0-1.18 0H45.05c-.958 0-1.834.391-2.354 1.227-.357.566-.374 1.185-.374 1.822v4.259c0 .455-.035.934.017 1.39.094.789.503 1.484 1.174 1.916.515.333 1.087.397 1.683.397l-.876-.876V60.983c0 .707.064 1.379.613 1.91.66.643 1.525.561 2.366.561h1.133c.298 0 .596.012.888-.058 1.005-.24 1.53-1.145 1.53-2.12V59.54v-3.967l-.876.876c.509 0 .982-.046 1.45-.268a2.52 2.52 0 0 0 1.19-1.233c.24-.537.24-1.069.24-1.642v-4.124-1.197c0-.456-.403-.9-.876-.876-.485.035-.888.397-.888.887zM64.145 41.075c0 .082-.006.164-.012.245 0 .041-.035.164 0 .006-.029.129-.052.257-.093.38-.018.047-.035.1-.053.146.059-.152.012-.03-.005 0-.076.134-.146.263-.234.391.1-.146-.094.106-.129.14a3.05 3.05 0 0 1-.25.228c.134-.105 0 0-.036.018-.052.035-.105.07-.163.1a2.832 2.832 0 0 0-.135.07c-.17.093.1-.024-.076.029-.122.04-.245.076-.374.105-.163.04-.04.011 0 .006l-.198.017c-.123.006-.246 0-.362-.006-.252-.011.105.024-.041-.006a4.48 4.48 0 0 1-.269-.064c-.058-.017-.31-.117-.152-.047a2.287 2.287 0 0 1-.333-.18c-.04-.03-.082-.06-.128-.088.157.11-.041-.035-.059-.053a3.79 3.79 0 0 1-.263-.269c-.157-.175.053.088-.023-.035l-.105-.157c-.024-.041-.053-.088-.076-.135 0 .006-.105-.222-.053-.105.053.117-.04-.117-.035-.11-.017-.048-.029-.1-.046-.153-.018-.064-.03-.128-.041-.193-.012-.064-.012-.052 0 .036-.006-.041-.006-.082-.012-.117a1.875 1.875 0 0 1 0-.362c0 .005.035-.252.012-.123-.024.128.029-.123.029-.117.03-.111.064-.222.1-.333.046-.134-.1.17.017-.035.035-.064.07-.134.11-.199.024-.04.06-.087.082-.128.117-.205-.11.11.047-.064.07-.076.135-.152.21-.222.053-.053.112-.106.17-.152-.03.023-.129.082.006 0 .122-.07.24-.146.362-.21.128-.065-.193.058.04-.018.048-.018.1-.035.147-.047.064-.017.123-.035.187-.047.047-.011.216-.035.04-.017.123-.018.24-.018.363-.018.07 0 .134.006.204.012.187.012-.116-.035.082.012.129.029.251.064.374.105.228.07-.134-.082.076.03.064.034.134.07.199.11.04.023.087.059.128.082.17.1-.07-.076.064.047.111.105.216.21.322.32.023.03.093.135.005 0 .041.065.088.124.123.194.035.052.059.11.094.17l.052.104c-.035-.082-.035-.087-.017-.029.046.134.087.269.116.409.041.164.012.04.006 0 0 .11.006.216.006.327.006.456.397.9.876.876.468-.023.882-.385.877-.876a3.702 3.702 0 0 0-2.477-3.446c-1.373-.491-3.02-.024-3.937 1.098-.97 1.186-1.151 2.874-.357 4.206.795 1.326 2.331 1.98 3.844 1.705 1.7-.31 2.903-1.869 2.927-3.563.005-.456-.41-.9-.877-.876-.479.017-.87.385-.876.876zM64.648 48.231c.572 2.395 1.18 4.79 1.723 7.191 0 .012.006.024.006.035l-.006-.076a.712.712 0 0 1 0 .158c.017-.105.017-.105 0-.006-.012.03-.105.246-.018.082-.017.03-.152.24-.105.175.076-.093-.1.1-.093.088l-.123.105c.07-.058.064-.053-.023.006-.07.035-.14.082-.216.117.163-.07-.082.011-.094.017-.216.07.146.012-.082.018h-.684c-.52 0-.817.403-.875.876-.106.818-.21 1.636-.322 2.453-.064.509-.134 1.017-.198 1.525-.018.134-.041.269-.053.409 0 .018-.006.035-.006.053-.006.058-.035.14.006 0-.012.035-.012.081-.03.11-.07.112.07-.11-.005 0-.093.14-.006.053-.018.036.006.005-.157.134.006.011-.029.024-.064.041-.093.059-.105.076.11-.07 0 .006-.03.017-.076.017-.111.029.146-.047-.012-.006-.076-.006h-1.799c-.035 0-.222-.012-.129 0 .094.017-.204-.105-.035-.012-.04-.023-.087-.046-.128-.082.11.082.005-.005.005-.011-.005.011.094.11.024.029-.018-.018-.094-.158-.047-.058.047.099-.017-.035-.012-.035-.017-.088-.023-.1-.011-.036.006.053.006.053.006 0a3.51 3.51 0 0 0-.03-.245l-.175-1.355c-.123-.958-.251-1.916-.374-2.88-.058-.467-.35-.876-.876-.876H59.016c-.052 0-.251-.018-.158 0 .135.023-.116-.03-.11-.03-.053-.011-.1-.029-.152-.046.157.052-.094-.059-.146-.088-.205-.105.058.064-.047-.023a2.98 2.98 0 0 1-.14-.135c-.03-.023-.094-.128-.006 0a2.215 2.215 0 0 1-.117-.198c.088.18-.018-.21 0 .006-.006-.053-.006-.106-.006-.158 0 .023-.04.181 0-.012a.208.208 0 0 0 .012-.058l.087-.362c.28-1.18.567-2.355.847-3.535.252-1.04.497-2.08.748-3.119.024-.105.047-.21.076-.315.03-.106.064-.205.105-.31-.064.158.076-.14.1-.175.035-.053.064-.105.105-.158-.024.035-.111.11 0 .006.035-.03.07-.07.099-.105.123-.135-.117.046.047-.035l.122-.07c-.157.087-.023.017.024-.006.047-.018.21-.041.023-.018.053-.006.105-.006.158-.006H63.87c.21 0-.129-.052.064.012.035.012.093.03.134.04-.158-.028-.029-.01.041.03.041.023.076.047.117.076-.164-.117-.006.006.03.04.034.036.063.071.093.106-.123-.152.005.018.029.058.035.053.058.111.087.164.018.035.035.07.047.105-.035-.076-.035-.087-.017-.029.076.146.116.292.152.438.105.462.636.736 1.08.613.473-.128.719-.613.614-1.08-.292-1.256-1.163-2.296-2.524-2.325-.514-.012-1.034 0-1.554 0-.514 0-1.034-.012-1.554 0-1.355.029-2.214 1.086-2.523 2.325-.561 2.231-1.075 4.48-1.607 6.718-.163.689-.286 1.343.059 2.02.32.638.97 1.105 1.647 1.298.426.117.865.093 1.297.093l-.876-.876.35 2.71.193 1.496.035.315c.058.631.327 1.163.841 1.543.567.42 1.239.373 1.899.373.531 0 1.115.065 1.635-.046a2.021 2.021 0 0 0 1.32-.988c.182-.327.217-.654.258-1.016.04-.403.105-.806.157-1.21.14-1.057.275-2.114.415-3.177l-.876.876c.496 0 .993.024 1.46-.158.771-.292 1.46-.91 1.66-1.735.151-.619-.036-1.197-.182-1.793-.397-1.665-.794-3.33-1.197-4.995l-.35-1.454c-.112-.462-.632-.736-1.082-.613-.455.134-.706.625-.595 1.086zM23.744 33.481a3.448 3.448 0 0 1 .012-.251.827.827 0 0 1 .023-.117c.018-.076.035-.152.059-.228.012-.04.117-.286.035-.117.064-.14.146-.268.222-.397.117-.193-.105.1.047-.064l.151-.17c.053-.052.111-.105.17-.152.146-.128-.088.047.064-.046l.193-.123c.023-.012.263-.128.17-.088-.094.041.122-.04.145-.046.088-.03.176-.047.263-.07.181-.047-.122-.006.082-.012.082-.006.164-.012.245-.012.082 0 .164.006.246.012.245.017-.152-.04.081.012.152.035.298.076.45.134-.175-.07.07.04.105.058.065.035.129.076.2.117.028.024.063.041.093.064-.065-.052-.076-.058-.03-.023.07.059.135.117.199.175.053.053.105.111.152.17.123.134-.053-.105.047.064.076.134.157.257.222.397-.076-.17.011.041.023.076.023.076.047.152.064.228.012.053.024.105.03.152-.012-.088-.012-.1-.006-.035.011.093.011.187.011.28.006.456.397.9.876.877.468-.024.883-.386.877-.877-.03-1.98-1.636-3.64-3.64-3.64-1.997 0-3.61 1.66-3.639 3.64-.006.456.409.9.876.877.491-.012.877-.374.882-.865zM38.424 33.481a3.448 3.448 0 0 1 .012-.251.827.827 0 0 1 .023-.117c.018-.076.036-.152.059-.228.012-.04.117-.286.035-.117.064-.14.146-.268.222-.397.117-.193-.105.1.047-.064l.152-.17c.052-.052.11-.105.169-.152.146-.128-.088.047.064-.046l.193-.123c.023-.012.263-.128.17-.088-.094.041.122-.04.145-.046.088-.03.176-.047.263-.07.181-.047-.122-.006.082-.012.082-.006.164-.012.245-.012.082 0 .164.006.246.012.245.017-.152-.04.082.012.151.035.297.076.45.134-.176-.07.07.04.105.058.064.035.128.076.198.117.03.024.064.041.094.064-.065-.052-.076-.058-.03-.023.07.059.135.117.199.175.053.053.105.111.152.17.123.134-.053-.105.047.064.076.134.157.257.222.397-.076-.17.011.041.023.076.023.076.047.152.064.228.012.053.024.105.03.152-.012-.088-.012-.1-.006-.035.011.093.011.187.011.28.006.456.397.9.877.877.467-.024.882-.386.876-.877-.03-1.98-1.636-3.64-3.64-3.64-1.997 0-3.61 1.66-3.639 3.64-.006.456.409.9.876.877.485-.012.877-.374.882-.865zM53.099 33.481c0-.082.005-.164.011-.245.012-.106.012-.106 0-.006a.827.827 0 0 1 .024-.117c.017-.076.035-.152.058-.228.012-.04.117-.286.035-.117.064-.14.146-.268.222-.397.117-.193-.105.1.047-.064l.152-.17c.052-.052.11-.105.17-.152.145-.128-.088.047.063-.046l.193-.123c.024-.012.263-.128.17-.088-.094.041.122-.04.146-.046.087-.03.175-.047.262-.07.182-.047-.122-.006.082-.012.082-.006.164-.012.246-.012.081 0 .163.006.245.012.245.017-.152-.04.082.012.152.035.298.076.45.134-.176-.07.07.04.105.058.064.035.128.076.198.117.03.024.065.041.094.064-.064-.052-.076-.058-.03-.023.07.059.135.117.2.175.052.053.104.111.151.17.123.134-.052-.105.047.064.076.134.158.257.222.397-.076-.17.011.041.023.076.024.076.047.152.064.228.012.053.024.105.03.152-.012-.088-.012-.1-.006-.035.011.093.011.187.011.28.006.456.398.9.877.877.467-.024.882-.386.876-.877-.03-1.98-1.636-3.64-3.64-3.64-1.997 0-3.61 1.66-3.639 3.64-.006.456.41.9.877.877.49-.012.876-.374.882-.865zM31.087 26.085c0-.081.006-.163.012-.245.012-.105.012-.105 0-.006a3.26 3.26 0 0 1 .082-.345c.011-.04.117-.286.035-.116.064-.14.146-.269.222-.397.117-.193-.105.099.047-.065l.151-.17c.053-.052.111-.104.17-.151.146-.129-.088.047.064-.047l.193-.122c.023-.012.263-.129.17-.088-.094.04.122-.041.145-.047.088-.029.176-.047.263-.07.181-.047-.122-.006.082-.012.082-.005.164-.011.245-.011.082 0 .164.006.246.011.245.018-.152-.04.081.012.152.035.298.076.45.134-.175-.07.07.041.105.059.065.035.129.076.199.117.03.023.064.04.093.064-.064-.053-.075-.058-.029-.023.07.058.135.116.199.175.052.052.105.11.152.17.122.134-.053-.106.047.064.075.134.157.257.221.397-.075-.17.012.04.024.076.023.076.047.152.064.228.012.052.023.105.03.151-.012-.087-.012-.099-.007-.035.012.094.012.187.012.28.006.456.397.9.876.877.468-.023.882-.386.877-.876-.03-1.98-1.636-3.64-3.64-3.64-1.998 0-3.61 1.66-3.64 3.64-.005.455.41.9.877.876.485-.012.87-.374.882-.865zM45.762 26.085c0-.081.005-.163.011-.245.012-.105.012-.105 0-.006a3.26 3.26 0 0 1 .082-.345c.012-.04.117-.286.035-.116.064-.14.146-.269.222-.397.117-.193-.105.099.047-.065l.152-.17c.052-.052.11-.104.169-.151.146-.129-.088.047.064-.047l.193-.122c.023-.012.263-.129.17-.088-.094.04.122-.041.146-.047.087-.029.175-.047.262-.07.181-.047-.122-.006.082-.012.082-.005.164-.011.246-.011.081 0 .163.006.245.011.245.018-.152-.04.082.012.152.035.298.076.45.134-.176-.07.07.041.105.059.064.035.128.076.198.117.03.023.064.04.094.064-.065-.053-.076-.058-.03-.023.07.058.135.116.2.175.052.052.104.11.151.17.123.134-.053-.106.047.064.076.134.157.257.222.397-.076-.17.011.04.023.076.023.076.047.152.064.228.012.052.024.105.03.151-.012-.087-.012-.099-.006-.035.011.094.011.187.011.28.006.456.398.9.877.877.467-.023.882-.386.876-.876-.03-1.98-1.636-3.64-3.64-3.64-1.997 0-3.61 1.66-3.639 3.64-.006.455.41.9.876.876.485-.012.877-.374.883-.865zM38.424 19.105a3.448 3.448 0 0 1 .012-.252.827.827 0 0 1 .023-.116c.018-.076.036-.152.059-.228.012-.041.117-.286.035-.117.064-.14.146-.269.222-.397.117-.193-.105.1.047-.065l.152-.169c.052-.052.11-.105.169-.152.146-.128-.088.047.064-.047l.193-.122c.023-.012.263-.129.17-.088-.094.041.122-.04.145-.047.088-.029.176-.046.263-.07.181-.046-.122-.005.082-.011.082-.006.164-.012.245-.012.082 0 .164.006.246.012.245.017-.152-.041.082.011.151.035.297.076.45.135-.176-.07.07.04.105.058.064.035.128.076.198.117.03.023.064.04.094.064-.065-.052-.076-.058-.03-.023.07.058.135.117.199.175.053.053.105.111.152.17.123.134-.053-.106.047.064.076.134.157.257.222.397-.076-.17.011.04.023.076.023.076.047.152.064.228.012.052.024.105.03.152-.012-.088-.012-.1-.006-.035.011.093.011.187.011.28.006.456.397.9.877.876.467-.023.882-.385.876-.876-.03-1.98-1.636-3.64-3.64-3.64-1.997 0-3.61 1.66-3.639 3.64-.006.456.409.9.876.876a.874.874 0 0 0 .882-.864z"/>
        </g>
    </g>
</svg>
