<?xml version="1.0" encoding="UTF-8"?>
<svg width="454px" height="340px" viewBox="0 0 454 340" version="1.1" xmlns="http://www.w3.org/2000/svg" xmlns:xlink="http://www.w3.org/1999/xlink">
    <!-- Generator: Sketch 55.2 (78181) - https://sketchapp.com -->
    <title>shield</title>
    <desc>Created with Sketch.</desc>
    <defs>
        <filter x="-24.4%" y="-33.9%" width="148.7%" height="167.8%" filterUnits="objectBoundingBox" id="filter-1">
            <feOffset dx="0" dy="20" in="SourceAlpha" result="shadowOffsetOuter1"></feOffset>
            <feGaussianBlur stdDeviation="15" in="shadowOffsetOuter1" result="shadowBlurOuter1"></feGaussianBlur>
            <feColorMatrix values="0 0 0 0 0   0 0 0 0 0   0 0 0 0 0  0 0 0 0.2 0" type="matrix" in="shadowBlurOuter1" result="shadowMatrixOuter1"></feColorMatrix>
            <feMerge>
                <feMergeNode in="shadowMatrixOuter1"></feMergeNode>
                <feMergeNode in="SourceGraphic"></feMergeNode>
            </feMerge>
        </filter>
        <linearGradient x1="97.4614009%" y1="62.2803243%" x2="0%" y2="49.0877932%" id="linearGradient-2">
            <stop stop-color="#1B222F" offset="0%"></stop>
            <stop stop-color="#42505F" offset="54.107941%"></stop>
            <stop stop-color="#4E5968" offset="100%"></stop>
        </linearGradient>
        <path d="M0,79.9706135 C0,74.120286 0,64.5851887 0,51.3653217 L15.0082895,41.7040593 L348.01909,0.0485227313 C368.097512,30.5067075 381.150989,54.5667095 387.179523,72.2285289 C392.025867,86.4268819 396.65651,108.397993 391.749729,150.4287 C390.951773,157.263856 387.031963,173.5307 379.990298,199.229232 C275.131214,201.505244 204.218162,194.395853 167.251143,177.901062 C147.326762,169.010745 125.082772,158.00918 108.516602,148.417501 C78.9783088,131.315068 50.9191907,112.262342 0,79.9706135 Z" id="path-3"></path>
        <linearGradient x1="50%" y1="0%" x2="50%" y2="100%" id="linearGradient-5">
            <stop stop-color="#5B687C" offset="0%"></stop>
            <stop stop-color="#3D4A57" offset="100%"></stop>
        </linearGradient>
        <linearGradient x1="0.775620052%" y1="44.6387575%" x2="99.5601162%" y2="55.3612425%" id="linearGradient-6">
            <stop stop-color="#05E4FF" offset="0%"></stop>
            <stop stop-color="#00C0FF" offset="50%"></stop>
            <stop stop-color="#00BF81" offset="100%"></stop>
        </linearGradient>
        <path d="M-2.53825724,63.7008665 L34.7626025,88.905459 L38.0082895,97.9640501 L95.7929687,134.897189 L106.097656,134.897189 C151.193306,158.639851 180.539985,172.461128 194.137694,176.361023 C230.770686,186.867557 292.721554,190.803216 379.990298,188.167999" id="path-7"></path>
        <filter x="-0.5%" y="-1.3%" width="101.0%" height="104.3%" filterUnits="objectBoundingBox" id="filter-8">
            <feMorphology radius="0.75" operator="dilate" in="SourceAlpha" result="shadowSpreadOuter1"></feMorphology>
            <feOffset dx="0" dy="2" in="shadowSpreadOuter1" result="shadowOffsetOuter1"></feOffset>
            <feMorphology radius="1" operator="erode" in="SourceAlpha" result="shadowInner"></feMorphology>
            <feOffset dx="0" dy="2" in="shadowInner" result="shadowInner"></feOffset>
            <feComposite in="shadowOffsetOuter1" in2="shadowInner" operator="out" result="shadowOffsetOuter1"></feComposite>
            <feColorMatrix values="0 0 0 0 0   0 0 0 0 0   0 0 0 0 0  0 0 0 0.2 0" type="matrix" in="shadowOffsetOuter1"></feColorMatrix>
        </filter>
        <path d="M0,133.46426 L113.956238,21.9770025 L276.323281,0 C324.130353,48.0545222 357.114148,90.88229 375.274664,128.483303 C393.435181,166.084317 395.007059,209.031068 379.990298,257.323557 C273.201047,263.688554 197.666988,255.118795 153.388121,231.614281 C109.109254,208.109766 57.9798803,175.393092 0,133.46426 Z" id="path-9"></path>
        <linearGradient x1="50%" y1="21.9792483%" x2="51.2398218%" y2="94.7693636%" id="linearGradient-11">
            <stop stop-color="#535B6A" offset="0%"></stop>
            <stop stop-color="#71798A" offset="100%"></stop>
        </linearGradient>
        <linearGradient x1="2.77213051%" y1="44.2839253%" x2="89.1709484%" y2="54.9230831%" id="linearGradient-12">
            <stop stop-color="#5D6776" offset="0%"></stop>
            <stop stop-color="#687081" offset="33.3905194%"></stop>
            <stop stop-color="#283240" offset="100%"></stop>
        </linearGradient>
        <linearGradient x1="48.6462992%" y1="0%" x2="51.3629338%" y2="100%" id="linearGradient-13">
            <stop stop-color="#7DCA46" offset="0%"></stop>
            <stop stop-color="#00D4FF" offset="100%"></stop>
        </linearGradient>
        <linearGradient x1="71.0256021%" y1="27.6918212%" x2="17.0746855%" y2="57.9850577%" id="linearGradient-14">
            <stop stop-color="#5C6878" offset="0%"></stop>
            <stop stop-color="#50596B" offset="100%"></stop>
        </linearGradient>
        <path d="M-2.84217094e-14,110.173433 L88.0546946,19.5575378 L232.546629,-7.10542736e-14 C259.703113,27.3772239 277.669723,47.1027211 286.446456,59.1764917 C292.226607,67.1279934 316.288044,95.7209957 321.710721,145.109708 C324.649608,171.876541 323.604368,195.15778 318.574998,214.953423 C232.194789,218.888956 170.050371,211.445042 132.141742,192.62168 C94.2331128,173.798318 50.1858656,146.315569 -2.84217094e-14,110.173433 Z" id="path-15"></path>
        <linearGradient x1="15.5091054%" y1="5.75502941%" x2="71.9133017%" y2="74.409395%" id="linearGradient-17">
            <stop stop-color="#87D2FF" offset="0%"></stop>
            <stop stop-color="#4CBBFD" offset="100%"></stop>
        </linearGradient>
        <linearGradient x1="27.2668111%" y1="27.6279582%" x2="99.5601162%" y2="77.8167093%" id="linearGradient-18">
            <stop stop-color="#00FFAC" offset="0%"></stop>
            <stop stop-color="#00C0FF" offset="50%"></stop>
            <stop stop-color="#00C585" offset="100%"></stop>
        </linearGradient>
        <linearGradient x1="27.2668111%" y1="32.0582836%" x2="99.5601162%" y2="72.3081788%" id="linearGradient-19">
            <stop stop-color="#19E6FF" offset="0%"></stop>
            <stop stop-color="#00C0FF" offset="50%"></stop>
            <stop stop-color="#00D791" offset="100%"></stop>
        </linearGradient>
        <path d="M38.0082895,121.173433 L126.062984,30.5575378 L270.554918,11 C297.711403,38.3772239 315.678012,58.1027211 324.454746,70.1764917 C330.234897,78.1279934 354.296333,106.720996 359.71901,156.109708 C362.657898,182.876541 361.612657,206.15778 356.583287,225.953423 C270.203079,229.888956 208.05866,222.445042 170.150031,203.62168 C132.241402,184.798318 88.194155,157.315569 38.0082895,121.173433 Z M171.484241,200.934696 C208.508258,219.318808 269.456998,226.741146 354.204533,223.056361 C358.680067,204.102344 359.532144,181.895396 356.736931,156.437128 C354.3512,134.708347 348.212134,115.572779 339.345715,98.5773761 C336.138978,92.4306132 332.739673,86.8779389 329.081562,81.5863795 C327.739191,79.6446041 326.443495,77.8526961 324.966608,75.8718398 C324.790669,75.6358627 322.506167,72.5980602 322.028137,71.9404559 C313.480012,60.1811729 295.942758,40.8961734 269.476306,14.1733539 L127.492302,33.3914304 L42.5852451,120.768135 C91.4773226,155.822237 134.449203,182.545112 171.484241,200.934696 Z" id="path-20"></path>
        <filter x="-2.5%" y="-4.2%" width="104.3%" height="106.5%" filterUnits="objectBoundingBox" id="filter-21">
            <feOffset dx="-1" dy="-2" in="SourceAlpha" result="shadowOffsetOuter1"></feOffset>
            <feGaussianBlur stdDeviation="2" in="shadowOffsetOuter1" result="shadowBlurOuter1"></feGaussianBlur>
            <feColorMatrix values="0 0 0 0 0.298039216   0 0 0 0 0.733333333   0 0 0 0 0.992156863  0 0 0 0.3 0" type="matrix" in="shadowBlurOuter1"></feColorMatrix>
        </filter>
        <linearGradient x1="0%" y1="28.7734783%" x2="104.478619%" y2="71.2265217%" id="linearGradient-22">
            <stop stop-color="#04DBFF" offset="0%"></stop>
            <stop stop-color="#02CEFF" offset="100%"></stop>
        </linearGradient>
        <path d="M39.802002,172.955078 L53.0791016,181.944795 L53.5839844,186.689941 L41.6877441,178.563232 L39.802002,172.955078 Z M55.8570557,183.252808 L103.145508,214.227173 L97.3974609,214.227173 L56.4141323,187.944092 L55.8570557,183.252808 Z" id="path-23"></path>
        <filter x="-1.6%" y="-2.4%" width="104.7%" height="109.7%" filterUnits="objectBoundingBox" id="filter-24">
            <feOffset dx="1" dy="2" in="SourceAlpha" result="shadowOffsetOuter1"></feOffset>
            <feColorMatrix values="0 0 0 0 0   0 0 0 0 0   0 0 0 0 0  0 0 0 0.2 0" type="matrix" in="shadowOffsetOuter1"></feColorMatrix>
        </filter>
        <linearGradient x1="22.2643521%" y1="28.7533351%" x2="83.0460582%" y2="69.1095078%" id="linearGradient-25">
            <stop stop-color="#393D44" offset="0%"></stop>
            <stop stop-color="#30343B" offset="100%"></stop>
        </linearGradient>
        <ellipse id="path-26" cx="79.1886805" cy="58.2640481" rx="79.1886805" ry="58.2640481"></ellipse>
        <filter x="-17.4%" y="-15.0%" width="134.7%" height="147.2%" filterUnits="objectBoundingBox" id="filter-28">
            <feOffset dx="0" dy="10" in="SourceAlpha" result="shadowOffsetOuter1"></feOffset>
            <feGaussianBlur stdDeviation="7.5" in="shadowOffsetOuter1" result="shadowBlurOuter1"></feGaussianBlur>
            <feComposite in="shadowBlurOuter1" in2="SourceAlpha" operator="out" result="shadowBlurOuter1"></feComposite>
            <feColorMatrix values="0 0 0 0 0   0 0 0 0 0   0 0 0 0 0  0 0 0 0.4 0" type="matrix" in="shadowBlurOuter1"></feColorMatrix>
        </filter>
        <linearGradient x1="90.714485%" y1="66.4778638%" x2="1.20033942%" y2="45.2757421%" id="linearGradient-29">
            <stop stop-color="#4FBCFD" offset="0%"></stop>
            <stop stop-color="#87FBC4" offset="100%"></stop>
        </linearGradient>
        <linearGradient x1="22.2643521%" y1="28.2063881%" x2="83.0460582%" y2="69.6014386%" id="linearGradient-30">
            <stop stop-color="#393D44" offset="0%"></stop>
            <stop stop-color="#30343B" offset="100%"></stop>
        </linearGradient>
        <ellipse id="path-31" cx="79.1886806" cy="58.2640481" rx="78.1886806" ry="58.2640481"></ellipse>
        <linearGradient x1="9.22974596%" y1="16.9055354%" x2="75.9028039%" y2="68.2578008%" id="linearGradient-33">
            <stop stop-color="#8BFFC0" offset="0%"></stop>
            <stop stop-color="#4CBBFD" offset="100%"></stop>
        </linearGradient>
        <path d="M233.96012,81.4894359 L254.271602,103.114867 C254.311344,103.157179 254.347042,103.202976 254.378243,103.251678 C254.658826,103.689629 254.525239,104.26629 254.079869,104.539685 L216.036549,127.892996 C215.653099,128.128381 215.152568,128.065697 214.839455,127.743078 L191.342635,103.532912 L188.836957,100.796502 C188.801389,100.758516 188.769069,100.717727 188.740325,100.67455 C188.451997,100.241446 188.575272,99.662541 189.015668,99.3815292 C190.354711,98.6658974 191.657922,97.9695625 192.925298,97.2925245 C187.955159,91.1634819 186.441334,83.6147795 189.79692,77.8515819 C194.569347,69.6549714 207.280998,68.0728063 218.189189,74.3177173 C220.825163,75.8268059 223.141698,77.7768476 225.048142,79.8752558 L227.403284,78.4654431 C228.372907,77.8924488 229.072214,77.5706071 229.501203,77.4999179 C230.144687,77.3938841 230.994974,78.292547 231.294357,78.6099915 L233.96012,81.4894359 L232.384989,82.3545667 L233.96012,81.4894359 Z M197.363305,75.4678091 C192.383152,78.291427 190.403155,83.6338256 192.843081,89.7641429 C193.33277,90.9944878 194.49526,92.7880201 196.330551,95.1447397 L221.518289,81.3182051 C218.797656,78.8985797 216.638036,77.2874084 215.039427,76.4846911 C208.400355,73.1509808 202.123444,72.768933 197.363305,75.4678091 Z M194.949426,100.233911 C194.869366,100.278487 194.795813,100.333856 194.730832,100.398463 C194.33918,100.787856 194.33735,101.421019 194.726743,101.812671 L215.546941,122.753611 C215.872301,123.080858 216.379338,123.142973 216.774071,122.903944 L248.584991,103.640891 C248.643962,103.605182 248.699082,103.563469 248.749472,103.51642 C249.153148,103.139507 249.174844,102.506713 248.79793,102.103037 L229.764648,81.7182946 C229.451006,81.3823831 228.948791,81.3034907 228.547262,81.527057 L194.949426,100.233911 Z M231.237835,92.2689391 C231.778102,91.9138047 232.50784,91.9809107 232.971752,92.4283884 L235.139744,94.5195794 C235.670068,95.0311163 235.669418,95.8559106 235.138294,96.3618089 C235.062522,96.4339818 234.978074,96.497277 234.886707,96.5503776 L232.512691,97.9301101 C231.972626,98.2439854 231.276224,98.1578959 230.833286,97.7225013 L228.79982,95.7236654 C228.27456,95.2073509 228.283374,94.3826371 228.819507,93.8816157 C228.874809,93.8299363 228.934638,93.7829022 228.998344,93.7410267 L231.237835,92.2689391 Z" id="path-34"></path>
        <filter x="-12.0%" y="-15.6%" width="122.5%" height="131.3%" filterUnits="objectBoundingBox" id="filter-35">
            <feOffset dx="-1" dy="-2" in="SourceAlpha" result="shadowOffsetOuter1"></feOffset>
            <feGaussianBlur stdDeviation="2" in="shadowOffsetOuter1" result="shadowBlurOuter1"></feGaussianBlur>
            <feColorMatrix values="0 0 0 0 0.31372549   0 0 0 0 0.678431373   0 0 0 0 0.784313725  0 0 0 0.2 0" type="matrix" in="shadowBlurOuter1" result="shadowMatrixOuter1"></feColorMatrix>
            <feOffset dx="0" dy="2" in="SourceAlpha" result="shadowOffsetOuter2"></feOffset>
            <feGaussianBlur stdDeviation="2" in="shadowOffsetOuter2" result="shadowBlurOuter2"></feGaussianBlur>
            <feColorMatrix values="0 0 0 0 0   0 0 0 0 0   0 0 0 0 0  0 0 0 0.5 0" type="matrix" in="shadowBlurOuter2" result="shadowMatrixOuter2"></feColorMatrix>
            <feMerge>
                <feMergeNode in="shadowMatrixOuter1"></feMergeNode>
                <feMergeNode in="shadowMatrixOuter2"></feMergeNode>
            </feMerge>
        </filter>
    </defs>
    <g id="v5" stroke="none" stroke-width="1" fill="none" fill-rule="evenodd">
        <g transform="translate(-730.000000, -362.000000)" id="Group-45">
            <g transform="translate(120.000000, 110.500000)">
                <g id="shield" filter="url(#filter-1)" transform="translate(640.000000, 260.000000)">
                    <g id="Rectangle-2" transform="translate(0.000000, 82.098938)">
                        <mask id="mask-4" fill="white">
                            <use xlink:href="#path-3"></use>
                        </mask>
                        <use id="Rectangle" fill="url(#linearGradient-2)" xlink:href="#path-3"></use>
                        <path d="M379.990298,175.224619 L336.891061,-28.0778445 C361.229054,-1.48175676 378.180883,26.2705102 387.746546,55.1789565 C394.29998,74.9841287 403.894898,103.001484 400.586377,137.655696 C399.572556,148.274699 394.352569,168.00537 384.926417,196.847707 L379.990298,200 L379.990298,175.224619 Z" id="Rectangle" fill="url(#linearGradient-5)" mask="url(#mask-4)"></path>
                        <g id="Path-2" mask="url(#mask-4)">
                            <use fill="black" fill-opacity="1" filter="url(#filter-8)" xlink:href="#path-7"></use>
                            <use stroke="url(#linearGradient-6)" stroke-width="1.5" xlink:href="#path-7"></use>
                        </g>
                    </g>
                    <g id="Rectangle-3">
                        <mask id="mask-10" fill="white">
                            <use xlink:href="#path-9"></use>
                        </mask>
                        <use id="Rectangle" fill="#364538" xlink:href="#path-9"></use>
                        <path d="M336.891061,66.4972204 C360.826424,86.8652828 378.591293,114.3875 390.185669,149.063873 C401.780045,183.740246 398.381588,220.594043 379.990298,259.625263 L366.90071,237.712253 L336.891061,66.4972204 Z" id="Rectangle" fill="url(#linearGradient-11)" mask="url(#mask-10)"></path>
                        <polygon id="Rectangle" fill="url(#linearGradient-12)" mask="url(#mask-10)" points="8.43769499e-13 133.46426 15.0082895 123.802998 372.994227 241.545329 379.990298 257.323557 -5.35178831 286.552777"></polygon>
                    </g>
                    <path d="M379.871746,187.608154 C379.691594,189.136319 379.525965,194.449944 379.529814,199.189209 C379.537863,208.844911 380.28316,219.178458 381.62951,228.72023 C383.638946,242.961393 387.24897,256.538176 392.38847,270.506836 C392.531498,270.895572 392.962578,271.094758 393.351314,270.95173 C393.74005,270.808702 393.939236,270.377622 393.796208,269.988886 C388.693097,256.119127 385.109251,242.645639 383.114797,228.510656 C381.118079,214.359627 380.100872,209.581834 380.100872,194.345703 C380.100872,179.109572 380.051898,186.07999 379.871746,187.608154 Z" id="Path-2" fill="url(#linearGradient-13)" fill-rule="nonzero" transform="translate(386.686178, 227.844040) scale(-1, 1) translate(-386.686178, -227.844040) "></path>
                    <path d="M15.0082895,123.802998 L113.956238,21.9770025 L276.323281,0 C306.839297,30.7640626 327.028556,52.9298027 336.891061,66.4972204 C343.386275,75.432403 370.424354,107.562648 376.51787,163.061242 C379.820328,193.139403 378.64578,219.300765 372.994227,241.545329 C275.927915,245.967727 206.095605,237.602926 163.497297,216.450924 C120.898988,195.298923 71.4026526,164.416281 15.0082895,123.802998 Z" id="Rectangle" fill="url(#linearGradient-14)"></path>
                    <g id="Rectangle-4" transform="translate(38.008289, 11.000000)">
                        <mask id="mask-16" fill="white">
                            <use xlink:href="#path-15"></use>
                        </mask>
                        <g id="Rectangle"></g>
                        <g id="Group-5" opacity="0.699999988" mask="url(#mask-16)" fill="url(#linearGradient-17)">
                            <g transform="translate(16.987318, -7.470951)" id="Rectangle" opacity="0.200000003">
                                <polygon points="219.666283 178.569889 235.199322 172 247.093006 181.730553 247.093006 195.751047 231.308088 202.543421 219 194.269922"></polygon>
                                <polygon points="223.666283 132.569889 239.199322 126 251.093006 135.730553 251.093006 149.751047 235.308088 156.543421 223 148.269922"></polygon>
                                <polygon points="136.666283 172.569889 152.199322 166 164.093006 175.730553 164.093006 189.751047 148.308088 196.543421 136 188.269922"></polygon>
                                <polygon points="279.666283 137.569889 295.199322 131 307.093006 140.730553 307.093006 154.751047 291.308088 161.543421 279 153.269922"></polygon>
                                <polygon points="263.666283 158.569889 279.199322 152 291.093006 161.730553 291.093006 175.751047 275.308088 182.543421 263 174.269922"></polygon>
                                <polygon points="229.666283 40.5698892 245.199322 34 257.093006 43.7305526 257.093006 57.7510467 241.308088 64.5434215 229 56.2699225"></polygon>
                                <polygon points="67.6662834 144.569889 83.1993224 138 95.0930056 147.730553 95.0930056 161.751047 79.3080885 168.543421 67 160.269922"></polygon>
                                <polygon points="259.666283 204.569889 275.199322 198 287.093006 207.730553 287.093006 221.751047 271.308088 228.543421 259 220.269922"></polygon>
                                <polygon points="243.666283 64.5698892 259.199322 58 271.093006 67.7305526 271.093006 81.7510467 255.308088 88.5434215 243 80.2699225"></polygon>
                                <polygon points="162.666283 12.5698892 178.199322 6 190.093006 15.7305526 190.093006 29.7510467 174.308088 36.5434215 162 28.2699225"></polygon>
                                <polygon points="62.6662834 26.5698892 78.1993224 20 90.0930056 29.7305526 90.0930056 43.7510467 74.3080885 50.5434215 62 42.2699225"></polygon>
                                <polygon points="30.6662834 70.5698892 46.1993224 64 58.0930056 73.7305526 58.0930056 87.7510467 42.3080885 94.5434215 30 86.2699225"></polygon>
                                <polygon points="71.6662834 97.5698892 87.1993224 91 99.0930056 100.730553 99.0930056 114.751047 83.3080885 121.543421 71 113.269922"></polygon>
                                <polygon points="0.666283439 114.569889 16.1993224 108 28.0930056 117.730553 28.0930056 131.751047 12.3080885 138.543421 -1.21147536e-12 130.269922"></polygon>
                                <polygon points="79.6662834 168.569889 95.1993224 162 107.093006 171.730553 107.093006 185.751047 91.3080885 192.543421 79 184.269922"></polygon>
                                <polygon points="105.666283 6.5698892 121.199322 1.08180132e-12 133.093006 9.73055258 133.093006 23.7510467 117.308088 30.5434215 105 22.2699225"></polygon>
                            </g>
                        </g>
                        <g id="Group" mask="url(#mask-16)" fill="url(#linearGradient-18)" fill-rule="nonzero" opacity="0.699999988" stroke="url(#linearGradient-18)" stroke-width="0.5">
                            <g transform="translate(-9.651001, -31.850590)" id="Combined-Shape">
                                <path d="M298.471794,253.891155 L295.269618,268.129184 L276.816528,273.17085 L267.691689,260.479923 L251.418147,265.017457 L241.753835,254.237084 L224.498366,258.757884 L213.296054,247.780966 L196.996169,252.352366 L186.470011,241.332617 L169.974037,245.835276 L159.257518,234.61624 L142.857215,239.238074 L131.540198,227.433585 L134.730379,213.156006 L124.26861,201.583154 L107.464123,206.31069 L97.1906076,195.197302 L80.7507498,199.548538 L69.62653,187.686536 L53.6799061,191.907225 L42.3137002,179.787187 L45.5370527,165.143557 L34.4712893,153.121218 L37.8987319,139.014177 L26.7660224,127.54344 L30.2564804,113.303138 L19.1158856,101.824275 L22.801568,86.787501 L38.976052,81.6837043 L50.9289447,92.764871 L65.8234671,88.4009524 L65.6492904,88.2000137 L68.6382635,74.7931079 L84.0855742,70.4400961 L86.7280179,55.5088917 L104.561915,51.5050045 L107.463658,35.8103324 L123.937408,31.0541863 L135.131559,43.0535798 L151.176052,38.602282 L162.444122,50.3267565 L178.06348,45.9934058 L181.075644,31.8543604 L197.308839,27.6803248 L208.878102,38.5265029 L224.302774,34.1512038 L235.637866,45.8666905 L251.968989,41.4423346 L263.786404,53.3284263 L260.076,68.539 L260.069673,68.5407996 L271.182248,78.9588339 L286.157409,74.8764182 L296.912164,85.5456629 L296.914949,85.5333406 L313.034201,81.0709149 L324.762664,92.6555549 L321.525807,106.620364 L333.441215,120.1885 L330.226158,134.828524 L341.318362,145.812654 L338.098171,160.572087 L348.245425,170.010445 L344.747,185.100534 L329.186761,189.263489 L325.823978,203.768497 L336.867082,214.587787 L333.630106,229.424157 L317.908302,234.877261 L314.430606,249.078515 L298.471794,253.891155 Z M297.483187,253.729434 L287.087241,242.622695 L275.191581,245.493701 L270.965708,246.549464 L268.397636,259.628827 L277.111376,272.046387 L294.424168,267.330931 L297.483187,253.729434 Z M287.727061,241.794536 L298.245927,252.914787 L313.595138,248.285983 L316.824579,235.098485 L305.720493,223.604936 L290.880755,227.806606 L287.727061,241.794536 Z M248.499576,112.996155 L258.933201,123.779923 L269.234735,120.921921 L275.149097,119.243246 L277.786572,105.5472 L269.130202,96.6003301 L267.008099,94.4234853 L256.446149,97.3537359 L251.689791,98.7341465 L251.170948,100.964135 L248.499576,112.996155 Z M259.69285,124.669696 L256.518516,138.96709 L266.898441,149.386341 L282.002856,145.235559 L282.810629,145.006901 L282.815732,145.012175 L282.90212,144.988436 L285.914006,131.575619 L275.049473,120.346483 L269.504929,121.884731 L259.69285,124.669696 Z M267.789889,93.7768985 L269.84757,95.9036331 L278.2446,104.517276 L279.909839,104.070122 L293.581115,100.284117 L294.07413,98.1027374 L296.413541,86.4596071 L285.863172,75.9931237 L270.971642,80.0527407 L267.789889,93.7768985 Z M276.127939,119.910238 L286.580958,130.781403 L296.920899,128.023193 L302.255728,126.482971 L304.719937,115.877464 L305.333691,113.042669 L293.910543,101.346049 L280.172954,105.034895 L278.974211,105.366864 L276.127939,119.910238 Z M251.38321,97.720599 L256.17311,96.3917149 L266.817261,93.3025236 L270.095399,79.3106453 L259.032169,68.9388724 L243.927125,73.1373173 L240.809408,86.8697409 L251.38321,97.720599 Z M250.195816,100.74245 L250.686655,98.5316806 L239.844562,87.3257371 L228.664421,90.4274955 L224.506215,91.608691 L221.532151,105.978959 L232.062717,116.463775 L247.502811,112.316984 L250.195816,100.74245 Z M247.469511,113.435641 L232.19606,117.673025 L229.487764,131.660866 L239.880425,142.608596 L255.411986,138.310518 L258.376115,124.704798 L247.469511,113.435641 Z M282.509249,146.133471 L282.271536,146.198796 L267.324389,150.429907 L264.151564,164.118463 L271.521732,171.841546 L274.587242,175.009931 L289.857456,170.67372 L292.849492,157.394006 L292.93138,157.020141 L286.388309,150.141996 L282.509249,146.133471 Z M320.643817,105.996857 L323.662286,92.9742398 L312.743228,82.1890796 L297.758435,86.3374437 L295.052173,98.3114873 L294.604989,100.5371 L305.92885,112.214537 L320.643817,105.996857 Z M320.654382,107.143537 L306.390653,113.105474 L305.695697,116.09644 L303.323069,127.055095 L313.932832,138.161257 L314.390749,138.054303 L329.374036,134.046635 L332.355964,120.468189 L320.654382,107.143537 Z M236.209512,158.357837 L221.06432,162.68466 L217.720132,177.077435 L228.133158,187.510658 L243.737471,183.19699 L246.872614,168.954093 L236.209512,158.357837 Z M263.243035,163.386559 L266.268943,150.306037 L255.396793,139.567209 L240.412,143.715573 L237.199069,157.931404 L247.202765,167.872387 L263.243035,163.386559 Z M270.050543,245.727245 L266.083595,241.702193 L259.694573,235.317511 L249.708334,237.886424 L244.505787,239.279654 L243.599155,246.200961 L242.843304,253.951652 L242.841404,253.95215 L251.748026,263.887332 L267.129861,259.598431 L270.050543,245.727245 Z M266.779393,240.983785 L271.151324,245.352746 L271.139567,245.408582 L271.176451,245.446012 L286.710413,241.606442 L289.798212,227.876975 L278.884385,216.55699 L263.151021,221.571003 L261.72246,228.846758 L260.679577,234.793562 L266.779393,240.983785 Z M249.454419,236.919185 L259.654723,234.187568 L260.739243,228.664039 L262.075808,221.042583 L251.840726,210.038659 L236.879617,214.129367 L233.698262,228.198366 L243.934155,238.339247 L249.454419,236.919185 Z M242.60548,246.087459 L243.282595,239.144155 L232.823602,228.779091 L217.149658,233.028336 L214.070785,247.140051 L224.793331,257.646855 L241.670501,253.225167 L242.60548,246.087459 Z M180.086291,49.3457493 L177.898261,47.077015 L162.716127,51.2890645 L161.612198,55.8278707 L159.622447,65.2278026 L170.164658,76.1556413 L185.960684,72.4383443 L188.86149,58.4670027 L180.086291,49.3457493 Z M189.45337,57.6177952 L204.880233,53.1405449 L205.096011,52.209809 L208.054265,39.1248873 L197.025737,28.7856477 L181.924622,32.6685917 L178.934152,46.7058068 L180.80651,48.6520027 L189.45337,57.6177952 Z M160.636982,55.6061114 L161.628633,50.9213755 L150.868475,39.725386 L135.869932,43.8865011 L133.062171,55.1924198 L132.387503,58.2574255 L143.071634,69.4548085 L158.319492,65.1344775 L160.636982,55.6061114 Z M127.574532,130.145422 L112.416903,134.60609 L109.029259,148.439614 L119.771228,159.999589 L135.135463,155.151464 L138.695838,141.30803 L127.574532,130.145422 Z M239.886035,86.2002783 L242.855635,73.0569924 L238.667204,68.4751786 L232.108822,61.5829057 L232.134576,61.4474487 L216.946933,65.8740324 L215.197946,74.5471344 L214.165897,80.0374396 L224.076991,90.6624358 L228.394124,89.4647137 L239.886035,86.2002783 Z M206.070792,52.4329916 L205.793703,53.6586078 L215.213764,63.3947973 L216.623249,64.8343069 L232.287399,60.2978996 L234.877517,46.5189642 L224.0001,35.2765112 L209.066203,39.5125989 L206.070792,52.4329916 Z M317.925719,178.261889 L325.550259,185.546229 L328.583354,188.389754 L343.908457,184.289706 L347.14054,170.348456 L336.963436,160.882333 L326.046014,163.16073 L321.267726,164.407959 L319.013421,173.634146 L317.925719,178.261889 Z M328.130006,189.393893 L324.862878,186.272541 L317.142164,179.034375 L302.063007,183.083533 L300.763632,188.528372 L299.028891,196.842243 L309.464656,207.784802 L324.905243,203.303569 L328.130006,189.393893 Z M318.040955,173.401061 L320.280834,163.871261 L313.201778,156.004172 L310.497604,153.069555 L293.822904,157.623631 L290.937148,170.798823 L301.545112,181.903101 L316.930176,177.947145 L318.040955,173.401061 Z M325.817448,162.186886 L336.762738,159.329948 L337.247316,159.780673 L340.224186,146.136479 L329.528952,135.545452 L314.63373,139.024466 L314.05443,139.179414 L312.205123,146.928669 L311.068901,152.138864 L313.941177,155.330879 L321.15536,163.159835 L325.817448,162.186886 Z M299.787632,188.310136 L300.925587,182.856405 L290.289919,171.608697 L275.114828,175.989906 L273.508839,183.350804 L272.14917,189.994765 L281.806018,200.616788 L297.912388,196.168073 L299.787632,188.310136 Z M95.5612009,80.8166131 L96.0713342,80.7195357 L111.935863,77.5283819 L113.96654,67.786107 L114.995471,62.2209221 L104.867345,52.497319 L87.5990206,56.2982668 L85.1483615,70.196645 L92.0991991,77.3032675 L95.5612009,80.8166131 Z M98.6363899,81.2493558 L96.3284397,81.7261177 L93.5482352,96.7634259 L104.330725,106.810243 L119.709736,102.380421 L122.79007,88.8772418 L111.983201,78.7094815 L98.6363899,81.2493558 Z M105.541113,51.7091864 L116.041347,61.7911879 L131.494178,57.329792 L131.499558,57.3355595 L132.088427,54.9643808 L134.529582,43.8742612 L123.624969,32.1852336 L108.33466,36.5997075 L105.541113,51.7091864 Z M114.917278,68.1442196 L113.09199,78.0166655 L123.874977,88.0639463 L139.030441,83.7154064 L142.333557,70.4148552 L131.257461,58.5420085 L116.021984,62.9109032 L114.917278,68.1442196 Z M94.3535348,81.0157755 L84.7669635,71.2870288 L69.4843429,75.5936314 L66.734978,87.9257855 L77.0863936,99.8676803 L92.3272428,96.0697452 L95.0459748,81.7206359 L94.3535348,81.0157755 Z M293.922293,156.489422 L309.952037,152.061871 L311.230168,146.70605 L312.975561,138.702476 L302.390258,127.599192 L297.188488,128.98678 L287.030242,131.919573 L283.750822,145.918565 L287.109898,149.449661 L293.922293,156.489422 Z M270.800663,172.534418 L263.233736,164.713551 L247.893149,168.969561 L244.751324,183.242814 L255.136768,194.010375 L271.107508,189.665846 L272.530442,183.143968 L274.012821,175.900387 L270.800663,172.534418 Z M214.497159,64.0922829 L204.910897,54.3018141 L189.995574,58.5326333 L186.924098,73.0253116 L188.538586,74.8009754 L197.063535,84.0632757 L202.098138,82.6687709 L213.214036,79.3264487 L214.216376,74.355917 L215.877517,65.5189642 L214.497159,64.0922829 Z M197.641868,85.0529058 L194.659412,98.7778254 L205.099167,109.643591 L220.260157,105.502114 L223.237622,91.415831 L213.259848,80.6148067 L202.375611,83.6295667 L197.641868,85.0529058 Z M185.956697,73.4724103 L170.377754,77.4082568 L167.407665,91.3246166 L178.200466,102.535935 L193.437626,98.2838784 L196.425365,84.9615774 L187.800742,75.4759527 L185.956697,73.4724103 Z M239.398536,67.7930838 L243.582616,72.1901783 L259.242459,67.7364078 L262.682056,53.6359892 L251.669566,42.5595007 L235.932943,46.8227973 L233.229144,61.0442545 L239.398536,67.7930838 Z M50.2458261,98.1057552 L47.8297259,108.191317 L58.2867413,118.824344 L73.0868602,114.831871 L76.1211375,100.572665 L66.1811118,89.3382042 L51.4858638,93.6437377 L50.2458261,98.1057552 Z M49.21183,98.1295563 L50.3144191,93.5270027 L38.6953282,82.8208891 L23.6389083,87.571885 L20.2188668,101.524903 L30.7772984,112.403925 L41.7950084,108.927329 L46.6125196,107.339576 L49.21183,98.1295563 Z M31.2535933,113.435685 L27.8690036,127.244067 L38.5411283,138.240235 L53.8863151,133.706995 L57.1025018,119.38998 L46.345465,108.540053 L42.6426007,109.708478 L31.2535933,113.435685 Z M279.785267,215.945434 L290.399527,226.890897 L305.733749,222.392136 L308.820564,208.713598 L297.87509,197.238009 L282.169836,201.623002 L280.723279,210.191226 L279.785267,215.945434 Z M279.736762,210.027544 L281.130984,201.474724 L271.473895,190.827675 L255.687463,195.167565 L252.883176,209.16883 L263.228051,220.47329 L278.845049,215.309326 L279.736762,210.027544 Z M306.697314,222.84137 L317.297036,234.030834 L332.772621,228.663131 L335.772164,214.915016 L325.156678,204.514677 L309.983041,208.700201 L306.697314,222.84137 Z M161.97332,220.143893 L151.007055,209.027883 L135.726776,213.282489 L132.633026,227.128493 L143.163688,238.112755 L158.961207,233.660794 L159.864062,229.738846 L161.97332,220.143893 Z M163.072896,219.834582 L163.15182,219.914584 L160.839681,229.958372 L159.970026,233.914408 L170.285564,244.713661 L185.967933,240.433078 L189.035682,226.477981 L186.305206,223.618706 L178.45582,215.785729 L163.072896,219.834582 Z M216.090443,233.059268 L210.507977,227.397506 L205.473523,222.303985 L190.383504,226.275743 L190.41171,226.30389 L187.266669,240.71888 L197.304428,251.22733 L213.068453,246.806215 L216.090443,233.059268 Z M211.219624,226.694969 L216.585959,232.124266 L232.627281,227.745706 L235.617939,214.038319 L224.529578,203.057996 L209.387354,207.399075 L206.501446,221.909774 L211.219624,226.694969 Z M187.020097,222.919367 L189.551095,225.445074 L205.428294,221.194867 L208.035317,207.443528 L197.59107,196.482048 L182.588162,200.686322 L179.493214,215.037432 L187.020097,222.919367 Z M236.330188,213.03844 L251.762509,208.675672 L254.344907,195.085914 L243.896349,184.190576 L228.682968,188.396175 L225.561568,202.231712 L236.330188,213.03844 Z M208.687053,206.314431 L224.36382,201.752209 L227.447561,188.239316 L216.861645,177.632868 L201.827808,181.610864 L198.544779,195.702753 L208.687053,206.314431 Z M220.748677,161.734826 L236.082867,157.354009 L239.170613,143.624778 L228.238771,132.286108 L212.904338,136.54041 L209.952695,150.452737 L220.748677,161.734826 Z M201.224911,180.488474 L216.870665,176.314922 L220.016103,162.777527 L208.968043,151.194384 L193.653537,155.615844 L190.705873,169.54865 L201.224911,180.488474 Z M162.341119,218.797653 L178.310712,214.535384 L181.406033,200.509604 L170.189691,189.655908 L154.752078,193.9809 L151.682885,207.884462 L162.341119,218.797653 Z M182.164851,199.542977 L197.366253,195.202227 L200.569179,181.600031 L189.43999,170.048198 L174.525856,174.666148 L171.334068,189.035259 L182.164851,199.542977 Z M212.677043,135.305339 L228.248052,131.013413 L231.022372,117.205762 L220.472421,106.739694 L205.477791,110.841642 L202.526914,124.616358 L212.677043,135.305339 Z M135.206891,212.191921 L150.389808,207.898957 L153.477532,193.800694 L143.11488,182.564734 L128.061302,186.781015 L125.080224,200.989761 L135.206891,212.191921 Z M193.414439,154.307655 L208.869621,149.963635 L211.75332,136.197747 L201.589587,125.460587 L186.006001,129.538655 L183.270207,143.424451 L193.414439,154.307655 Z M154.222819,192.817692 L170.186028,188.346953 L173.328927,174.387194 L162.312405,163.451985 L147.484503,167.692027 L144.01439,181.815669 L154.222819,192.817692 Z M174.116515,173.51885 L189.556894,168.757106 L192.481344,155.124343 L182.184831,144.165773 L166.451917,148.417002 L163.31333,162.675544 L174.116515,173.51885 Z M185.582475,128.428549 L201.238638,124.288849 L204.322967,110.574809 L193.582936,99.5079978 L178.307555,103.818892 L175.185579,117.943026 L185.582475,128.428549 Z M166.150721,147.259297 L182.074603,142.92853 L184.863588,129.500449 L174.124033,118.693805 L158.804013,122.760105 L155.907915,136.522743 L166.150721,147.259297 Z M127.504012,185.65534 L142.876503,181.297484 L146.315965,167.197621 L135.323091,156.140862 L120.265755,160.892147 L116.846897,174.840333 L127.504012,185.65534 Z M107.782767,205.182228 L123.907465,200.645934 L126.783467,186.752366 L116.088245,175.775652 L101.119657,179.975585 L97.8821146,194.472185 L107.782767,205.182228 Z M147.190495,166.349466 L162.127804,162.192151 L165.227161,148.078983 L154.92183,137.399021 L139.625102,141.709599 L136.171671,155.137213 L147.190495,166.349466 Z M100.57606,178.847168 L115.562712,174.527594 L119.085069,160.730227 L108.239837,149.059125 L93.2365403,153.651309 L89.9932247,167.862334 L100.57606,178.847168 Z M81.0718839,198.429108 L96.6339379,194.310205 L99.9196721,179.815191 L89.1649075,168.824723 L73.8693709,173.077378 L70.4830883,187.13804 L81.0718839,198.429108 Z M158.280696,121.619513 L174.11037,117.312763 L177.219266,103.323468 L166.446101,92.0462591 L151.121265,96.4707014 L147.98124,110.28051 L158.280696,121.619513 Z M35.5693024,152.837544 L46.0361648,164.209209 L61.4587258,159.674403 L64.7258547,145.97409 L53.9845567,134.810885 L38.8215495,139.451591 L35.5693024,152.837544 Z M139.282618,140.480147 L154.73976,136.180155 L157.586474,122.595625 L146.892288,110.897028 L131.607614,115.351892 L128.466149,129.623509 L139.282618,140.480147 Z M150.897163,95.2076915 L166.289057,90.8369269 L169.294906,77.1134395 L158.85044,66.3203851 L143.592864,70.6393702 L140.22465,84.0169666 L150.897163,95.2076915 Z M73.6380622,171.798584 L88.8175128,167.65488 L91.9993267,153.546521 L81.1316002,141.851211 L65.8032723,146.183239 L62.7456551,159.96349 L73.6380622,171.798584 Z M54.0010403,190.787795 L69.5623691,186.669084 L72.7430205,172.565879 L61.875294,160.870569 L46.5480648,165.202287 L43.4036042,179.487513 L54.0010403,190.787795 Z M131.407948,114.10323 L146.845305,109.638676 L149.929765,95.9752342 L139.346629,84.8496851 L124.022951,89.2737932 L120.880642,103.070028 L131.407948,114.10323 Z M65.584871,145.053371 L81.022228,140.588817 L84.1058544,126.929067 L73.5284878,115.939627 L58.1986413,120.229348 L55.0575654,134.020169 L65.584871,145.053371 Z M92.6961602,152.423196 L108.166675,147.757811 L111.396116,134.570314 L100.289815,123.074471 L85.2103414,127.267516 L82.2828197,141.297873 L92.6961602,152.423196 Z M84.7433478,126.132581 L100.183935,121.651347 L103.419824,107.693681 L92.3294385,97.2964503 L77.2311395,101.17867 L74.3075834,115.190022 L84.7433478,126.132581 Z M112.240704,133.61554 L127.41277,129.150624 L130.492193,114.865598 L119.809131,103.695703 L104.50954,108.154915 L101.366396,122.434159 L112.240704,133.61554 Z" transform="translate(183.680655, 150.425588) rotate(-10.000000) translate(-183.680655, -150.425588) "></path>
                            </g>
                        </g>
                    </g>
                    <g id="Rectangle" fill-rule="nonzero">
                        <use fill="black" fill-opacity="1" filter="url(#filter-21)" xlink:href="#path-20"></use>
                        <use fill="url(#linearGradient-19)" xlink:href="#path-20"></use>
                    </g>
                    <g id="Combined-Shape">
                        <use fill="black" fill-opacity="1" filter="url(#filter-24)" xlink:href="#path-23"></use>
                        <use fill="url(#linearGradient-22)" fill-rule="evenodd" xlink:href="#path-23"></use>
                    </g>
                    <g id="Group-2-Copy" transform="translate(138.000000, 43.000000)">
                        <mask id="mask-27" fill="white">
                            <use xlink:href="#path-26"></use>
                        </mask>
                        <g id="Oval">
                            <use fill="black" fill-opacity="1" filter="url(#filter-28)" xlink:href="#path-26"></use>
                            <ellipse stroke="#000000" stroke-width="4" stroke-linejoin="square" fill="url(#linearGradient-25)" fill-rule="evenodd" cx="79.1886805" cy="58.2640481" rx="77.1886805" ry="56.2640481"></ellipse>
                        </g>
                        <g id="Group-3" mask="url(#mask-27)">
                            <g transform="translate(-0.000000, -4.000000)">
                                <path d="M79.0886805,118.673269 C122.547239,118.673269 157.777361,92.1968959 157.777361,59.5366345 C157.777361,26.8763731 122.547239,0.4 79.0886805,0.4 C35.6301223,0.4 0.4,26.8763731 0.4,59.5366345 C0.4,92.1968959 35.6301223,118.673269 79.0886805,118.673269 Z M79.0886805,117.160478 C36.3788426,117.160478 1.9,91.2487119 1.9,59.5366345 C1.9,27.8245571 36.3788426,1.91279064 79.0886805,1.91279064 C121.798518,1.91279064 156.277361,27.8245571 156.277361,59.5366345 C156.277361,91.2487119 121.798518,117.160478 79.0886805,117.160478 Z" id="Oval" stroke="none" fill="url(#linearGradient-29)" fill-rule="nonzero"></path>
                                <mask id="mask-32" fill="white">
                                    <use xlink:href="#path-31"></use>
                                </mask>
                                <use id="Oval" stroke="none" fill="url(#linearGradient-30)" fill-rule="evenodd" xlink:href="#path-31"></use>
                                <g id="Group-23" stroke="none" stroke-width="1" fill="none" fill-rule="evenodd" mask="url(#mask-32)" opacity="0.5">
                                    <g transform="translate(74.431081, 59.141140) rotate(6.000000) translate(-74.431081, -59.141140) translate(-11.568919, -8.358860)" fill="#000000" fill-rule="nonzero">
                                        <path d="M12.5689186,54.2543544 L21.4565662,46.7967326 L23.384929,49.0948659 L14.4972814,56.5524877 L12.5689186,54.2543544 Z M26.9874071,42.155806 L40.2208249,31.0516501 L42.1491877,33.3497834 L28.9157699,44.4539393 L26.9874071,42.155806 Z M-4.38760139e-13,73.3800661 L13.2334178,62.2759101 L15.1617806,64.5740434 L1.92836283,75.6781994 L-4.38760139e-13,73.3800661 Z M47.3603591,25.0608695 L49.6906663,23.1055096 L51.6190291,25.403643 L49.2887219,27.3590029 L47.3603591,25.0608695 Z M56.2786485,17.5775362 L59.1612737,15.1587264 L61.0896365,17.4568597 L58.2070113,19.8756695 L56.2786485,17.5775362 Z M54.4980263,27.6507923 L63.3856739,20.1931705 L65.3140367,22.4913038 L56.4263891,29.9489257 L54.4980263,27.6507923 Z M35.7337676,43.3958748 L48.9664193,32.2923617 L50.8947822,34.590495 L37.6621304,45.6940082 L35.7337676,43.3958748 Z M27.1057014,34.2241016 L29.9883266,31.8052918 L31.9166894,34.1034252 L29.0340642,36.5222349 L27.1057014,34.2241016 Z M32.5400649,29.6641292 L35.4226902,27.2453194 L37.351053,29.5434527 L34.4684277,31.9622625 L32.5400649,29.6641292 Z M26.2639262,51.3420153 L31.2118073,47.1902501 L33.1401701,49.4883834 L28.192289,53.6401486 L26.2639262,51.3420153 Z M16.7933188,59.2887985 L19.675944,56.8699887 L21.6043068,59.168122 L18.7216816,61.5869318 L16.7933188,59.2887985 Z M21.0190045,64.3247747 L29.9066521,56.8671528 L31.835015,59.1652861 L22.9473673,66.622908 L21.0190045,64.3247747 Z M9.32926561,74.1336303 L18.2169132,66.6760084 L20.1452761,68.9741417 L11.2576284,76.4317636 L9.32926561,74.1336303 Z M35.437493,52.2262263 L48.6709108,41.1220703 L50.5992736,43.4202036 L37.3658558,54.5243596 L35.437493,52.2262263 Z M55.810445,35.1312898 L58.1407522,33.1759299 L60.069115,35.4740632 L57.7388078,37.4294231 L55.810445,35.1312898 Z M64.7287344,27.6479564 L67.6113596,25.2291467 L69.5397225,27.52728 L66.6570972,29.9460898 L64.7287344,27.6479564 Z M66.121932,18.1667282 L69.0045573,15.7479184 L70.9329201,18.0460517 L68.0502949,20.4648615 L66.121932,18.1667282 Z M70.3476178,23.2027043 L79.2352654,15.7450825 L81.1636282,18.0432158 L72.2759806,25.5008377 L70.3476178,23.2027043 Z M83.1935623,12.423677 L97.9995241,4.01456646e-13 L99.9278869,2.29813333 L85.1219252,14.7218103 L83.1935623,12.423677 Z" id="Combined-Shape"></path>
                                        <path d="M15.214623,85.4478736 L24.1022706,77.9902518 L26.0306335,80.2883851 L17.1429858,87.746007 L15.214623,85.4478736 Z M29.6331115,73.3493252 L32.5157367,70.9305155 L34.4440996,73.2286488 L31.5614743,75.6474586 L29.6331115,73.3493252 Z M31.3902768,63.7224628 L43.3931624,53.650846 L45.3215252,55.9489793 L33.3186396,66.0205962 L31.3902768,63.7224628 Z M8.01708984,99.3810426 L29.7590557,81.1373671 L31.6874185,83.4355004 L9.94545267,101.679176 L8.01708984,99.3810426 Z M55.3774489,51.0618461 L57.7077561,49.1064862 L59.6361189,51.4046195 L57.3058117,53.3599794 L55.3774489,51.0618461 Z M64.2957383,43.5785128 L67.1783636,41.159703 L69.1067264,43.4578363 L66.2241011,45.8766461 L64.2957383,43.5785128 Z M62.5151161,53.6517689 L71.4027637,46.1941471 L73.3311266,48.4922804 L64.4434789,55.9499022 L62.5151161,53.6517689 Z M43.7508575,69.3968514 L56.9835092,58.2933382 L58.911872,60.5914716 L45.6792203,71.6949847 L43.7508575,69.3968514 Z M131.415731,44.6276501 L136.288176,40.5391835 L138.216539,42.8373169 L133.344094,46.9257835 L131.415731,44.6276501 Z M15.5979801,76.9737731 L18.4806054,74.5549634 L20.4089682,76.8530967 L17.526343,79.2719065 L15.5979801,76.9737731 Z M128.784495,72.2684449 L136.083857,66.143553 L138.012219,68.4416864 L130.712858,74.5665782 L128.784495,72.2684449 Z M35.6159625,68.758439 L42.1976376,63.2357578 L44.1260005,65.5338912 L37.5443254,71.0565723 L35.6159625,68.758439 Z M21.0323437,72.4138007 L28.8385385,65.8636255 L30.7669013,68.1617588 L22.9607065,74.711934 L21.0323437,72.4138007 Z M138.635595,64.0023904 L141.51822,61.5835806 L143.446583,63.8817139 L140.563958,66.3005237 L138.635595,64.0023904 Z M34.2810161,77.3429918 L39.2288971,73.1912267 L41.1572599,75.48936 L36.2093789,79.6411252 L34.2810161,77.3429918 Z M29.0360943,90.3257512 L37.923742,82.8681294 L39.8521048,85.1662627 L30.9644572,92.6238846 L29.0360943,90.3257512 Z M17.3463555,100.134607 L26.2340031,92.676985 L28.1623659,94.9751183 L19.2747183,102.43274 L17.3463555,100.134607 Z M43.4545829,78.2272028 L56.6880006,67.1230469 L58.6163634,69.4211802 L45.3829457,80.5253362 L43.4545829,78.2272028 Z M63.8275348,61.1322664 L66.157842,59.1769064 L68.0862048,61.4750398 L65.7558977,63.4303997 L63.8275348,61.1322664 Z M72.7458242,53.648933 L75.6284495,51.2301232 L77.5568123,53.5282566 L74.6741871,55.9470663 L72.7458242,53.648933 Z M74.1390219,44.1677047 L77.0216471,41.748895 L78.95001,44.0470283 L76.0673847,46.4658381 L74.1390219,44.1677047 Z M78.3647076,49.2036809 L87.2523553,41.7460591 L89.1807181,44.0441924 L80.2930705,51.5018142 L78.3647076,49.2036809 Z" id="Combined-Shape"></path>
                                        <path d="M33.627355,110.610675 L58.3073911,89.9016656 L60.2357539,92.1997989 L35.5557178,112.908808 L33.627355,110.610675 Z M52.4416796,103.402719 L61.3293272,95.9450968 L63.2576901,98.2432301 L54.3700424,105.700852 L52.4416796,103.402719 Z M33.677421,119.147801 L46.9100727,108.044288 L48.8384355,110.342421 L35.6057838,121.445934 L33.677421,119.147801 Z M30.4837183,105.416055 L33.3663435,102.997246 L35.2947063,105.295379 L32.4120811,107.714189 L30.4837183,105.416055 Z M49.4166554,114.522763 L56.0844055,108.927856 L58.0127684,111.225989 L51.3450182,116.820896 L49.4166554,114.522763 Z M62.6723877,103.399883 L65.555013,100.981073 L67.4833758,103.279206 L64.6007506,105.698016 L62.6723877,103.399883 Z M51.4402799,120.445691 L63.8758028,110.011048 L65.8041656,112.309182 L53.3686427,122.743824 L51.4402799,120.445691 Z M64.0655854,93.9186545 L66.9482106,91.4998447 L68.8765735,93.797978 L65.9939482,96.2167878 L64.0655854,93.9186545 Z M68.2912711,98.9546306 L77.1789188,91.4970088 L79.1072816,93.7951421 L70.219634,101.252764 L68.2912711,98.9546306 Z" id="Combined-Shape-Copy-2"></path>
                                        <path d="M91.8221634,78.1676576 L94.7047886,75.7488479 L96.6331514,78.0469812 L93.7505262,80.465791 L91.8221634,78.1676576 Z M97.8271857,73.1288456 L100.709811,70.7100358 L102.638174,73.0081691 L99.7555486,75.4269789 L97.8271857,73.1288456 Z M112.857361,60.5170313 L123.384343,51.6838439 L125.312706,53.9819773 L114.785724,62.8151646 L112.857361,60.5170313 Z M79.2532448,97.2933693 L92.4866625,86.1892133 L94.4150253,88.4873467 L81.1816076,99.5915026 L79.2532448,97.2933693 Z M126.613604,48.9741728 L128.943911,47.0188129 L130.872274,49.3169462 L128.541967,51.2723061 L126.613604,48.9741728 Z M66.9371836,107.213497 L75.4893531,100.037374 L77.417716,102.335508 L68.8655464,109.51163 L66.9371836,107.213497 Z M65.1565614,117.286753 L74.044209,109.829131 L75.9725718,112.127264 L67.0849242,119.584886 L65.1565614,117.286753 Z M114.987012,67.3091781 L117.869638,64.8903683 L119.798,67.1885016 L116.915375,69.6073114 L114.987012,67.3091781 Z M106.358946,58.1374048 L109.241571,55.7185951 L111.169934,58.0167284 L108.287309,60.4355382 L106.358946,58.1374048 Z M111.79331,53.5774324 L114.675935,51.1586226 L116.604298,53.4567559 L113.721673,55.8755657 L111.79331,53.5774324 Z M101.577404,78.5611752 L110.465052,71.1035533 L112.393415,73.4016867 L103.505767,80.8593085 L101.577404,78.5611752 Z M80.1324245,87.9765132 L87.0501888,82.1718197 L88.9785516,84.4699531 L82.0607873,90.2746466 L80.1324245,87.9765132 Z M96.0465635,83.2021017 L98.9291888,80.7832919 L100.857552,83.0814253 L97.9749263,85.5002351 L96.0465635,83.2021017 Z M100.272249,88.2380779 L109.159897,80.780456 L111.08826,83.0785894 L102.200612,90.5362112 L100.272249,88.2380779 Z M88.5825104,98.0469335 L97.470158,90.5893116 L99.3985208,92.887445 L90.5108732,100.345067 L88.5825104,98.0469335 Z M114.690738,76.1395295 L127.924156,65.0353735 L129.852518,67.3335069 L116.619101,78.4376628 L114.690738,76.1395295 Z M135.06369,59.044593 L137.393997,57.0892331 L139.32236,59.3873664 L136.992053,61.3427264 L135.06369,59.044593 Z M140.196088,54.7379994 L143.078713,52.3191896 L145.007076,54.6173229 L142.124451,57.0361327 L140.196088,54.7379994 Z M76.7804671,107.802689 L79.6630924,105.383879 L81.5914552,107.682012 L78.70883,110.100822 L76.7804671,107.802689 Z M65.6662812,125.710346 L87.2967233,107.56025 L89.2250861,109.858383 L67.594644,128.008479 L65.6662812,125.710346 Z" id="Combined-Shape-Copy-4"></path>
                                        <path d="M76.6619362,66.2196864 L85.5495838,58.7620646 L87.4779466,61.0601979 L78.590299,68.5178198 L76.6619362,66.2196864 Z M91.0804247,54.1211381 L104.313842,43.0169821 L106.242205,45.3151154 L93.0087875,56.4192714 L91.0804247,54.1211381 Z M64.0930176,85.3453981 L77.3264353,74.2412421 L79.2547982,76.5393755 L66.0213804,87.6435314 L64.0930176,85.3453981 Z M26.6396484,100.274564 L39.8730662,89.170408 L41.801429,91.4685413 L28.5680113,102.572697 L26.6396484,100.274564 Z M107.115934,40.6657483 L113.783684,35.0708417 L115.712047,37.368975 L109.044297,42.9638817 L107.115934,40.6657483 Z M118.30641,31.2758236 L123.254291,27.1240584 L125.182654,29.4221918 L120.234773,33.5739569 L118.30641,31.2758236 Z M118.591044,39.6161244 L127.478691,32.1585025 L129.407054,34.4566359 L120.519407,41.9142577 L118.591044,39.6161244 Z M99.8267852,55.3612069 L113.059437,44.2576937 L114.9878,46.555827 L101.755148,57.6593402 L99.8267852,55.3612069 Z M75.6878357,59.20461 L84.5754834,51.7469882 L86.5038462,54.0451215 L77.6161986,61.5027433 L75.6878357,59.20461 Z M62.1296203,70.4949417 L71.0172679,63.0373198 L72.9456307,65.3354532 L64.0579831,72.793075 L62.1296203,70.4949417 Z M96.6330825,41.6294612 L99.5157077,39.2106514 L101.444071,41.5087847 L98.5614453,43.9275945 L96.6330825,41.6294612 Z M88.811123,48.1065026 L94.2865884,43.5120416 L96.2149512,45.810175 L90.7394858,50.4046359 L88.811123,48.1065026 Z M90.3569438,63.3073473 L95.3048248,59.1555821 L97.2331877,61.4537155 L92.2853066,65.6054806 L90.3569438,63.3073473 Z M52.9035746,78.2365132 L57.8514557,74.084748 L59.7798185,76.3828813 L54.8319375,80.5346465 L52.9035746,78.2365132 Z M80.8863363,71.2541305 L83.7689616,68.8353207 L85.6973244,71.1334541 L82.8146992,73.5522639 L80.8863363,71.2541305 Z M43.4329672,86.1832964 L46.3155924,83.7644866 L48.2439553,86.0626199 L45.36133,88.4814297 L43.4329672,86.1832964 Z M47.6586529,91.2192726 L56.5463006,83.7616507 L58.4746634,86.059784 L49.5870158,93.5174059 L47.6586529,91.2192726 Z M73.4222832,86.0989623 L91.7265745,70.7398382 L93.6549373,73.0379715 L75.350646,88.3970956 L73.4222832,86.0989623 Z M35.9689141,101.028128 L44.8565617,93.5705063 L46.7849245,95.8686396 L37.8972769,103.326261 L35.9689141,101.028128 Z M99.5305106,64.1915583 L112.763928,53.0874023 L114.692291,55.3855357 L101.458873,66.4896916 L99.5305106,64.1915583 Z M119.903463,47.0966218 L122.23377,45.1412619 L124.162133,47.4393952 L121.831825,49.3947552 L119.903463,47.0966218 Z M128.821752,39.6132885 L131.704377,37.1944787 L133.63274,39.492612 L130.750115,41.9114218 L128.821752,39.6132885 Z M120.064601,97.2586578 L128.952249,89.801036 L130.880611,92.0991693 L121.992964,99.5567911 L120.064601,97.2586578 Z M133.74088,85.7828974 L146.974297,74.6787415 L148.90266,76.9768748 L135.669243,88.0810307 L133.74088,85.7828974 Z M106.161133,116.841248 L119.394551,105.737092 L121.322913,108.035225 L108.089496,119.139381 L106.161133,116.841248 Z M68.7077637,131.770414 L81.9411814,120.666258 L83.8695443,122.964391 L70.6361265,134.068547 L68.7077637,131.770414 Z M152.011029,70.4524222 L154.341336,68.4970622 L156.269699,70.7951956 L153.939392,72.7505555 L152.011029,70.4524222 Z M93.1306244,127.775143 L102.601232,119.828359 L104.529595,122.126493 L95.0589872,130.073276 L93.1306244,127.775143 Z M160.659159,71.111974 L169.546807,63.6543521 L171.47517,65.9524855 L162.587522,73.4101073 L160.659159,71.111974 Z M141.8949,86.8570565 L155.127552,75.7535433 L157.055915,78.0516766 L143.823263,89.1551898 L141.8949,86.8570565 Z M117.755951,90.7004596 L126.643599,83.2428378 L128.571961,85.5409711 L119.684314,92.9985929 L117.755951,90.7004596 Z M104.197736,101.990791 L113.085383,94.5331695 L115.013746,96.8313028 L106.126098,104.288925 L104.197736,101.990791 Z M98.490045,97.8174311 L101.37267,95.3986213 L103.301033,97.6967546 L100.418408,100.115564 L98.490045,97.8174311 Z M90.6680856,104.294472 L96.1435509,99.7000115 L98.0719138,101.998145 L92.5964484,106.592606 L90.6680856,104.294472 Z M128.145727,106.889369 L133.621192,102.294908 L135.549555,104.593041 L130.07409,109.187502 L128.145727,106.889369 Z M136.12316,100.281869 L139.449427,97.4908002 L141.377789,99.7889335 L138.051523,102.580002 L136.12316,100.281869 Z M109.555135,122.488727 L112.881401,119.697659 L114.809764,121.995792 L111.483498,124.786861 L109.555135,122.488727 Z M132.425059,94.8031969 L137.37294,90.6514317 L139.301303,92.9495651 L134.353422,97.1013302 L132.425059,94.8031969 Z M94.9716899,109.732363 L99.9195709,105.580598 L101.847934,107.878731 L96.9000527,112.030496 L94.9716899,109.732363 Z M122.954452,102.74998 L125.837077,100.33117 L127.76544,102.629304 L124.882814,105.048113 L122.954452,102.74998 Z M85.5010824,117.679146 L88.3837077,115.260336 L90.3120705,117.55847 L87.4294453,119.977279 L85.5010824,117.679146 Z M89.7267682,122.715122 L98.6144158,115.2575 L100.542779,117.555634 L91.655131,125.013255 L89.7267682,122.715122 Z M115.490398,117.594812 L124.378046,110.13719 L126.306409,112.435323 L117.418761,119.892945 L115.490398,117.594812 Z M103.301033,111.6578 L106.627299,108.866731 L108.555662,111.164864 L105.229396,113.955933 L103.301033,111.6578 Z M109.043768,106.839073 L112.370034,104.048005 L114.298397,106.346138 L110.97213,109.137207 L109.043768,106.839073 Z M114.591262,101.851334 L117.917528,99.0602657 L119.845891,101.358399 L116.519625,104.149468 L114.591262,101.851334 Z M78.0370293,132.523978 L86.9246769,125.066356 L88.8530397,127.364489 L79.9653921,134.822111 L78.0370293,132.523978 Z M141.598626,95.6874079 L154.832044,84.583252 L156.760406,86.8813853 L143.526989,97.9855412 L141.598626,95.6874079 Z M161.971578,78.5924714 L164.301885,76.6371115 L166.230248,78.9352449 L163.899941,80.8906048 L161.971578,78.5924714 Z M156.580738,74.5341752 L158.911046,72.5788153 L160.839408,74.8769486 L158.509101,76.8323085 L156.580738,74.5341752 Z M157.181827,82.6115493 L159.512135,80.6561894 L161.440497,82.9543227 L159.11019,84.9096826 L157.181827,82.6115493 Z M130.21495,30.1320602 L133.097575,27.7132504 L135.025938,30.0113838 L132.143312,32.4301935 L130.21495,30.1320602 Z" id="Combined-Shape-Copy-3"></path>
                                    </g>
                                </g>
                            </g>
                        </g>
                    </g>
                    <g id="Combined-Shape" fill-rule="nonzero" transform="translate(221.262529, 99.267425) rotate(-2.000000) translate(-221.262529, -99.267425) ">
                        <use fill="black" fill-opacity="1" filter="url(#filter-35)" xlink:href="#path-34"></use>
                        <use fill="url(#linearGradient-33)" xlink:href="#path-34"></use>
                    </g>
                </g>
            </g>
        </g>
    </g>
</svg>