<?xml version="1.0" encoding="UTF-8"?>
<svg width="180px" height="30px" viewBox="0 0 180 30" version="1.1" xmlns="http://www.w3.org/2000/svg" xmlns:xlink="http://www.w3.org/1999/xlink">
    <!-- Generator: Sketch 55.2 (78181) - https://sketchapp.com -->
    <title>v5-footer-icons</title>
    <desc>Created with Sketch.</desc>
    <g id="v5-footer-icons" stroke="none" stroke-width="1" fill="none" fill-rule="evenodd">
        <path d="M0,0 L30,0 L30,30 L0,30 L0,0 Z M21.6586308,13.0342808 C21.1342038,13.0584137 20.6803192,13.2486925 20.2988334,13.6069736 C19.6546699,13.1772219 18.9158312,12.8254382 18.0804608,12.5506941 C17.2450904,12.2768782 16.351244,12.1274398 15.3961372,12.1033068 L16.3985817,7.6312905 L19.547,8.3469245 C19.5424197,8.7175748 19.6912275,9.07363841 19.9581879,9.33080522 C20.2212601,9.60035308 20.5840535,9.74916557 20.9606324,9.7419931 C21.3372112,9.74916557 21.7000046,9.60035308 21.9630769,9.33080522 C22.2368927,9.05606117 22.3742648,8.721913 22.3742648,8.3292889 C22.3742648,7.93480842 22.2368927,7.60066025 21.9630769,7.32684439 C21.6883328,7.05210034 21.3486155,6.9156565 20.9429968,6.9156565 C20.6803192,6.9156565 20.4362054,6.98712709 20.2097272,7.13006825 C19.9823208,7.27300941 19.8096776,7.46421642 19.6908693,7.70276108 L16.2194411,6.9156565 C16.1323285,6.88987033 16.0380861,6.90976596 15.96883,6.9685633 C15.9036395,7.01942084 15.8540993,7.08761901 15.8258888,7.16533944 L14.7167026,12.1033068 C12.8324782,12.1757056 11.2100032,12.6880661 9.85020575,13.6422448 C9.46871992,13.260759 9.01576351,13.069552 8.49133652,13.069552 C7.84624492,13.0463472 7.34502267,13.2728254 6.98766976,13.7499148 C6.63031686,14.2270041 6.5050113,14.7514311 6.61175307,15.3241239 C6.71942304,15.8958885 7.07120681,16.3377067 7.66710437,16.6477219 C7.59563379,16.9103995 7.5603626,17.19721 7.5603626,17.5062971 C7.5603626,18.5087416 7.9000799,19.4211517 8.57951451,20.2444557 C9.25987731,21.0677597 10.1722875,21.7230613 11.3176731,22.2122171 C12.4621306,22.7013729 13.7207554,22.9454867 15.0926192,22.9454867 C16.4635549,22.9454867 17.7221797,22.7013729 18.8675654,22.2122171 C20.012951,21.7230613 20.9253612,21.0677597 21.6047958,20.2444557 C22.2851586,19.4211517 22.6248759,18.5096698 22.6248759,17.5072253 C22.6248759,17.1730771 22.5886765,16.8751283 22.5172059,16.6124507 C23.0898988,16.3265684 23.4296161,15.8968167 23.537286,15.3241239 C23.644956,14.7514311 23.5196504,14.2270041 23.1622975,13.7489866 C22.8040164,13.2728254 22.3027942,13.0342808 21.6586308,13.0342808 Z M10.5296404,16.8268625 L10.5305685,16.8268625 C10.5221157,16.4416288 10.6780583,16.0710122 10.959392,15.8077106 C11.2462025,15.5329665 11.5794225,15.3955945 11.9618365,15.3955945 C12.3324868,15.3910142 12.6885505,15.539822 12.9457173,15.8067824 C13.2152651,16.0698546 13.3640776,16.4326481 13.3569051,16.8092269 C13.36382,17.1854853 13.2150278,17.5478934 12.9457173,17.8107432 C12.6709732,18.0854872 12.3423942,18.2228593 11.9618365,18.2228593 C11.5794225,18.2228593 11.2462025,18.0854872 10.959392,17.8107432 C10.6735097,17.5369273 10.5296404,17.2083483 10.5296404,16.8268625 Z M18.223402,20.1553495 C17.7936503,20.584173 17.1624815,20.8765526 16.3271111,21.0315603 C15.4926689,21.1865679 14.6572984,21.1865679 13.821928,21.0315603 C12.9874858,20.8765526 12.3553888,20.584173 11.9256372,20.1553495 C11.8541666,20.1070837 11.817966,20.0356131 11.817966,19.9400096 C11.8177222,19.8451909 11.85669,19.7544901 11.9256372,19.6893985 C11.9908888,19.6207934 12.0815688,19.5821704 12.1762483,19.5826567 C12.2615783,19.5777582 12.3431343,19.6183597 12.39066,19.6893985 C12.7248082,19.9994137 13.2501634,20.221251 13.9648692,20.3511975 C14.6801743,20.4826911 15.4128806,20.4889723 16.1303349,20.3697613 C16.8580354,20.2500248 17.3880315,20.0235466 17.7221797,19.6893985 C17.7871078,19.6201028 17.8778301,19.5807838 17.9727908,19.5807838 C18.0677516,19.5807838 18.1584739,19.6201028 18.223402,19.6893985 C18.2923491,19.7544901 18.3313169,19.8451909 18.3310719,19.9400096 C18.3361062,20.0258449 18.2950908,20.1078758 18.223402,20.1553495 Z M18.1872026,18.2228593 C17.8066449,18.2228593 17.4780659,18.0854872 17.2033218,17.8116714 C16.929506,17.5369273 16.792134,17.2083483 16.792134,16.8277907 C16.7893779,16.4520522 16.9375084,16.0909214 17.2033218,15.8253462 C17.4780659,15.5385356 17.8066449,15.3955945 18.1872026,15.3955945 C18.562941,15.3928384 18.9240718,15.5409689 19.1896471,15.8067824 C19.4755294,16.0815264 19.6193987,16.4156746 19.6193987,16.8092269 C19.6193987,17.2027792 19.4755294,17.5369273 19.1896471,17.8107432 C18.9037648,18.0854872 18.5696166,18.2228593 18.1872026,18.2228593 Z" id="Reddit" fill="#353B45"></path>
        <path d="M30,0 L60,0 L60,30 L30,30 L30,0 Z M51.699,10.7655 C51.174,10.1425 50.206,9.8875 48.357,9.8875 L41.644,9.8875 C39.753,9.8875 38.768,10.1585 38.246,10.8225 C37.736,11.4695 37.736,12.4225 37.736,13.7425 L37.736,16.2575 C37.736,18.8145 38.341,20.1125 41.644,20.1125 L48.357,20.1125 C49.96,20.1125 50.849,19.8885 51.424,19.3385 C52.014,18.7735 52.264,17.8525 52.264,16.2585 L52.264,13.7425 C52.264,12.3505 52.225,11.3925 51.699,10.7655 Z M47.064,15.3475 L44.016,16.9405 C43.870794,17.0169383 43.6961609,17.0117413 43.5557575,16.9268033 C43.415354,16.8418654 43.3296933,16.689596 43.3299992,16.5255 L43.3299992,13.3495 C43.3302844,13.186051 43.4156433,13.0345396 43.5552929,12.9496065 C43.6949425,12.8646735 43.8687372,12.858571 44.014,12.9335 L47.063,14.5165 C47.2175907,14.5974353 47.3144667,14.7575042 47.3144667,14.932 C47.3144667,15.1064958 47.2175907,15.2665647 47.063,15.3475 L47.064,15.3475 Z" id="Youtube" fill="#353B45"></path>
        <path d="M60,0 L90,0 L90,30 L60,30 L60,0 Z M80.9614387,11.712874 C80.3600734,10.6726831 79.4958695,9.80882406 78.4554387,9.20787397 C77.4078162,8.59391478 76.2136765,8.27464826 74.9994387,8.28387397 C73.7855396,8.27482883 72.591769,8.59408903 71.5444387,9.20787397 C70.5039791,9.80878653 69.6397665,10.6726543 69.0384387,11.712874 C68.4248292,12.760596 68.1059099,13.9547293 68.1154387,15.168874 C68.1154387,16.668874 68.5534387,18.017874 69.4284387,19.215874 C70.3044387,20.413874 71.4354387,21.242874 72.8214387,21.702874 C72.9824387,21.732874 73.1014387,21.712874 73.1804387,21.640874 C73.256845,21.5722513 73.299257,21.4735339 73.2964387,21.370874 L73.2924387,20.887874 C73.2884387,20.582874 73.2874387,20.316874 73.2874387,20.089874 L73.0814387,20.125874 C72.9167962,20.1519663 72.750046,20.1623463 72.5834387,20.156874 C72.3743898,20.1530945 72.1660121,20.1320226 71.9604387,20.093874 C71.7419165,20.0537052 71.5361842,19.9618115 71.3604387,19.825874 C71.1756396,19.686384 71.0378306,19.4938002 70.9654387,19.273874 L70.8754387,19.067874 C70.8001046,18.9047835 70.7054244,18.7513479 70.5934387,18.610874 C70.4928476,18.4676689 70.3590217,18.3510001 70.2034387,18.270874 L70.1414387,18.225874 C70.0982107,18.1947428 70.0589231,18.1584774 70.0244387,18.117874 C69.9915196,18.0801866 69.9645426,18.0376979 69.9444387,17.991874 C69.9264387,17.950874 69.9404387,17.915874 69.9884387,17.888874 C70.0364387,17.861874 70.1234387,17.848874 70.2484387,17.848874 L70.4284387,17.875874 C70.5484387,17.899874 70.6954387,17.970874 70.8714387,18.090874 C71.0484387,18.210874 71.1924387,18.365874 71.3064387,18.556874 C71.4444387,18.801874 71.6094387,18.988874 71.8044387,19.116874 C71.9984387,19.245874 72.1944387,19.309874 72.3914387,19.309874 C72.5884387,19.309874 72.7584387,19.294874 72.9014387,19.264874 C73.0454387,19.234874 73.1794387,19.189874 73.3054387,19.130874 C73.3594387,18.730874 73.5054387,18.421874 73.7454387,18.206874 C73.4351281,18.1766508 73.1275713,18.1228284 72.8254387,18.045874 C72.5312726,17.9647824 72.2484089,17.8472025 71.9834387,17.695874 C71.7058131,17.5450692 71.4605048,17.341212 71.2614387,17.095874 C71.0704387,16.855874 70.9134387,16.542874 70.7914387,16.153874 C70.6621798,15.7178238 70.6001341,15.2646203 70.6074387,14.809874 C70.6074387,14.086874 70.8434387,13.470874 71.3154387,12.962874 C71.0944387,12.418874 71.1154387,11.809874 71.3784387,11.134874 C71.5514387,11.080874 71.8084387,11.120874 72.1484387,11.254874 C72.4894387,11.389874 72.7384387,11.504874 72.8984387,11.600874 C73.0564387,11.695874 73.1834387,11.776874 73.2784387,11.842874 C73.8387654,11.6869415 74.4178209,11.6085453 74.9994387,11.609874 C75.5914387,11.609874 76.1654387,11.687874 76.7214387,11.842874 L77.0614387,11.627874 C77.2944387,11.483874 77.5694387,11.352874 77.8864387,11.232874 C78.2024387,11.112874 78.4454387,11.080874 78.6124387,11.134874 C78.8814387,11.809874 78.9054387,12.419874 78.6844387,12.962874 C79.1564387,13.470874 79.3924387,14.086874 79.3924387,14.809874 C79.3924387,15.317874 79.3304387,15.766874 79.2084387,16.158874 C79.0864387,16.550874 78.9284387,16.863874 78.7334387,17.099874 C78.5311669,17.3425237 78.2848407,17.5447419 78.0074387,17.695874 C77.7174387,17.857874 77.4374387,17.973874 77.1644387,18.045874 C76.8629924,18.1230884 76.5561059,18.1772449 76.2464387,18.207874 C76.5564387,18.475874 76.7124387,18.900874 76.7124387,19.479874 L76.7124387,21.371874 C76.7124387,21.478874 76.7494387,21.568874 76.8244387,21.639874 C76.8984387,21.711874 77.0164387,21.732874 77.1784387,21.702874 C78.5644387,21.242874 79.6954387,20.412874 80.5714387,19.215874 C81.4379135,18.0453555 81.8988988,16.6241305 81.8844387,15.167874 C81.8931859,13.9540129 81.5739465,12.7603201 80.9604387,11.712874 L80.9614387,11.712874 Z" id="Github" fill="#353B45"></path>
        <path d="M90,0 L120,0 L120,30 L90,30 L90,0 Z M107.872,15.0045 L108.115,12.6385 L105.994,12.6385 L105.994,11.2475 C105.994,10.7245 106.34,10.6025 106.584,10.6025 L108.082,10.6025 L108.082,8.3055 L106.018,8.2975 C103.73,8.2975 103.208,10.0105 103.208,11.1075 L103.208,12.6375 L101.885,12.6375 L101.885,15.0045 L103.208,15.0045 L103.208,21.7025 L105.992,21.7025 L105.992,15.0045 L107.872,15.0045 Z" id="Facebook" fill="#353B45"></path>
        <path d="M120,0 L150,0 L150,30 L120,30 L120,0 Z M140.5895,16.2085 L140.5905,16.2085 C140.5905,13.9945 139.4075,12.9645 137.8305,12.9645 C136.5575,12.9645 135.9885,13.6645 135.6705,14.1545 L135.6705,14.1785 L135.6545,14.1785 L135.6705,14.1545 L135.6705,13.1325 L133.2735,13.1325 C133.3055,13.8095 133.2735,20.3415 133.2735,20.3415 L135.6705,20.3415 L135.6705,16.3155 C135.6705,16.1005 135.6865,15.8855 135.7495,15.7315 C135.9235,15.3005 136.3175,14.8545 136.9795,14.8545 C137.8475,14.8545 138.1935,15.5165 138.1935,16.4845 L138.1935,20.3415 L140.5895,20.3415 L140.5895,16.2085 Z M130.7665,9.6585 C129.9465,9.6585 129.4095,10.1955 129.4095,10.9035 C129.4095,11.5955 129.9305,12.1495 130.7345,12.1495 L130.7505,12.1495 C131.5865,12.1495 132.1065,11.5955 132.1065,10.9035 C132.0905,10.1955 131.5865,9.6585 130.7665,9.6585 Z M129.5525,20.3415 L131.9485,20.3415 L131.9485,13.1325 L129.5525,13.1325 L129.5525,20.3415 Z" id="LinkedIn" fill="#353B45"></path>
        <path d="M150,0 L180,0 L180,30 L150,30 L150,0 Z M171.7235,10.8324973 C171.220152,11.0554988 170.68622,11.2017909 170.1395,11.2664973 C170.71481,10.9216684 171.145459,10.379804 171.3515,9.74149728 C170.809343,10.0625276 170.21657,10.2890863 169.5985,10.4114973 C168.74454,9.49979255 167.384562,9.27560508 166.283156,9.8649747 C165.18175,10.4543443 164.613754,11.7102028 164.8985,12.9264973 C162.680423,12.8151075 160.613958,11.7671537 159.2135,10.0434973 C158.479684,11.303551 158.853934,12.9171178 160.0675,13.7254973 C159.629259,13.7111312 159.200753,13.5925207 158.8175,13.3794973 L158.8175,13.4144973 C158.8175,14.7504973 159.7685,15.8644973 161.0305,16.1184973 C160.793482,16.1826353 160.549043,16.2152496 160.3035,16.2154973 C160.1255,16.2154973 159.9535,16.1974973 159.7835,16.1644973 C160.144315,17.2885819 161.180128,18.0587089 162.3605,18.0804973 C161.383149,18.8467967 160.176443,19.2620642 158.9345,19.2594973 C158.7115,19.2594973 158.4925,19.2454973 158.2765,19.2214973 C159.537307,20.0327232 161.005261,20.4632491 162.5045,20.4615026 C167.5795,20.4615026 170.3525,16.2594973 170.3525,12.6144973 L170.3425,12.2574973 C170.884949,11.8699281 171.352531,11.3870993 171.7225,10.8324973 L171.7235,10.8324973 Z" id="Twitter" fill="#353B45"></path>
    </g>
</svg>