<svg viewBox="0 0 792 96" xmlns="http://www.w3.org/2000/svg" xmlns:xlink="http://www.w3.org/1999/xlink"><clipPath id="a"><path d="m0 0h792v96h-792z"/></clipPath><linearGradient id="b" gradientTransform="matrix(1 0 0 -1 0 98)" gradientUnits="userSpaceOnUse" x1="5.22" x2="105.42" y1="-.11" y2="100.08"><stop offset="0" stop-color="#9945ff"/><stop offset=".14" stop-color="#8a53f4"/><stop offset=".42" stop-color="#6377d6"/><stop offset=".79" stop-color="#24b0a7"/><stop offset=".99" stop-color="#00d18c"/><stop offset="1" stop-color="#00d18c"/></linearGradient><g clip-path="url(#a)"><path d="m233.53 38.4h-57.73v-19.2h72.68v-19.2h-72.81a19.05 19.05 0 0 0 -19.07 19.07v19.46a19.05 19.05 0 0 0 19.07 19.07h57.73v19.2h-75.4v19.2h75.56a19.07 19.07 0 0 0 19.04-19.07v-19.46a19.07 19.07 0 0 0 -19.07-19.07z"/><path d="m345.33 0h-57.94a19.06 19.06 0 0 0 -19.06 19.07v57.86a19 19 0 0 0 19.06 19.07h57.94a19.05 19.05 0 0 0 19.07-19.07v-57.86a19.05 19.05 0 0 0 -19.07-19.07zm-.13 76.8h-57.6v-57.6h57.6z"/><path d="m548.13 0h-56.5a19.05 19.05 0 0 0 -19.07 19.07v76.93h19.2v-31.55h56.24v31.55h19.2v-76.93a19.06 19.06 0 0 0 -19.07-19.07zm-.13 45.25h-56.24v-26h56.24z"/><path d="m772.93 0h-56.49a18.91 18.91 0 0 0 -7.31 1.44 19.09 19.09 0 0 0 -11.8 17.63v76.93h19.2v-31.55h56.27v31.55h19.2v-76.93a19.05 19.05 0 0 0 -19.07-19.07zm-.13 45.25h-56.23v-26h56.23z"/><path d="m661.08 76.8h-7.68l-27.52-68.8a12.7 12.7 0 0 0 -11.8-8h-17.08a12.7 12.7 0 0 0 -12.71 12.71v83.29h19.2v-76.8h7.68l27.5 68.8a12.68 12.68 0 0 0 11.78 8h17.1a12.7 12.7 0 0 0 12.7-12.71v-83.29h-19.2z"/><path d="m400.61 0h-19.2v76.93a19.07 19.07 0 0 0 19.07 19.07h57.73v-19.2h-57.6z"/><path d="m20.32 73.2a3.6 3.6 0 0 1 1.21-.87 3.66 3.66 0 0 1 1.47-.33h83.78a1.79 1.79 0 0 1 1 .31 1.94 1.94 0 0 1 .67.8 1.81 1.81 0 0 1 .12 1 1.84 1.84 0 0 1 -.45.94l-17.77 19.75a3.75 3.75 0 0 1 -2.67 1.2h-83.84a1.76 1.76 0 0 1 -1-.31 1.85 1.85 0 0 1 -.8-1.83 1.85 1.85 0 0 1 .46-.94zm87.87-16.35a1.88 1.88 0 0 1 .45.94 1.82 1.82 0 0 1 -.79 1.83 1.79 1.79 0 0 1 -1 .31l-83.85.07a3.75 3.75 0 0 1 -2.67-1.2l-17.85-19.65a1.82 1.82 0 0 1 -.33-2 1.75 1.75 0 0 1 .67-.8 1.76 1.76 0 0 1 1-.31l83.81-.04a3.65 3.65 0 0 1 1.45.33 3.6 3.6 0 0 1 1.21.87zm-87.87-55.65a3.6 3.6 0 0 1 1.21-.87 3.66 3.66 0 0 1 1.47-.33l83.84.07a1.76 1.76 0 0 1 1 .31 1.75 1.75 0 0 1 .67.8 1.9 1.9 0 0 1 .13 1 1.89 1.89 0 0 1 -.46.94l-17.83 19.68a3.75 3.75 0 0 1 -2.67 1.2h-83.84a1.76 1.76 0 0 1 -1-.31 1.85 1.85 0 0 1 -.8-1.83 1.85 1.85 0 0 1 .46-.94z" fill="url(#b)" fill-rule="evenodd"/></g></svg>