<?xml version="1.0" encoding="UTF-8"?>
<svg width="6px" height="11px" viewBox="0 0 6 11" version="1.1" xmlns="http://www.w3.org/2000/svg" xmlns:xlink="http://www.w3.org/1999/xlink">
    <!-- Generator: Sketch 53.2 (72643) - https://sketchapp.com -->
    <title>Arrow</title>
    <desc>Created with Sketch.</desc>
    <g id="BDL" stroke="none" stroke-width="1" fill="none" fill-rule="evenodd">
        <g id="BDL-Dark" transform="translate(-190.000000, -1034.000000)" fill="#FFFFFF">
            <g id="Group-7" transform="translate(119.500000, 772.000000)">
                <g id="Group-8" transform="translate(0.000000, 170.500000)">
                    <g id="Group-46">
                        <g id="Group-44" transform="translate(0.554810, 0.000000)">
                            <g id="Group-11">
                                <path d="M72.8301619,94.3482534 C72.6570525,94.3645681 72.4931708,94.4338123 72.3608097,94.5465667 L67.9185904,98.3541854 C67.6872476,98.5499002 67.5781774,98.8543538 67.6326137,99.1524485 C67.6870499,99.4505432 67.8966867,99.6967966 68.1822715,99.7981132 C68.4678564,99.8994299 68.7858155,99.8403512 69.0159455,99.6432117 L72.9094872,96.3049452 L76.803029,99.6432117 C77.0331589,99.8403512 77.3511181,99.8994299 77.6367029,99.7981132 C77.9222877,99.6967966 78.1319246,99.4505432 78.1863608,99.1524485 C78.240797,98.8543538 78.1317269,98.5499002 77.9003841,98.3541854 L73.4581648,94.5465667 C73.2841963,94.3983753 73.0576865,94.3268471 72.8301619,94.3482534 L72.8301619,94.3482534 Z" id="Arrow" transform="translate(72.909487, 97.095685) rotate(90.000000) translate(-72.909487, -97.095685) "></path>
                            </g>
                        </g>
                    </g>
                </g>
            </g>
        </g>
    </g>
</svg>