<svg xmlns="http://www.w3.org/2000/svg" viewBox="0 0 149.29 30.15"><defs><style>.cls-1{fill:#ff5a00;}.cls-2{fill:#fffefe;}.cls-3{fill-rule:evenodd;}</style></defs><g id="Layer_2" data-name="Layer 2"><g id="Layer_1-2" data-name="Layer 1"><path class="cls-1" d="M0,0H29.94V30.15H0Z"/><path d="M83.84,6c.27,0,.32.34.34.56.07,1,.1,2,.11,3s0,1.92,0,2.89a7.46,7.46,0,0,1,1.71-1.13,3.78,3.78,0,0,1,3.25.07,4.65,4.65,0,0,1,2.2,2.71,9.14,9.14,0,0,1,.38,3.33,7.31,7.31,0,0,1-1.22,3.71,4,4,0,0,1-1.79,1.43,4.11,4.11,0,0,1-3.59-.4,8.27,8.27,0,0,1-.92-.74c-.12.39-.22.79-.34,1.18a10.45,10.45,0,0,1-1.68-.05,12.87,12.87,0,0,0,.25-2.77c0-3.25,0-6.51,0-9.76a28.38,28.38,0,0,0-.2-3.8A6.13,6.13,0,0,1,83.84,6ZM88,12.68a4.9,4.9,0,0,0-1.48,0,3.78,3.78,0,0,0-2.2,1.4c0,.21,0,.43,0,.64v5.19c0,.18.14.29.25.4a3.64,3.64,0,0,0,3.35.94,2.26,2.26,0,0,0,1.35-1.05,6,6,0,0,0,.65-2.38,10.86,10.86,0,0,0,0-1.89,4.6,4.6,0,0,0-.54-2.12A2.25,2.25,0,0,0,88,12.68Zm7.41-6.26a1.57,1.57,0,0,1,1.09.06,1.7,1.7,0,0,1,.69.85A1.39,1.39,0,0,1,96.07,9a1.35,1.35,0,0,1-1.42-.87,1.41,1.41,0,0,1,.78-1.73ZM42.37,7.79a5.42,5.42,0,0,1,2.89-1,7.16,7.16,0,0,1,3.14.51A4.47,4.47,0,0,1,49.53,8a9.77,9.77,0,0,1-.86,1.17,5.57,5.57,0,0,0-1.21-.63,4.61,4.61,0,0,0-3.29,0,4,4,0,0,0-2,1.84,6.85,6.85,0,0,0-.7,1.84,12.45,12.45,0,0,0-.17,1.92c0,.86-.07,1.71,0,2.56A6,6,0,0,0,42.6,19.9a4.29,4.29,0,0,0,2.8,1.41,5.83,5.83,0,0,0,1.67-.11,10.42,10.42,0,0,0,1.86-.77,8.3,8.3,0,0,1,1,1.17,13.12,13.12,0,0,1-1.41.69,8.8,8.8,0,0,1-4.14.41,6.14,6.14,0,0,1-2.68-1.38,6.91,6.91,0,0,1-1.92-2.91,9.55,9.55,0,0,1-.46-2.32,11.48,11.48,0,0,1,0-1.76,8.66,8.66,0,0,1,.63-3.25A7.31,7.31,0,0,1,42.37,7.79Z"/><path class="cls-2" d="M8.89,7.51a1.94,1.94,0,0,1,.4-.06c.65,0,1.29,0,1.93,0,.1,0,.14.08.17.16,1,2,1.95,4,2.94,6.06.21.42.4.85.64,1.25.2-.33.37-.68.55-1,1.11-2.15,2.16-4.33,3.25-6.49a15.69,15.69,0,0,1,2.17.07,8.76,8.76,0,0,1-.55,1.16C19,11.44,17.48,14.19,16,17a.77.77,0,0,0-.07.34c0,2,0,3.95,0,5.92H13.87c0-1.93,0-3.85,0-5.78a1.05,1.05,0,0,0-.09-.61l-4-7.56C9.49,8.68,9.16,8.11,8.89,7.51Z"/><path class="cls-3" d="M124.65,8.38A13.28,13.28,0,0,1,126.41,8q-.14,1.65-.21,3.3c.93,0,1.87,0,2.8.06-.16.42-.33.84-.52,1.25h-2.35c0,1,0,2,0,3,0,.81,0,1.62,0,2.43s0,1.83.07,2.74a.93.93,0,0,0,.71.75,3.7,3.7,0,0,0,1.72-.06,2.28,2.28,0,0,1,.2,1.06,4.28,4.28,0,0,1-1.66.37,2.83,2.83,0,0,1-2.25-.71c-.47-.44-.43-1.14-.49-1.73-.06-1.3,0-2.6,0-3.9v-4H123c0-.43,0-.87,0-1.3h1.46C124.48,10.29,124.5,9.33,124.65,8.38ZM56.63,11a4,4,0,0,1,3.86,2.15,6.05,6.05,0,0,1,.83,2.68,10.63,10.63,0,0,1-.3,3.81,4.64,4.64,0,0,1-2.25,2.72,4.88,4.88,0,0,1-3.52.35,4.53,4.53,0,0,1-2.54-1.86,6.08,6.08,0,0,1-.93-3.3,9.33,9.33,0,0,1,.32-3.33,4.8,4.8,0,0,1,1.95-2.6,4.1,4.1,0,0,1,1.4-.59,9.25,9.25,0,0,1,1.18,0Zm-.91,1.45a2.4,2.4,0,0,0-1.5,1,5.39,5.39,0,0,0-.6,2.56A11.55,11.55,0,0,0,53.67,18a6.66,6.66,0,0,0,.62,2.28,2.53,2.53,0,0,0,2.07,1.16,2.72,2.72,0,0,0,2.16-.73,3.27,3.27,0,0,0,.78-1.78,14.66,14.66,0,0,0,.08-2.48,6.87,6.87,0,0,0-.44-2.54,2.41,2.41,0,0,0-1-1.17A2.91,2.91,0,0,0,55.72,12.44Zm8.69-1.07A11.79,11.79,0,0,1,66,11a5.09,5.09,0,0,1,.4,1.59,11.45,11.45,0,0,0,1-.73A4.35,4.35,0,0,1,70.07,11a1.48,1.48,0,0,1,.62.18,3.67,3.67,0,0,1,.94.6,4.3,4.3,0,0,1,.67,1,8.32,8.32,0,0,0,1.16-.81A4.92,4.92,0,0,1,75.74,11a2.66,2.66,0,0,1,2.11.7,2.6,2.6,0,0,1,.66.82,3.31,3.31,0,0,1,.21,1c.13,1.82,0,3.65.11,5.47,0,1.21,0,2.42,0,3.63q-.9,0-1.8,0V17.16c0-1.16,0-2.33-.07-3.5a1.37,1.37,0,0,0-.56-.93,1.88,1.88,0,0,0-1.19-.19,3.57,3.57,0,0,0-1.84,1c-.26.21-.52.42-.77.64-.08.06,0,.17-.06.26v8.21q-.9,0-1.8,0V16.22c0-.52,0-1,0-1.55a3.94,3.94,0,0,0-.22-1.57,1.59,1.59,0,0,0-1.67-.49A5.56,5.56,0,0,0,66.46,14c-.11.07-.1.21-.1.32v8.28c-.52,0-1,0-1.57,0-.05-2.82,0-5.64-.09-8.47,0-.64,0-1.28-.1-1.92,0-.28-.15-.56-.19-.84Zm30.6-.1c.58-.09,1.15-.19,1.72-.3.07,1.59,0,3.19.06,4.78,0,2.29,0,4.57,0,6.86-.59,0-1.19,0-1.79,0,0-3.28,0-6.55,0-9.82C95,12.28,95,11.78,95,11.27Zm23.06-.22a2.83,2.83,0,0,1,2.28,2.6c.07,1.89,0,3.78,0,5.66v.57a5.33,5.33,0,0,0,.12,1.12c.08.37.42.57.69.8a5.54,5.54,0,0,1-.81,1.05c-.2.17-.44,0-.6-.13a3.51,3.51,0,0,1-1-1.28c-.38.21-.68.55-1.06.77a4,4,0,0,1-2.2.66,4.38,4.38,0,0,1-2-.41,3.18,3.18,0,0,1-1.56-2.87,3.49,3.49,0,0,1,1.42-2.81A6.73,6.73,0,0,1,117,15.64c.58-.06,1.17-.06,1.76-.08a10,10,0,0,0-.1-1.73,1.62,1.62,0,0,0-.74-1.22,2.81,2.81,0,0,0-1.74-.2,6.52,6.52,0,0,0-3,1.24,11.56,11.56,0,0,1-.69-1c-.1-.18.06-.33.21-.4A8.14,8.14,0,0,1,116.6,11h.59a5.21,5.21,0,0,1,.88.06Zm-.74,5.69a8.42,8.42,0,0,0-1.65.24,2.62,2.62,0,0,0-1.58,1.18,2.23,2.23,0,0,0-.22,1.08,3,3,0,0,0,.1,1.23,1.67,1.67,0,0,0,.82.93,3,3,0,0,0,1.45.16,3.08,3.08,0,0,0,1.56-.75,1.85,1.85,0,0,0,.78-1.25c.07-.92.06-1.85.07-2.77C118.21,16.8,117.77,16.7,117.33,16.74Zm19.5-5.67a4.41,4.41,0,0,1,2.55,1.73,5.81,5.81,0,0,1,1,2.34,13.06,13.06,0,0,1,.14,2.42,6.39,6.39,0,0,1-1.23,3.7,4.31,4.31,0,0,1-2.67,1.53,4.83,4.83,0,0,1-3.64-.75,5.1,5.1,0,0,1-1.82-2.74,7.24,7.24,0,0,1-.24-1.67,12.69,12.69,0,0,1,.16-2.82,5.56,5.56,0,0,1,1.57-2.8,3.88,3.88,0,0,1,2.13-1A6.66,6.66,0,0,1,136.83,11.07Zm-2,1.35A2.27,2.27,0,0,0,133.08,14a6.86,6.86,0,0,0-.31,2.59,16.71,16.71,0,0,0,.16,2.45,3.2,3.2,0,0,0,.65,1.51,2.47,2.47,0,0,0,1.39.81,3.19,3.19,0,0,0,.62.08H136a2.82,2.82,0,0,0,1.2-.38,2.33,2.33,0,0,0,.95-1.19,6.06,6.06,0,0,0,.31-1.79c0-.72,0-1.44,0-2.16a5.33,5.33,0,0,0-.51-2.19,3.05,3.05,0,0,0-1.32-1.17A3.91,3.91,0,0,0,134.87,12.42Zm8.67-1c.53-.15,1.07-.32,1.61-.44a4.22,4.22,0,0,1,.37,1.79,5.58,5.58,0,0,0,.75-.71,3.52,3.52,0,0,1,3-1v.14c-.25.54-.4,1.11-.62,1.65,0,.1-.17.06-.25.08a2.87,2.87,0,0,0-1.42.25,4,4,0,0,0-1.11,1,2.18,2.18,0,0,0-.26,1.33q0,1,0,1.95c0,1.75,0,3.5,0,5.25-.6,0-1.19,0-1.79,0,0-1.95,0-3.9,0-5.85,0-1.33,0-2.65,0-4C143.72,12.31,143.57,11.87,143.54,11.4Zm-43.24,0a5.76,5.76,0,0,1,1.63-.37,6.39,6.39,0,0,1,.39,1.62c.47-.3.87-.7,1.36-1a3.74,3.74,0,0,1,3.17-.54,3.2,3.2,0,0,1,1.61,1.14,2.56,2.56,0,0,1,.41,1.43c.09,1.77.06,3.54.09,5.31,0,1.19,0,2.38,0,3.56-.6,0-1.19,0-1.79,0,0-1.95,0-3.9,0-5.85a32.18,32.18,0,0,0-.1-3.26,1.36,1.36,0,0,0-1.21-1,3.15,3.15,0,0,0-1.22.11,8,8,0,0,0-2.32,1.42c0,2.85,0,5.69,0,8.54-.52,0-1,0-1.57,0,0-1.62,0-3.23,0-4.84s0-3.32-.09-5a8.1,8.1,0,0,0-.27-1.37Z"/></g></g></svg>