<svg xmlns="http://www.w3.org/2000/svg" viewBox="0 0 85.34 43.98"><defs><style>.cls-1{fill:#e84142;}</style></defs><g id="Layer_2" data-name="Layer 2"><g id="Layer_1-2" data-name="Layer 1"><path class="cls-1" d="M3.45,35.85H4.67l3.41,7.93H6.47L5.73,42H2.3l-.72,1.82H0Zm1.79,4.9L4,37.53,2.78,40.75Zm4.36-4.9h1.62l2.16,6,2.23-6h1.52l-3.2,7.93H12.71Zm12.57,0h1.22l3.42,7.93H25.2L24.46,42H21l-.72,1.82H18.72ZM24,40.75l-1.22-3.22L21.5,40.75Zm6-4.9h1.41V42.5h3.37v1.28H29.93Zm10.61,0h1.22l3.41,7.93H43.56L42.82,42H39.38l-.71,1.82H37.09Zm1.79,4.9-1.22-3.22-1.24,3.22Zm6-4.9h1.87L54,41.74h0V35.85h1.42v7.93h-1.8L49.73,37.7h0v6.08H48.29Zm16.59,1.86a2.3,2.3,0,0,0-.85-.63,2.33,2.33,0,0,0-.81-.16,2.67,2.67,0,0,0-1.12.23,2.47,2.47,0,0,0-.86.6,3.18,3.18,0,0,0-.56.9,3.31,3.31,0,0,0-.19,1.11,3.68,3.68,0,0,0,.19,1.17,3.07,3.07,0,0,0,.56.93,2.58,2.58,0,0,0,2,.84,2,2,0,0,0,.92-.22,2.79,2.79,0,0,0,.86-.74l1.16.83a3.19,3.19,0,0,1-1.31,1.07A4,4,0,0,1,63.2,44a4.88,4.88,0,0,1-1.69-.29,4.13,4.13,0,0,1-1.32-.84,4.2,4.2,0,0,1-.86-1.31A4.39,4.39,0,0,1,59,39.85a4.56,4.56,0,0,1,.31-1.73,4.07,4.07,0,0,1,.86-1.33A3.81,3.81,0,0,1,61.51,36a4.66,4.66,0,0,1,1.69-.3,3.64,3.64,0,0,1,1.49.29,3.4,3.4,0,0,1,1.29,1Zm4.47-1.86h1.41V39h3.7V35.85h1.41v7.93H74.46v-3.5h-3.7v3.5H69.35Zm10.53,0h5.25v1.28H81.29v1.94h3.64v1.28H81.29V42.5h4v1.28H79.88Z"/><path class="cls-1" d="M10.16,29.59H4.3a5.27,5.27,0,0,1-2.5-.27A1.68,1.68,0,0,1,1,28c0-.49.32-1.1,1-2.31L14.88,3.17c.7-1.22,1-1.83,1.49-2.06a1.65,1.65,0,0,1,1.53,0c.45.22.8.84,1.5,2.06l3,5.18a7.36,7.36,0,0,1,.88,1.8,3.42,3.42,0,0,1,0,1.56,7.61,7.61,0,0,1-.87,1.8L14.69,27a7.67,7.67,0,0,1-1.13,1.7,3.54,3.54,0,0,1-1.37.79A7.34,7.34,0,0,1,10.16,29.59Z"/><path class="cls-1" d="M31.09,29.59h-6.8c-1.4,0-2.11,0-2.52-.28A1.65,1.65,0,0,1,21,28c0-.5.32-1.1,1-2.32l3.4-5.83c.69-1.19,1-1.79,1.48-2a1.69,1.69,0,0,1,1.52,0c.44.23.79.82,1.49,2l3.41,5.83c.71,1.21,1.06,1.82,1,2.32a1.67,1.67,0,0,1-.76,1.32C33.2,29.59,32.5,29.59,31.09,29.59Z"/><path class="cls-1" d="M60.55,29.59H54.68a5.27,5.27,0,0,1-2.5-.27A1.68,1.68,0,0,1,51.41,28a5.47,5.47,0,0,1,1-2.31L65.26,3.17c.7-1.22,1-1.83,1.5-2.06a1.65,1.65,0,0,1,1.53,0c.44.22.79.84,1.49,2.06l3,5.18a7.36,7.36,0,0,1,.88,1.8,3.43,3.43,0,0,1,0,1.56,7.23,7.23,0,0,1-.87,1.8L65.07,27a7.67,7.67,0,0,1-1.13,1.7,3.58,3.58,0,0,1-1.36.79A7.42,7.42,0,0,1,60.55,29.59Z"/><path class="cls-1" d="M81.47,29.59h-6.8a5.2,5.2,0,0,1-2.52-.28A1.65,1.65,0,0,1,71.39,28c0-.5.33-1.1,1-2.32l3.4-5.83c.69-1.19,1-1.79,1.48-2a1.69,1.69,0,0,1,1.52,0c.45.23.8.82,1.49,2l3.41,5.83c.71,1.21,1.06,1.82,1,2.32A1.67,1.67,0,0,1,84,29.31C83.58,29.59,82.88,29.59,81.47,29.59Z"/><path class="cls-1" d="M35.61,0h-6a5.27,5.27,0,0,0-2.5.27,1.68,1.68,0,0,0-.77,1.31c0,.5.32,1.1,1,2.31l12.8,22.48c.71,1.26,1.07,1.88,1.52,2.11a1.7,1.7,0,0,0,1.55,0c.44-.24.79-.87,1.48-2.14l3.06-5.62a7.07,7.07,0,0,0,.83-1.8,3.44,3.44,0,0,0,0-1.53,7.54,7.54,0,0,0-.88-1.78l-7.55-13A7.53,7.53,0,0,0,39,.92,3.32,3.32,0,0,0,37.63.14,7.34,7.34,0,0,0,35.61,0Z"/><path class="cls-1" d="M56.4,0H49.59a5.35,5.35,0,0,0-2.52.27,1.68,1.68,0,0,0-.76,1.32c0,.5.32,1.11,1,2.32l3.4,5.85c.69,1.2,1,1.8,1.49,2a1.69,1.69,0,0,0,1.52,0c.44-.23.79-.83,1.49-2l3.41-5.85c.7-1.21,1.06-1.82,1-2.31A1.68,1.68,0,0,0,58.92.27,5.37,5.37,0,0,0,56.4,0Z"/></g></g></svg>