<svg xmlns="http://www.w3.org/2000/svg" width="164" height="28" viewBox="0 0 164 28" fill="none"><path d="M47.0323 7.9751C49.4862 7.9751 51.054 8.92938 51.054 10.9061C51.054 12.2694 50.3042 13.0873 49.2817 13.4281C50.4405 13.769 51.4629 14.5869 51.4629 16.291C51.4629 18.8812 48.9409 19.4947 46.9642 19.4947H41.9883V7.9751H47.0323ZM47.0323 14.5188H44.4422V17.5179H46.896C47.9866 17.5179 49.0091 17.3134 49.0091 16.0183C49.0091 14.7914 47.9866 14.5188 47.0323 14.5188ZM46.7597 9.95183H44.374V12.6102H46.896C47.8503 12.6102 48.5319 12.2012 48.5319 11.3151C48.5319 10.3608 47.8503 9.95183 46.7597 9.95183Z" fill="#13202B"></path><path d="M53.3713 19.4947L58.0746 7.9751H60.7329L65.4362 19.4947H62.9142L62.028 17.3134H56.7795L55.8934 19.4947H53.3713ZM57.5293 15.2685H61.2783L59.6423 11.1106C59.5742 10.9061 59.506 10.6335 59.3697 10.2245C59.3015 10.7016 59.2334 10.9061 59.097 11.1106L57.5293 15.2685Z" fill="#13202B"></path><path d="M68.3677 19.4947V7.9751H73.1391C75.3885 7.9751 77.706 8.79305 77.706 11.7241C77.706 13.7008 76.6154 14.7232 75.184 15.1322L78.6603 19.4947H75.7974L72.6619 15.473H70.8215V19.4947H68.3677ZM70.8215 13.36H73.2073C74.2297 13.36 75.184 12.8828 75.184 11.7241C75.184 10.5653 74.2979 10.0882 73.2073 10.0882H70.8215V13.36Z" fill="#13202B"></path><path d="M81.6591 19.4947V7.9751H83.9766L89.3615 15.473C89.3615 14.9959 89.2933 14.4506 89.2933 13.9053V7.9751H91.7472V19.4947H89.4296L84.0448 11.9967C84.0448 12.4739 84.1129 13.0192 84.1129 13.5645V19.4947H81.6591Z" fill="#13202B"></path><path d="M100.949 7.9751C103.403 7.9751 104.971 8.92938 104.971 10.9061C104.971 12.2694 104.221 13.0873 103.198 13.4281C104.357 13.769 105.38 14.5869 105.38 16.291C105.38 18.8812 102.858 19.4947 100.881 19.4947H95.905V7.9751H100.949ZM100.949 14.5188H98.3589V17.5179H100.813C101.903 17.5179 102.926 17.3134 102.926 16.0183C102.926 14.7914 101.972 14.5188 100.949 14.5188ZM100.745 9.95183H98.3589V12.6102H100.881C101.835 12.6102 102.517 12.2012 102.517 11.3151C102.449 10.3608 101.835 9.95183 100.745 9.95183Z" fill="#13202B"></path><path d="M108.856 19.4947V7.9751H113.627C115.877 7.9751 118.194 8.79305 118.194 11.7241C118.194 13.7008 117.104 14.7232 115.672 15.1322L119.149 19.4947H116.286L113.15 15.473H111.31V19.4947H108.856ZM111.31 13.36H113.696C114.718 13.36 115.672 12.8828 115.672 11.7241C115.672 10.5653 114.786 10.0882 113.696 10.0882H111.31V13.36Z" fill="#13202B"></path><path d="M124.602 7.9751V19.4947H122.148V7.9751H124.602Z" fill="#13202B"></path><path d="M133.054 7.9751C137.144 7.9751 139.12 10.429 139.12 13.769C139.12 17.1089 137.144 19.5628 133.054 19.5628H128.76V7.9751H133.054ZM133.054 10.0882H131.213V17.2453H133.054C135.371 17.2453 136.598 16.0183 136.598 13.6326C136.598 11.2469 135.303 10.0882 133.054 10.0882Z" fill="#13202B"></path><path d="M148.255 7.70264C149.482 7.70264 150.709 7.97529 151.799 8.45243V10.8381C150.913 10.2928 149.754 9.95202 148.596 9.95202C146.551 9.95202 144.506 11.0426 144.506 13.7691C144.506 16.8365 146.755 17.5863 148.459 17.5863C148.936 17.5863 149.414 17.5181 149.754 17.3818V13.292H152.14V19.0177C150.981 19.4948 149.686 19.7675 148.391 19.7675C145.188 19.7675 142.052 17.9953 142.052 13.7691C141.984 9.54304 145.051 7.70264 148.255 7.70264Z" fill="#13202B"></path><path d="M163.932 7.9751V10.1563H158.274V12.6102H163.455V14.7914H158.274V17.3816H164V19.5628H155.752V7.9751H163.932Z" fill="#13202B"></path><path d="M14.2459 12.2695H14.1096C12.2692 12.2695 10.8378 13.7691 10.8378 15.6777V19.3585L14.1778 16.8365L17.5177 19.3585V15.6777C17.5177 13.8373 16.0182 12.3377 14.2459 12.2695Z" fill="#FF4339"></path><path d="M0 0V27.4016L8.52038 21.0624V13.8371L6.95263 12.6102L14.1779 7.15712L21.4032 12.6102L19.8355 13.8371V21.0624L28.3558 27.4016V0H0Z" fill="#FF4339"></path></svg>