<svg xmlns="http://www.w3.org/2000/svg" viewBox="0 0 171.21 34.48"><defs><style>.cls-1{fill:#fcb900;}</style></defs><g id="Layer_2" data-name="Layer 2"><g id="Layer_1-2" data-name="Layer 1"><path class="cls-1" d="M9.69,14.65,16.5,7.88l6.81,6.77,4-3.94L16.5,0,5.73,10.71Zm-6-1.07,3.65,3.66L3.66,20.89,0,17.24Zm6,6.25L16.5,26.6l6.81-6.78,4,3.94h0L16.5,34.48,5.73,23.77h0Zm23-2.59L29,20.89l-3.66-3.65L29,13.58Z"/><path class="cls-1" d="M20.38,16.81h0L16.5,12.93l-2.87,2.86-.33.33-.67.68h0l3.87,3.87,3.88-3.87Zm19-8.19h8.47a6.47,6.47,0,0,1,4.77,1.6,4.15,4.15,0,0,1,1.25,3.08v0a4.2,4.2,0,0,1-.19,1.37,3.94,3.94,0,0,1-.52,1.07,4.33,4.33,0,0,1-.75.84,4.79,4.79,0,0,1-.92.62,6.2,6.2,0,0,1,2.49,1.62,4.1,4.1,0,0,1,.91,2.83v.05a4.7,4.7,0,0,1-.48,2.18A4.28,4.28,0,0,1,53,25.48a6.62,6.62,0,0,1-2.17.93,11.54,11.54,0,0,1-2.8.31H39.34V8.62ZM47,15.94a4.13,4.13,0,0,0,2.11-.46A1.56,1.56,0,0,0,49.86,14v0a1.57,1.57,0,0,0-.68-1.38,3.34,3.34,0,0,0-2-.48h-4v3.83ZM48,23.23a3.92,3.92,0,0,0,2.09-.48,1.65,1.65,0,0,0,.75-1.49v-.05a1.69,1.69,0,0,0-.7-1.43,3.78,3.78,0,0,0-2.27-.53H43.26v4ZM60,8.62h4.3v18.1H60Zm10.34,0H74.1l8.64,11.14V8.62h4v18.1H83.29L74.37,15.21V26.72h-4Zm28.35,0h3.63L110,26.72H105.9l-1.64-4H96.7l-1.63,4h-4l7.67-18.1Zm4.14,10.58-2.38-5.83L98.11,19.2ZM114.32,8.62h3.74l8.64,11.14V8.62h4v18.1h-3.45l-8.93-11.51V26.72h-4V8.62Zm31.13,18.1a10,10,0,0,1-3.82-.73,9.64,9.64,0,0,1-3-2,9,9,0,0,1-2-3,9.52,9.52,0,0,1-.72-3.69v-.05a9.34,9.34,0,0,1,5.79-8.74,10.29,10.29,0,0,1,4-.74A12.58,12.58,0,0,1,148,8a10.51,10.51,0,0,1,2,.57,8.81,8.81,0,0,1,1.63.89A11,11,0,0,1,153,10.59l-2.61,3A9.5,9.5,0,0,0,148.13,12a5.72,5.72,0,0,0-2.55-.55,5.36,5.36,0,0,0-2.17.44,5.27,5.27,0,0,0-1.72,1.23A5.53,5.53,0,0,0,140.57,15a6,6,0,0,0-.4,2.21v.06a6.11,6.11,0,0,0,.4,2.22,5.78,5.78,0,0,0,1.1,1.84,5.21,5.21,0,0,0,3.91,1.7,5.74,5.74,0,0,0,2.71-.58,10.44,10.44,0,0,0,2.2-1.57l2.62,2.59a13.66,13.66,0,0,1-1.5,1.37,9.09,9.09,0,0,1-1.69,1,8.85,8.85,0,0,1-2,.66,13,13,0,0,1-2.45.22Zm12-18.1h13.66v3.54h-9.72v3.67h8.55v3.55h-8.55v3.8h9.85v3.54H157.42Z"/></g></g></svg>