<svg id="Layer_1" data-name="Layer 1" xmlns="http://www.w3.org/2000/svg" viewBox="0 0 367.47 91.48"><defs><style>.cls-1{fill:#00aeef;}.cls-2{fill:#fff;}.cls-3{fill:#414042;}</style></defs><path class="cls-1" d="M161.74,441.5s39.11-13.31,39.11-62.18V361.73a3.61,3.61,0,0,0-3.37-3.6c-7.11-.33-23.95-1.78-35.74-8.1-11.8,6.32-28.64,7.77-35.75,8.1a3.61,3.61,0,0,0-3.37,3.6v17.59C122.62,428.19,161.74,441.5,161.74,441.5Z" transform="translate(-122.62 -350.03)"/><path id="symbol" class="cls-2" d="M177.54,385.74c-.47-5.34-5-7.16-10.86-7.71l0-7.46-4.51,0,0,7.2c-1.19,0-2.46,0-3.67,0v-7.31l-4.54,0,0,7.4L145,378v4.73h5.77l0,23.8-5.05,0,0,5.43s7.14,0,8.19,0l0,7.49,4.46,0,0-7.4,3.6.06,0,7.37h4.55l0-7.44c7.58-.38,12.89-2.25,13.6-9.36.57-5.73-2.1-8.3-6.4-9.36,2.63-1.32,4.28-3.65,3.92-7.56Zm-6.42,16c0,5.59-9.52,4.89-12.58,4.87v-9.92C161.58,396.68,171.17,395.87,171.12,401.71Zm-2-14c0,5.09-7.94,4.44-10.49,4.42l0-9C161.17,383.14,169.16,382.39,169.13,387.7Z" transform="translate(-122.62 -350.03)"/><path class="cls-3" d="M278.6,410.66a19.25,19.25,0,0,1-2.31,9.81,18.43,18.43,0,0,1-6.14,6.39,26.63,26.63,0,0,1-8.71,3.47,46.79,46.79,0,0,1-10,1.06H223.05V360.14h28.38a44.27,44.27,0,0,1,8.45.85,25.34,25.34,0,0,1,7.85,2.92,15.68,15.68,0,0,1,7.95,14.54,14.85,14.85,0,0,1-3.22,9.82,17.92,17.92,0,0,1-8.45,5.58v.2a19.9,19.9,0,0,1,5.69,1.86,16.67,16.67,0,0,1,4.63,3.48,16.21,16.21,0,0,1,3.11,4.93A16.39,16.39,0,0,1,278.6,410.66Zm-19.52-29.89a5.68,5.68,0,0,0-2.77-5.28c-1.84-1.11-4.58-1.66-8.2-1.66h-8.45v14.69h9.26c3.22,0,5.71-.66,7.49-2A6.73,6.73,0,0,0,259.08,380.77Zm2.31,28.28c0-2.95-1.1-5-3.32-6.14a19.41,19.41,0,0,0-8.85-1.71h-9.56v16.3h9.66a26.46,26.46,0,0,0,4.17-.35,13.42,13.42,0,0,0,3.93-1.26,7.12,7.12,0,0,0,4-6.84Z" transform="translate(-122.62 -350.03)"/><path class="cls-3" d="M301.48,365.27a8.38,8.38,0,0,1-.76,3.57,9,9,0,0,1-5,4.78,9.78,9.78,0,0,1-3.67.71,9.22,9.22,0,0,1-6.74-2.67,8.6,8.6,0,0,1-2.72-6.39,8.78,8.78,0,0,1,.7-3.47,8.18,8.18,0,0,1,2-2.87,10.77,10.77,0,0,1,3-2,9.16,9.16,0,0,1,3.72-.76,9.78,9.78,0,0,1,3.67.71,9.32,9.32,0,0,1,3,1.91,9.17,9.17,0,0,1,2,2.87A8.44,8.44,0,0,1,301.48,365.27Zm-17.71,66.12V381.27h16.5v50.12Z" transform="translate(-122.62 -350.03)"/><path class="cls-3" d="M330.18,393.55v19.19a8.69,8.69,0,0,0,1.36,5.31c.91,1.18,2.53,1.76,4.88,1.76a16.81,16.81,0,0,0,2.57-.2,8.46,8.46,0,0,0,2.26-.6l.2,12.08a27.38,27.38,0,0,1-4.32,1.05,30.89,30.89,0,0,1-5.23.46,24.64,24.64,0,0,1-8.46-1.27A13.06,13.06,0,0,1,318,427.7a14.12,14.12,0,0,1-3-5.65,27.14,27.14,0,0,1-.91-7.31V393.55H306V381.27h8V368.09h16.2v13.18H342v12.28Z" transform="translate(-122.62 -350.03)"/><path class="cls-3" d="M401.68,431.49a64.07,64.07,0,0,1-15.24,1.71,44.22,44.22,0,0,1-15.75-2.72,36.31,36.31,0,0,1-12.38-7.65,34.87,34.87,0,0,1-8.1-11.82,41.84,41.84,0,0,1,.05-30.84,34.54,34.54,0,0,1,8.2-11.83,36.47,36.47,0,0,1,12.28-7.5,43.36,43.36,0,0,1,15.19-2.61,46.71,46.71,0,0,1,15.7,2.56,32.41,32.41,0,0,1,11.78,6.9l-10.87,12.37a19,19,0,0,0-6.64-4.78,22.54,22.54,0,0,0-9.36-1.86,20.81,20.81,0,0,0-8.35,1.66,20.16,20.16,0,0,0-6.65,4.63,21.14,21.14,0,0,0-4.37,7.05,24.66,24.66,0,0,0-1.56,8.9,27.86,27.86,0,0,0,1.41,9.06,19.47,19.47,0,0,0,4.17,7.09,19,19,0,0,0,6.84,4.63,24.46,24.46,0,0,0,9.31,1.66,35.06,35.06,0,0,0,5.74-.45,21.31,21.31,0,0,0,5-1.46v-13H384.53V389.32h29.38v37.74A54.71,54.71,0,0,1,401.68,431.49Z" transform="translate(-122.62 -350.03)"/><path class="cls-3" d="M476,406.13a27.19,27.19,0,0,1-2.21,11.12,24.94,24.94,0,0,1-6,8.45,27.62,27.62,0,0,1-8.86,5.39,31.15,31.15,0,0,1-21.48,0,27,27,0,0,1-8.86-5.39,25.2,25.2,0,0,1-6-8.45,27,27,0,0,1-2.22-11.12,26.69,26.69,0,0,1,2.22-11.07,24.79,24.79,0,0,1,6-8.35,26.15,26.15,0,0,1,8.86-5.24,32.77,32.77,0,0,1,21.48,0,26.74,26.74,0,0,1,8.86,5.24,24.53,24.53,0,0,1,6,8.35A26.85,26.85,0,0,1,476,406.13Zm-15.9,0a14.46,14.46,0,0,0-.8-4.73,12.63,12.63,0,0,0-2.32-4.08,11.67,11.67,0,0,0-3.72-2.86,12.43,12.43,0,0,0-10.27,0,11.15,11.15,0,0,0-3.67,2.86,12.38,12.38,0,0,0-2.21,4.08,15.1,15.1,0,0,0,0,9.46,12.79,12.79,0,0,0,2.26,4.17,11,11,0,0,0,3.72,3,12.43,12.43,0,0,0,10.27,0,10.93,10.93,0,0,0,3.72-3,13,13,0,0,0,2.27-4.17A15.24,15.24,0,0,0,460.06,406.13Z" transform="translate(-122.62 -350.03)"/><path class="cls-3" d="M484.31,421.57a5.72,5.72,0,1,1-5.8,5.7A5.71,5.71,0,0,1,484.31,421.57Zm0,.92a4.79,4.79,0,1,0,4.67,4.78A4.65,4.65,0,0,0,484.31,422.49Zm-1.21,8.09h-1V424h2.53c1.57,0,2.34.58,2.34,1.88a1.71,1.71,0,0,1-1.73,1.81l1.88,2.9H486l-1.75-2.86H483.1Zm0-3.7h1.2c1.23,0,1.63-.35,1.63-1.07s-.31-1-1.46-1H483.1Z" transform="translate(-122.62 -350.03)"/></svg>