<svg width="112" height="28" viewBox="0 0 112 28" fill="none" xmlns="http://www.w3.org/2000/svg">
<path fill-rule="evenodd" clip-rule="evenodd" d="M78.2076 2.25939V4.29662H79.9987H81.7898V2.25939V0.222168H79.9987H78.2076V2.25939ZM0 10.8595V21.3601H1.77709H3.55415L3.56137 20.4509L3.56856 19.5416L3.68976 19.7057C4.39401 20.6591 5.63978 21.3458 7.01407 21.538C7.63358 21.6247 8.67183 21.5878 9.38201 21.454C11.4603 21.0622 13.0613 19.8527 13.9754 17.9839C14.556 16.7967 14.8206 15.551 14.8206 14.0042C14.8206 12.971 14.7151 12.1675 14.465 11.2953C14.3139 10.7682 14.2194 10.523 13.9756 10.0255C12.9555 7.94306 11.1545 6.716 8.7386 6.45728C8.38013 6.41889 7.46081 6.41919 7.13573 6.4578C6.29653 6.55747 5.41984 6.86106 4.78543 7.27165C4.39179 7.5264 4.01623 7.86483 3.67157 8.27536L3.5568 8.41209L3.55585 4.38549L3.55489 0.358895H1.77744H0V10.8595ZM68.6367 5.93983C66.5641 6.10029 64.7601 7.08466 63.7553 8.6035C63.277 9.32643 63.0213 10.0105 62.8947 10.9058C62.8646 11.118 62.8572 11.8778 62.8836 12.0374L62.8998 12.1351L63.2456 11.7884C63.8372 11.1953 64.4828 10.7667 65.2781 10.4389C66.8805 9.77845 68.7706 9.7394 70.52 10.3307C70.983 10.4871 71.2433 10.5983 71.6721 10.8228C73.3642 11.7088 74.6014 13.1453 75.1422 14.8519C75.2143 15.0794 75.3363 15.6464 75.3363 15.7538C75.3363 15.7992 75.3436 15.8363 75.3525 15.8363C75.381 15.8363 75.4693 15.7205 75.6942 15.388C76.2032 14.6355 76.4824 13.8269 76.5671 12.8592C76.6606 11.7912 76.3485 10.5409 75.7282 9.49863C75.1884 8.59153 74.2763 7.67915 73.33 7.09981C71.9251 6.23964 70.2171 5.81748 68.6367 5.93983ZM105.266 6.40352C104.711 6.45466 104.095 6.58356 103.639 6.74391C103.309 6.8598 102.635 7.20785 102.353 7.40737C101.821 7.78492 101.291 8.391 101.02 8.93165C100.734 9.50196 100.629 9.94758 100.611 10.6681C100.595 11.2766 100.626 11.617 100.74 12.074C100.917 12.7886 101.197 13.2865 101.69 13.762C101.965 14.027 102.237 14.2192 102.588 14.3964C103.313 14.762 103.915 14.9281 105.58 15.2222C106.512 15.3869 107.089 15.5161 107.412 15.6325C108.035 15.8568 108.414 16.1824 108.565 16.6225C108.617 16.7719 108.629 16.8648 108.629 17.1099C108.629 17.4115 108.629 17.4139 108.513 17.6473C108.419 17.8363 108.357 17.9189 108.192 18.0733C107.337 18.8711 105.47 18.9117 104.445 18.1548C103.922 17.7685 103.595 17.2077 103.488 16.5131L103.472 16.4106H101.842H100.213L100.231 16.6578C100.322 17.8553 100.815 18.9812 101.611 19.8085C102.57 20.8048 103.913 21.3876 105.572 21.5269C106.045 21.5666 107.074 21.5438 107.478 21.4847C108.96 21.2679 110.049 20.7632 110.861 19.9179C111.669 19.076 112.056 17.9703 111.993 16.684C111.917 15.1066 111.41 14.0661 110.382 13.3724C109.671 12.8925 108.733 12.6056 107.18 12.3932C105.464 12.1585 105.104 12.0816 104.609 11.8443C104.094 11.5975 103.829 11.1859 103.831 10.6353C103.832 9.83743 104.396 9.28438 105.385 9.10931C105.675 9.05793 106.268 9.06955 106.553 9.1322C107.616 9.36633 108.328 10.0544 108.546 11.0577L108.562 11.1329H110.188H111.815V11.0234C111.815 10.6812 111.665 10.0228 111.483 9.56059C110.852 7.96423 109.302 6.82953 107.303 6.50062C106.672 6.39682 105.793 6.35493 105.266 6.40352ZM52.7628 6.43248C52.5372 6.44158 52.2911 6.45761 52.2159 6.46806C51.7988 6.52603 51.6726 6.54697 51.4365 6.5974C48.4496 7.23542 46.335 9.50801 45.8307 12.622C45.7788 12.9421 45.722 13.6717 45.722 14.0179C45.722 14.7345 45.8453 15.6524 46.0269 16.2875C46.3986 17.5872 46.9885 18.6104 47.8802 19.5021C48.9983 20.6202 50.3189 21.2647 51.9971 21.5116C52.6146 21.6024 53.6535 21.6085 54.3215 21.5252C55.2934 21.404 56.3413 21.0655 57.138 20.6153C58.7803 19.6874 59.9121 18.165 60.2539 16.4243C60.2775 16.3039 60.3031 16.1778 60.3108 16.144L60.3248 16.0824L58.5126 16.0827L56.7005 16.083L56.6374 16.281C56.2897 17.3722 55.4094 18.1411 54.1984 18.4111C53.946 18.4674 53.8401 18.4752 53.3233 18.4751C52.8075 18.475 52.7003 18.4671 52.4483 18.411C51.5198 18.2043 50.7795 17.7076 50.2612 16.9436C49.9695 16.5136 49.6906 15.8349 49.5926 15.3168C49.5827 15.2641 49.5543 15.1165 49.5297 14.9886C49.4639 14.6479 49.4637 13.3877 49.5293 13.0061C49.7891 11.496 50.4605 10.4596 51.5356 9.90957C51.8248 9.76161 52.1032 9.66527 52.4756 9.58416C52.8048 9.51249 53.7295 9.51167 54.0533 9.58274C55.382 9.87441 56.3475 10.7209 56.6249 11.8371L56.6673 12.008H58.4409H60.2144V11.926C60.2144 11.8051 60.1395 11.3925 60.0626 11.0894C59.5372 9.01822 57.8704 7.40649 55.5704 6.74553C54.6701 6.48684 53.8047 6.39034 52.7628 6.43248ZM16.7905 11.2628C16.7907 13.9129 16.802 16.1209 16.8162 16.2923C17.0135 18.6766 18.3287 20.4983 20.3359 21.1676C21.04 21.4023 21.6098 21.4821 22.4368 21.4618C23.041 21.4469 23.3686 21.4066 23.8268 21.2908C25.0891 20.9717 26.0981 20.2528 26.6918 19.2497L26.8394 19.0004L26.8466 20.1255L26.8537 21.2507H28.6445H30.4353V13.8948V6.53893H28.6449H26.8544L26.8454 10.839C26.8354 15.5935 26.8476 15.2625 26.659 15.8743C26.3644 16.8302 25.7576 17.5594 24.9252 17.9582C24.4174 18.2015 23.8496 18.3179 23.3051 18.2903C22.4972 18.2493 21.8454 17.9719 21.3267 17.4482C20.7969 16.9133 20.4777 16.1754 20.3988 15.3031C20.3852 15.1527 20.3737 13.1193 20.3732 10.7843L20.3723 6.53893H18.5811H16.79L16.7905 11.2628ZM92.1674 6.55739C91.7572 6.60864 91.4417 6.66212 91.22 6.71802C89.9425 7.04015 88.9537 7.75498 88.3259 8.81026L88.1886 9.04103V7.89936L88.1886 6.7577H86.3975H84.6064V14.1136V21.4695H86.3965H88.1865L88.1964 17.1968C88.2053 13.3068 88.2104 12.9033 88.2527 12.6916C88.4871 11.5216 89.0148 10.7046 89.8725 10.1839C90.9583 9.52466 92.4405 9.56513 93.4019 10.2803C94.007 10.7303 94.3888 11.3625 94.5941 12.2541L94.654 12.5139L94.6623 16.9917L94.6707 21.4695H96.4619H98.2531L98.2441 16.4721L98.2352 11.4748L98.1628 11.0919C97.9097 9.75225 97.3885 8.74206 96.5306 7.92818C95.7485 7.18625 94.733 6.72773 93.5465 6.58083C93.2406 6.54295 92.3975 6.52862 92.1674 6.55739ZM78.2076 13.9769V21.3327H79.9987H81.7898V13.9769V6.62097H79.9987H78.2076V13.9769ZM31.7332 6.69617C31.7936 6.85193 32.0643 7.58927 32.3381 8.34372C32.4063 8.53172 32.4853 8.74707 32.5135 8.82227C32.5418 8.89747 32.6094 9.08205 32.6638 9.23245C32.8286 9.6881 32.9791 10.0998 33.0335 10.2442C33.0796 10.3666 33.3831 11.1999 33.6212 11.8576C33.6702 11.993 34.0701 13.0881 34.5097 14.2913C34.9493 15.4945 35.3492 16.5897 35.3982 16.7251C35.6695 17.4739 35.941 18.2186 35.9862 18.3384C36.075 18.5738 36.2344 19.009 36.3569 19.3502C36.4217 19.5307 36.5135 19.7829 36.5611 19.9108C36.6087 20.0386 36.6579 20.174 36.6704 20.2116C36.683 20.2492 36.7763 20.5014 36.878 20.7722C36.9796 21.0429 37.0627 21.3075 37.0628 21.3601C37.0628 21.4127 37.0061 21.6158 36.9366 21.8113C36.7521 22.331 36.4773 23.1133 36.4516 23.1922C36.4393 23.2298 36.3349 23.5313 36.2196 23.8622C36.1043 24.1931 35.9568 24.6176 35.8919 24.8056C35.827 24.9936 35.7345 25.2582 35.6863 25.3935C35.6382 25.5289 35.5887 25.6704 35.5764 25.708C35.5512 25.7847 35.1763 26.8629 35.087 27.1153C35.0553 27.205 35.0293 27.2881 35.0293 27.2999C35.0293 27.3318 38.4135 27.327 38.4332 27.295C38.4468 27.2731 38.9062 25.9443 39.0766 25.4345C39.1042 25.3518 39.258 24.9027 39.4184 24.4364C39.5787 23.9702 39.7326 23.5211 39.7603 23.4383C40.0312 22.6289 40.7311 20.5975 40.8343 20.321C40.8877 20.1781 41.0324 19.7843 41.156 19.4459C41.2797 19.1075 41.4597 18.6153 41.5563 18.3521C41.6528 18.0889 41.7541 17.812 41.7815 17.7368C41.809 17.6616 41.9514 17.274 42.0981 16.8755C42.2448 16.4769 42.3869 16.0893 42.4139 16.0141C42.4683 15.8626 42.8381 14.8527 42.9647 14.5101C43.0092 14.3898 43.099 14.1437 43.1643 13.9632C43.2296 13.7827 43.3195 13.5366 43.3641 13.4163C43.4087 13.296 43.5215 12.9883 43.6149 12.7326C43.8053 12.2112 43.9269 11.8811 44.0654 11.5089C44.1172 11.3698 44.2086 11.1206 44.2684 10.9552C44.3282 10.7898 44.4161 10.5498 44.4636 10.422C44.5112 10.2941 44.6035 10.0419 44.6688 9.86139C44.7342 9.68091 44.8239 9.4348 44.8683 9.31448C44.9448 9.10731 45.4521 7.72572 45.711 7.01909C45.7769 6.83951 45.8307 6.68263 45.8307 6.67044C45.8307 6.65827 45.0079 6.64832 44.0022 6.64832H42.1735L42.1037 6.84657C42.0653 6.95559 41.9082 7.42014 41.7546 7.87885C41.601 8.33757 40.8915 10.4541 40.178 12.5822C39.4644 14.7104 38.859 16.5179 38.8327 16.5989L38.7849 16.7461L38.6868 16.4622C38.6329 16.306 38.5146 15.9567 38.4239 15.6859C38.198 15.0115 37.7263 13.6156 37.1349 11.8713C36.8621 11.0666 36.5915 10.2668 36.5335 10.0938C36.0623 8.68915 35.3859 6.69956 35.3717 6.67659C35.36 6.65759 34.7575 6.64832 33.5345 6.64832C31.8125 6.64832 31.7157 6.65089 31.7332 6.69617ZM8.23094 9.61074C8.38886 9.64815 8.61035 9.71214 8.72315 9.75296C9.95984 10.2006 10.847 11.3062 11.143 12.7687C11.4011 14.0434 11.2453 15.4341 10.7322 16.4371C10.1695 17.5372 9.28198 18.2001 8.05319 18.4381C7.75535 18.4958 6.77893 18.4875 6.46719 18.4247C4.7242 18.0735 3.58609 16.6981 3.36364 14.6742C3.32803 14.3504 3.32877 13.6594 3.36506 13.3263C3.5707 11.4386 4.57093 10.12 6.13902 9.66953C6.25934 9.63497 6.45007 9.59215 6.56287 9.57434C6.67567 9.55654 6.78642 9.53757 6.80898 9.53215C6.83154 9.52674 7.09611 9.5269 7.39691 9.53251C7.86074 9.54115 7.98743 9.55304 8.23094 9.61074ZM62.7388 12.3583C62.1588 13.1238 61.8256 13.9577 61.7044 14.9476C61.5522 16.1895 61.8965 17.5518 62.6578 18.7204C63.5514 20.0922 64.9544 21.1454 66.6123 21.689C68.5223 22.3153 70.5154 22.203 72.2053 21.374C73.8772 20.5538 74.992 19.1374 75.3048 17.436C75.3873 16.987 75.4147 16.4261 75.3733 16.0307L75.3556 15.8614L75.1246 16.109C74.347 16.9424 73.2539 17.5718 72.0604 17.8735C69.4427 18.5351 66.5121 17.6916 64.6491 15.7404C63.8069 14.8581 63.2315 13.7982 62.9909 12.6852C62.9527 12.5088 62.9216 12.328 62.9216 12.2835C62.9216 12.239 62.9116 12.1965 62.8995 12.189C62.8874 12.1815 62.8151 12.2577 62.7388 12.3583Z" fill="#B38CFC"/>
</svg>
