<svg xmlns="http://www.w3.org/2000/svg" viewBox="0 0 133.8 43.6"><defs><style>.cls-1{fill:#2154e2;}.cls-2{fill-rule:evenodd;}</style></defs><g id="Layer_2" data-name="Layer 2"><g id="Layer_1-2" data-name="Layer 1"><path class="cls-1" d="M18.9,0l-4,2.3L4,8.6,0,10.9V32.7L4,35l11,6.3,4,2.3,4-2.3L33.8,35l4-2.3V10.9l-4-2.3L22.9,2.3ZM8,28.1V15.5L18.9,9.2l10.9,6.3V28.1L18.9,34.4Z"/><path class="cls-2" d="M55.5,29.4c-3.7,0-7.2-2.7-7.2-7.6a7.11,7.11,0,0,1,7.2-7.5,6.24,6.24,0,0,1,6.4,4.6l-1.9.7a4.27,4.27,0,0,0-4.5-3.4c-2.6,0-5.1,1.9-5.1,5.7s2.5,5.7,5.1,5.7a4.57,4.57,0,0,0,4.6-3.5l1.8.7A6.35,6.35,0,0,1,55.5,29.4Zm10.7-6.1v5.8H64.3V14.3h1.9v6.1a3.6,3.6,0,0,1,3-1.4c2.3,0,3.5,1.7,3.5,3.9v6.2H70.8V23.2c0-1.4-.6-2.5-2.3-2.5-1.5,0-2.2,1.2-2.3,2.6Zm9,3.2c0-1.8,1.3-2.7,3-3l2.7-.4c.6-.1.8-.4.8-.7,0-1-.6-1.8-2.1-1.8a2.06,2.06,0,0,0-2.2,2l-1.8-.4a3.77,3.77,0,0,1,4-3.2c2.9,0,4.1,1.7,4.1,3.6v4.9c0,.9.1,1.4.1,1.6H81.9a5.7,5.7,0,0,1-.1-1.3,3.53,3.53,0,0,1-3.2,1.6,3.11,3.11,0,0,1-3.4-2.9Zm3.5,1.3a2.56,2.56,0,0,0,2.8-2.9v-.4l-3,.5a1.45,1.45,0,0,0-1.4,1.5A1.48,1.48,0,0,0,78.7,27.8Zm9.7,1.3H86.5V19.3h1.9ZM86,15.6A1.4,1.4,0,1,1,87.4,17,1.5,1.5,0,0,1,86,15.6Zm7.5,7.8v5.7H91.6V19.3h1.9v1.4a3.42,3.42,0,0,1,3-1.7c2.3,0,3.5,1.7,3.5,3.9v6.2H98.1V23.2c0-1.4-.6-2.5-2.3-2.5-1.5,0-2.3,1.2-2.3,2.7ZM105,29.1h-1.9V14.3H105Zm5.2,0h-1.9V19.3h1.9v9.8Zm-2.3-13.5a1.4,1.4,0,1,1,1.4,1.4A1.5,1.5,0,0,1,107.9,15.6Zm7.5,7.8v5.7h-1.9V19.3h1.9v1.4a3.42,3.42,0,0,1,3-1.7c2.3,0,3.5,1.7,3.5,3.9v6.2H120V23.2c0-1.4-.6-2.5-2.3-2.5s-2.3,1.2-2.3,2.7Zm18.3-4.1-4.2,4.1,4.3,5.7h-2.4l-3.2-4.3-1.4,1.4v3h-1.9V14.3h1.9v9.3l4.2-4.4h2.7Z"/></g></g></svg>