<svg xmlns="http://www.w3.org/2000/svg" xmlns:xlink="http://www.w3.org/1999/xlink" viewBox="0 0 163.59 27"><defs><style>.cls-1{fill:url(#linear-gradient);}.cls-2{fill:url(#linear-gradient-2);}.cls-3{fill:#fff;}.cls-4{fill:#ff2d55;}.cls-5{fill:#fc9965;}.cls-6{fill:#ffbc5b;}.cls-7{fill:url(#linear-gradient-3);}.cls-8{fill:#ffc95b;}.cls-9{fill:#16141a;}</style><linearGradient id="linear-gradient" x1="-741.78" y1="707.6" x2="-742.49" y2="706.92" gradientTransform="matrix(27.53, 0, 0, -27, 20444.7, 19109.5)" gradientUnits="userSpaceOnUse"><stop offset="0" stop-color="#ff2d55"/><stop offset="1" stop-color="#ffbc5b"/></linearGradient><linearGradient id="linear-gradient-2" x1="-683.04" y1="679" x2="-683.04" y2="678" gradientTransform="matrix(8.6, 0, 0, -10.13, 5890.26, 6883.6)" gradientUnits="userSpaceOnUse"><stop offset="0" stop-color="#a524b3"/><stop offset="1" stop-color="#ff2d55"/></linearGradient><linearGradient id="linear-gradient-3" x1="-651.84" y1="662.26" x2="-651.84" y2="661.26" gradientTransform="matrix(6.31, 0, 0, -7.43, 4136.07, 4931.45)" xlink:href="#linear-gradient-2"/></defs><g id="Layer_2" data-name="Layer 2"><g id="Layer_1-2" data-name="Layer 1"><ellipse class="cls-1" cx="13.77" cy="13.5" rx="13.77" ry="13.5"/><path class="cls-2" d="M9.75,8.77V18.9h8.6Z"/><path class="cls-3" d="M1.15,18.9h8.6V8.77Z"/><path class="cls-4" d="M5.51,24.3A14,14,0,0,0,22,24.3Z"/><path class="cls-5" d="M2.75,21.6a14.12,14.12,0,0,0,2.76,2.7H22a14.12,14.12,0,0,0,2.76-2.7Z"/><path class="cls-6" d="M18.47,18.9H1.15a13.82,13.82,0,0,0,1.6,2.7H18.47V18.9Z"/><path class="cls-7" d="M18.47,14.18V21.6h6.31Z"/><path class="cls-3" d="M12.16,21.6h6.31V14.18Z"/><ellipse class="cls-8" cx="18.47" cy="8.77" rx="3.44" ry="3.38"/><ellipse class="cls-8" cx="9.75" cy="5.06" rx="1.72" ry="1.69"/><path class="cls-9" d="M37.06,6.5h5.52c4.45,0,7.09,2.62,7.09,7.22S47,21,42.58,21H37.06V6.5Zm2.66,2.19V18.82H42.3c3,0,4.65-1.78,4.65-5.09s-1.68-5-4.65-5Zm16.67,3.13a2.66,2.66,0,0,0-2.71,2.64H59A2.55,2.55,0,0,0,56.39,11.82ZM59,17.75h2.42c-.33,2-2.34,3.43-5,3.43-3.34,0-5.41-2.16-5.41-5.62s2.08-5.69,5.31-5.69,5.17,2.1,5.17,5.43v.83H53.65v.15a2.76,2.76,0,0,0,2.89,2.95A2.46,2.46,0,0,0,59,17.75Zm14.14-3.84H70.75a2.37,2.37,0,0,0-2.52-2c-1.7,0-2.8,1.39-2.8,3.6s1.11,3.62,2.81,3.62a2.32,2.32,0,0,0,2.52-1.94h2.43c-.22,2.41-2.15,4-5,4-3.28,0-5.41-2.16-5.41-5.67s2.12-5.64,5.38-5.64C71.15,9.87,73,11.65,73.18,13.91Zm6.43-2.09a2.66,2.66,0,0,0-2.71,2.64h5.35A2.55,2.55,0,0,0,79.61,11.82Zm2.65,5.93h2.42c-.33,2-2.34,3.43-5,3.43-3.34,0-5.41-2.16-5.41-5.62s2.08-5.69,5.31-5.69,5.17,2.1,5.17,5.43v.83h-7.9v.15a2.75,2.75,0,0,0,2.88,2.95,2.46,2.46,0,0,0,2.5-1.48ZM86.51,21V10H89v1.91h0a3.6,3.6,0,0,1,3.54-2c2.5,0,3.93,1.54,3.93,4.08v7H93.93V14.46A2.13,2.13,0,0,0,91.61,12a2.45,2.45,0,0,0-2.53,2.7V21H86.51ZM99.36,7.56h2.58V10h2.13V12h-2.14v5.8c0,.9.44,1.33,1.37,1.33a7.42,7.42,0,0,0,.76-.05V21a7.51,7.51,0,0,1-1.35.1c-2.4,0-3.35-.84-3.35-3V12H97.82V10h1.54V7.56ZM105.89,21V10h2.47v1.91h.06a2.66,2.66,0,0,1,2.7-2,3,3,0,0,1,.83.1v2.27a3.5,3.5,0,0,0-1.07-.14,2.28,2.28,0,0,0-2.41,2.51V21h-2.58Zm11.28-1.8a2.47,2.47,0,0,0,2.75-2.28V16.1l-2.59.16c-1.4.09-2.15.61-2.15,1.51S116,19.21,117.17,19.21Zm-.76,1.93c-2.22,0-3.81-1.32-3.81-3.28s1.54-3.07,4.38-3.25l2.94-.17v-.8c0-1.17-.81-1.8-2.19-1.8a2,2,0,0,0-2.18,1.48h-2.38c.06-2,2-3.45,4.64-3.45,2.82,0,4.65,1.43,4.65,3.61V21H120V19.24h-.06A3.93,3.93,0,0,1,116.41,21.14ZM124.7,21V5.82h2.58V21Zm8.94-1.8a2.47,2.47,0,0,0,2.75-2.28v-.84l-2.58.16c-1.41.1-2.15.62-2.15,1.51s.78,1.45,2,1.45Zm-.75,1.92c-2.23,0-3.82-1.31-3.82-3.27s1.54-3.07,4.38-3.25l2.94-.17v-.8c0-1.17-.81-1.8-2.19-1.8A2,2,0,0,0,132,13.32h-2.38c.06-2,2-3.45,4.64-3.45,2.82,0,4.65,1.43,4.65,3.61V21h-2.47V19.24h-.06a3.92,3.92,0,0,1-3.51,1.89Zm8.2-.12V10h2.47v1.91h.05a3.61,3.61,0,0,1,3.55-2c2.5,0,3.92,1.54,3.92,4.08v7h-2.57V14.46c0-1.57-.76-2.45-2.31-2.45a2.45,2.45,0,0,0-2.54,2.7V21Zm16.36.12c-2.82,0-4.7-2.2-4.7-5.62s1.89-5.61,4.69-5.61a3.74,3.74,0,0,1,3.51,2H161v-6h2.58V21h-2.52V19.14H161a3.8,3.8,0,0,1-3.56,2ZM158.2,12c-1.7,0-2.82,1.39-2.82,3.54s1.12,3.53,2.82,3.53,2.82-1.4,2.82-3.53S159.9,12,158.2,12Z"/></g></g></svg>