<svg xmlns="http://www.w3.org/2000/svg" viewBox="0 0 109.64 33.95"><defs><style>.cls-1{fill:#6aae22;}</style></defs><g id="Layer_2" data-name="Layer 2"><g id="Layer_1-2" data-name="Layer 1"><path class="cls-1" d="M28.36,30.16a8.37,8.37,0,0,1-5.76,3.57,10.36,10.36,0,0,1-8.55-1.89,6,6,0,0,1-2.39-4.55,66.72,66.72,0,0,1,0-8.83c.29-3.43,2.62-5.35,5.79-6.22a9.42,9.42,0,0,1,9.37,2,6.08,6.08,0,0,1,2,4.47c.05,1.35,0,2.7,0,4.05,0,1.08-.46,1.45-1.48,1.44-3.24,0-6.47,0-9.71,0-1.74,0-1.84.12-1.82,1.78a4.4,4.4,0,0,0,5.7,4A8.35,8.35,0,0,0,24.1,28.7c.55-.38.92-.52,1.51-.13.84.55,1.74,1,2.75,1.59Zm-8.23-9.33c1.15,0,2.29,0,3.44,0,.71,0,1-.25,1-1,.09-2.12-1.07-3.36-3.62-3.78s-5.11,1.29-5.15,3.59c0,.8.22,1.24,1.11,1.2C18,20.79,19.07,20.83,20.13,20.83Zm46.26,2c0,1,0,2,0,2.95.26,4-2.2,6.53-5.57,7.5a10.7,10.7,0,0,1-9.24-1.24,6.14,6.14,0,0,1-2.92-5.36c0-2.29,0-4.58,0-6.87,0-3.51,1.39-5.66,4.68-7a10.35,10.35,0,0,1,10.26,1,6.19,6.19,0,0,1,2.83,5.41v3.56Zm-4.2,0h0v-2.7c0-2.22-.93-3.45-3.12-3.85a8.4,8.4,0,0,0-3.16,0c-1.37.29-2.83.9-2.95,2.53a53.07,53.07,0,0,0,0,7.46,3.71,3.71,0,0,0,1.37,2.29,5,5,0,0,0,4.16,1c2.56-.42,3.74-1.84,3.73-4.43,0-.78,0-1.56,0-2.33Zm35.69.05c0,1-.06,2,0,2.94.32,4.18-2.27,6.56-5.48,7.37a11.81,11.81,0,0,1-8.51-.75,6.2,6.2,0,0,1-3.66-5.9c0-2.29-.07-4.57-.12-6.86A6.62,6.62,0,0,1,84,13.26,10.35,10.35,0,0,1,95.3,14a5.85,5.85,0,0,1,2.62,5.13c0,1.27,0,2.54,0,3.81Zm-4.24,0h0V20.07c0-2.27-.89-3.4-3.14-3.76a8.67,8.67,0,0,0-2.92,0c-2.23.38-3.21,1.64-3.22,3.9,0,1.88,0,3.76,0,5.64a3.2,3.2,0,0,0,1.46,2.81,5.65,5.65,0,0,0,4.43.94,3.74,3.74,0,0,0,3.42-4.14C93.64,24.61,93.64,23.75,93.64,22.89ZM31.4,17.14l-1.87-3.61a34,34,0,0,1,18.31,0c-.57,1.18-1.09,2.31-1.68,3.39-.08.16-.49.22-.72.18-1-.15-2.1-.33-3.14-.54s-1.48,0-1.47,1.22c.05,4.87,0,9.74,0,14.62,0,1.17-.32,1.58-1.52,1.53-3.13-.11-2.66.36-2.68-2.67,0-4.51-.06-9,0-13.52,0-1.09-.39-1.38-1.38-1.21-1.28.23-2.57.42-3.85.63ZM11.6,12.48a9.3,9.3,0,0,0-2.95,7.81c0,.62-.22,1-.86.84C5.34,20.67,3,19.89,1.35,17.91a5.33,5.33,0,0,1-.67-6.18A18.17,18.17,0,0,1,2.75,8.56C4.82,5.92,6.94,3.32,9.07.73a4.89,4.89,0,0,1,1-.73l.33.3c-.21.5-.44,1-.62,1.5A60.88,60.88,0,0,0,7.52,8.37c-.61,2.54.32,3.6,2.93,4C10.74,12.41,11,12.43,11.6,12.48ZM99.48,0c.31.16.72.23.91.48,2.68,3.36,5.36,6.71,8,10.13a5.78,5.78,0,0,1,1.2,4.62c-.58,3.13-2.92,4.49-5.62,5.38-2.43.8-2.54.74-2.8-1.73a9.26,9.26,0,0,0-3-6.33c.67-.13,1.17-.24,1.68-.33,2-.39,2.89-1.46,2.4-3.37-.64-2.48-1.6-4.87-2.43-7.3-.15-.42-.34-.81-.51-1.22L99.48,0ZM80,12.09c-.95,1.38-1.82,2.73-2.8,4-.26.34-.86.42-1.31.62a3.1,3.1,0,0,0-2.14,3.19c.08,4.17,0,8.35,0,12.52,0,1.08-.25,1.54-1.43,1.49-3.28-.11-2.76.43-2.79-2.81,0-3.68,0-7.36,0-11,0-3.91,1.55-6.16,5.26-7.46a10.16,10.16,0,0,1,5.23-.5Z"/></g></g></svg>