<svg xmlns="http://www.w3.org/2000/svg" viewBox="0 0 134.19 25.59"><defs><style>.cls-1{fill:#005ab2;fill-rule:evenodd;}</style></defs><g id="Layer_2" data-name="Layer 2"><g id="Layer_1-2" data-name="Layer 1"><path class="cls-1" d="M75.94,3.12c.71-1,1.93-2.41,3-2.41s1.93,1.87,2.31,3c2.31,6.81,4.46,13.66,6.65,20.47-5.51,2.06-6.36,1.65-7.86-3.26-.91-3-1.93-5.88-3.3-10-2.69,4.21-4.62,7.4-6.72,10.49-2,2.94-4,2.95-6,0S59.94,15.17,57.18,11c-1.26,4-2.35,6.69-3,9.5-.92,4.28-3.22,5.87-8.29,4.19,2.44-7.47,4.67-15,7.42-22.41,1.17-3.12,3.18-1.39,4.4.36C60.7,6.8,63.5,11.09,67,16.36,70.39,11.34,73.08,7.17,75.94,3.12Z"/><path class="cls-1" d="M37.56,6.62a43.72,43.72,0,0,1-7.09-2.27A21.4,21.4,0,0,0,22,3a17.74,17.74,0,0,0-8.91,2C6,8.92,6,16.82,13.15,20.82a17.9,17.9,0,0,0,18.11.08,16.37,16.37,0,0,0,4.32-3.27c1.65-1.58,2.53-3,0-3s-5,.05-7.58,0c-2.31-.06-4.61-.26-6.92-.4a1.56,1.56,0,0,1,0-1.71,2.1,2.1,0,0,1,2-.8c6.34-.13,12.69-.23,19,0,.74,0,2.27,2.75,1.9,3.41a18.08,18.08,0,0,1-5,6.17c-8.53,5.82-24.95,5.65-33.55,0-7.1-4.67-7.24-11.76-.34-16.65,9.23-6.54,26.15-6.11,35.2.9C40.57,6.8,39.67,7.16,37.56,6.62Z"/><path class="cls-1" d="M112,2.64c-8.41,0-15,4.58-14.84,10.4.16,5.6,6.88,10.23,14.76,10.16,7.53-.06,14.24-4.74,14.43-10.08C126.55,7.48,120,2.68,112,2.64M93.68,20.39C88.05,16.13,88,10,93.44,5.45c8.7-7.2,27.7-7.2,36.47,0,5.69,4.68,5.75,10.19-.07,14.83-5.29,4.2-11.6,5.54-18.26,5.28C105,25.78,98.93,24.37,93.68,20.39Z"/></g></g></svg>