<svg xmlns="http://www.w3.org/2000/svg" xmlns:xlink="http://www.w3.org/1999/xlink" viewBox="0 0 145.74 51.94"><defs><style>.cls-1{fill:#fff;fill-rule:evenodd;}.cls-2{fill:#d7272d;}.cls-3{mask:url(#mask);}</style><mask id="mask" x="0" y="1.21" width="133.06" height="50.27" maskUnits="userSpaceOnUse"><g id="prefix_b" data-name="prefix  b"><path id="prefix_a" data-name="prefix  a" class="cls-1" d="M0,1.21h133V51.49H0Z"/></g></mask></defs><g id="Layer_2" data-name="Layer 2"><g id="Layer_1-2" data-name="Layer 1"><path class="cls-2" d="M96.61,25.5c-.06,0-1.92-.61-2.39-1.39,0,0,1.65-1.93,2.53,1.39C96.76,25.53,96.67,25.53,96.61,25.5Zm-.21-4.36c-1.57-.32-3,2.09-3,2.09s-.23-.16-.28-.14-1.14,1.37-1.31,1.6c-1.68,2.25-3.37,2-3.38,2a4.55,4.55,0,0,1-4.22-2.82c-.7-1.5-.81-1.39-1-1.5s-1.17-.05-2.51,1.09-2.44,4.22-2.46,4.25c-1.65,5.35-2.42,5.22-3,5.2s-1.11-.72-1.61-1.67a13.09,13.09,0,0,1-.77-4.44c0-1,.1-1.39,0-1.38s-.32.38-.37.65a13.54,13.54,0,0,0,0,3.41c.09,1.78,1.25,5.09,2.85,5.09s2.25-2.33,2.4-2.71a42.1,42.1,0,0,1,1.76-5,3.17,3.17,0,0,1,3-2c.17.06,2,4.11,5,4.28a4.39,4.39,0,0,0,4.33-2.74,1.81,1.81,0,0,1,.58-.64c.07-.07.25.11.25.09.51.93,4.1,2.9,4.83,2.22a5,5,0,0,0,1.24-2.39c0-.33-.68-4.26-2.26-4.58Zm-32.13-6,0-.16h1.27a.92.92,0,0,0-.39-.5c-.17-.09-2.57-1.61-3.15-1.81,0,0-.46,2.79-.46,2.79s.59,0,.74.26A25.8,25.8,0,0,0,64,18.12a17.93,17.93,0,0,0,6.18,4.06A3,3,0,0,1,72,23.52s-1.6,1.34-2.94,2.27a101.93,101.93,0,0,1-9.27,5.63c-.09,0-2.57,1.22-3.2.13-.53-.93-.63-1.9.42-4.74,0,0,.31-.8.31-.8l.2-.85a10.67,10.67,0,0,0-1.48,3.35c-.46,1.19-1.07,4.33.05,5.41s2.25.69,4.3-.27C62.8,32.54,71,27.38,72.2,25.72a4,4,0,0,0,.63-2c0-.22.23-2.18-.63-3a6.38,6.38,0,0,0-2.07-1.4c-1.15-.58-4.21-2.17-5.41-3.65,0,0-.45-.46-.45-.46"/><path class="cls-2" d="M61.32,22.63l1.2-2.4L65,22l-1.21,2.49-2.47-1.86m-23.17,14,1.2-2.4L41.83,36l-1.21,2.49-2.47-1.86m4-.52,1.2-2.4,2.48,1.76L44.58,38l-2.47-1.86M73.63,18.9l1.21-2.41,2.48,1.77L76.1,20.75,73.63,18.9m4-.52L78.8,16l2.48,1.77-1.21,2.49L77.6,18.38M55.76,9.75l0-.22L57,9.59a.7.7,0,0,0-.21-.5c-.18-.2-2.71-2.55-2.71-2.55L53.29,9.3s.57.32.62.47A20.31,20.31,0,0,0,54.76,12c.28.46,1.81,3.22,2.11,3.64a2.14,2.14,0,0,1,.32,1.12.47.47,0,0,1-.1.18,9.29,9.29,0,0,1-3.68,1.32l-1.19,0-1.13,2.19s1.29.48,1.4.57a19.52,19.52,0,0,0,2.78,1.09,19.88,19.88,0,0,1,2.62.8,1,1,0,0,1,.6.75s-3.69,2.91-11.92,4.74c-.74.12-11.68,2.41-21.4-1.23a29.41,29.41,0,0,1-8-4.35c-.32-.31-2.9-2.65-2.9-2.65L12.89,18.7l.63,1.42s3.93,5.86,4.13,6.05,3.68,3.25,12.26,5.23c3.77.87,11.21.51,14.62-.08s11.68-2.86,14.27-5.9c.16-.2,1.45-2.65,1.37-3.32a1.68,1.68,0,0,0-1.1-1.66c-.47-.12-2.74-.75-3-.83a4.23,4.23,0,0,0,2.23-3.72,4.31,4.31,0,0,0-.51-2.73c-.12-.28-1.92-3.11-1.92-3.11l-.14-.3"/><path class="cls-2" d="M41.23,15l-1.35,2.17v.07s3.33,0,3.75.17,0,.34,0,.34-2.77,1.15-3.6,1.44a.42.42,0,0,0-.22.22,21.58,21.58,0,0,0,3.87-.55,11,11,0,0,0,2.23-2.77c.08-.21.08-.31,0-.36S45.44,15,43.5,15a11.46,11.46,0,0,0-2.27.07M59.69.7,41.26,6.93c-6.5,2.21-16,6.16-16,6.16l-1.36,2.4,17-6.4c.75-.29,17.71-6.28,17.71-6.28L59.69.7Zm9.09,2.43s-1-.94-1.21-1a.57.57,0,0,1-.25-.44c1-.71,1.45-.26,1.58.06a2.09,2.09,0,0,1-.12,1.42Zm.5.3c1.12-2.59.24-3.15,0-3.3-.52-.36-1.18.09-1.78.57a2.05,2.05,0,0,0-.94,2c.1.77,1.37,1.59,1.57,1.72h0l0,0a25,25,0,0,1-4.94,4.36c-1.41,1-5.2,3.6-5.2,3.6A9.15,9.15,0,0,0,59,12c.53-.25,3-1.65,5-2.87a21,21,0,0,0,4.48-4.4s.12.09.13.07c.43.19.89,1.13.89,1.13s0,.1.13-.09A5.4,5.4,0,0,0,70,4.26C70,4,69.28,3.43,69.28,3.43Zm14.31.06s-1-.94-1.2-1A.55.55,0,0,1,82.15,2c1-.71,1.42-.26,1.56,0A2.16,2.16,0,0,1,83.59,3.49Zm.49.3c1.11-2.58.24-3.14,0-3.29-.52-.36-1.17.09-1.77.57a2.06,2.06,0,0,0-.92,2c.09.76,1.35,1.58,1.56,1.71l0,0,0,0a25.22,25.22,0,0,1-4.9,4.33c-1.39,1-5.15,3.59-5.15,3.59a10.11,10.11,0,0,0,1-.41c.52-.25,2.94-1.64,5-2.85A20.9,20.9,0,0,0,83.35,5s.12.09.14.07c.42.19.88,1.12.88,1.12s0,.11.13-.08a5.34,5.34,0,0,0,.25-1.54c0-.28-.67-.82-.67-.82Zm41.67,5.89s-.83-.75-1-.83a.46.46,0,0,1-.2-.35c.81-.57,1.14-.21,1.25,0a1.72,1.72,0,0,1-.1,1.14Zm.4.24c.89-2.06.19-2.51,0-2.63-.42-.29-.94.07-1.42.45A1.65,1.65,0,0,0,124,9.3c.08.61,1.09,1.27,1.25,1.37h0l0,0a20.68,20.68,0,0,1-3.92,3.47c-1.11.75-4.12,2.87-4.12,2.87s.68-.26.78-.33c.41-.2,2.35-1.32,4-2.28a16.91,16.91,0,0,0,3.55-3.51s.09.07.1.05c.34.16.71.9.71.9s0,.09.1-.07a4.34,4.34,0,0,0,.2-1.23c0-.22-.53-.66-.53-.66ZM90.52,5.82v.32a3.52,3.52,0,0,0-1-.55s-.15-.06-.15-.09a7.14,7.14,0,0,1,.2-1.2.83.83,0,0,1,.37-.21c.07,0,1.32.51,1.9,2.87,0,0,.26,1.09.26,1.09l.08-.62s.27-2.61.32-2.86.31-.92.72-.92,1.11.68,1.11.68l-.35,1s-.57-.53-.79-.54c-.48,0-.56.77-.69,2.14a6.67,6.67,0,0,1-.29,1.89,3.3,3.3,0,0,1-.18.36A7.09,7.09,0,0,0,90.54,5.8l0,0Zm20.85,6.32v.32a3.49,3.49,0,0,0-1-.55s-.14-.06-.14-.09a6.25,6.25,0,0,1,.2-1.2.86.86,0,0,1,.36-.21c.07,0,1.33.51,1.9,2.87,0,0,.26,1.09.26,1.09l.08-.63s.27-2.61.32-2.85.32-.92.72-.93,1.12.69,1.12.69l-.35.95s-.57-.52-.8-.54c-.47,0-.56.77-.68,2.14a6.76,6.76,0,0,1-.3,1.89c-.09.21-.18.37-.18.37a7.16,7.16,0,0,0-1.45-3.35l0,0ZM91.25,16a.92.92,0,0,0-.33.22,7.86,7.86,0,0,0-1.25,2.84c-.43,1.8.55,2.12.55,2.12s.62.3,1.19-1.13a2.49,2.49,0,0,0,.2-.73s0-.19-.17,0-.23.58-.33.7-.2.2-.26.22-1,0-.69-1.45a13.47,13.47,0,0,1,.8-2.08s.29-.66.29-.66Zm-43,4.38a.93.93,0,0,0-.34.22,7.86,7.86,0,0,0-1.25,2.84c-.43,1.8.55,2.12.55,2.12s.63.3,1.19-1.13a2.5,2.5,0,0,0,.2-.72s0-.2-.16-.06-.23.58-.34.7-.19.2-.26.22-1,0-.69-1.45a14.59,14.59,0,0,1,.8-2.08s.3-.66.3-.66ZM99.6,8.81,91,11.9c-2.66,1-7.64,3.17-7.64,3.17l-.48,1.32s14.62-5.86,15.79-6.09C98.62,10.28,99.6,8.81,99.6,8.81Z"/><g class="cls-3"><path class="cls-2" d="M123.42,24.59a44.26,44.26,0,0,1-4.88,1.33s-1.08-3.49-1-3.75a2.27,2.27,0,0,1,1.25-1.27,5.23,5.23,0,0,1,3.8.45c1.5.75,3.91,1.8,4.13,1.85l.35.1-3.62,1.29Zm-21.27,1s-.09-.17,0-.23a1.15,1.15,0,0,1,1.29-.62,2.87,2.87,0,0,1,1.49,1.2s-2.08.19-2.74-.35Zm30.07-3.53a24.76,24.76,0,0,1-7.35-2.52c-3.31-1.72-5-1.26-5.09-1.25-3.22.82-3.28,4.43-3.25,4.9s.6,2.63.6,2.63-.27-.08-.31-.08c-2.39-1-3.91-3.61-4.15-4a57.33,57.33,0,0,0-6.57-8.16c-.39-.43-4-3.81-4-3.81l2.15-1.14a75.15,75.15,0,0,1,16.32-5.1c2.29-.31,2,1.26,1.87,1.41s-1.2,2-1.35,2.28a42.14,42.14,0,0,0-1.85,3.92c-.47,1.36-.29,1.7-.29,1.7s.44-.87.44-.91a58.31,58.31,0,0,1,3-5.61A8.27,8.27,0,0,0,124,2.32c.09-1.89-5-.79-5-.75a81,81,0,0,0-17.33,6.2l-.79,1.45L100.27,11s2.19,2.67,2.23,2.67a104,104,0,0,1,7,10.12c.08.29.26.58.11.76a11,11,0,0,1-2.53,1.07l-.2-.34c-3.33-6-6-1-6-.67-1,2,0,2.89,0,2.92,1.35,1.82,4.86.62,5,.77a4,4,0,0,1,.31.79c-4.62,5.05-9.48,6.25-10.32,6.32-4.86.34-4.58-3.74-4.42-5.16A32.74,32.74,0,0,1,92.6,26l-.45.43s-.06.13-.22.4a14.61,14.61,0,0,0-1.35,5.26c-.08,7.11,5.63,7,10.14,3.88s5.3-4.34,5.88-5.22a9.89,9.89,0,0,0,.69-2.87l1.78-.79a4.07,4.07,0,0,0,1.3-2.66,5,5,0,0,0-.32-2.79l0-.26a49.36,49.36,0,0,0,3.33,4.78c2.09,2.65,4.4,2.43,4.4,2.43l.16,1.71.2-.06s.07,0,.25-.43a5.81,5.81,0,0,0,.21-1.37s.59-.14.6-.13c2.22-.37,8-3.36,10.3-3.77a9,9,0,0,1,2.4,0l1.13-2.38a2.88,2.88,0,0,1-.83-.06ZM6.6,43.74a3,3,0,0,0-1.45-.34A2.83,2.83,0,0,0,4,43.64a3,3,0,0,0-1,.73,3.89,3.89,0,0,0-.72,1.21A5,5,0,0,0,2,47.29a4.34,4.34,0,0,0,.21,1.38,3.21,3.21,0,0,0,.58,1.1,2.69,2.69,0,0,0,.94.73A3,3,0,0,0,5,50.76l.36,0,.4,0,.35-.07a1,1,0,0,0,.24-.09,3.79,3.79,0,0,0,0-.38c0-.15,0-.31,0-.5,0-.67,0-1.16,0-1.48l0-.66.33,0,.59,0,.66,0,.34,0a1.83,1.83,0,0,0,0,.33,3.89,3.89,0,0,0,0,.51c0,.2,0,.4,0,.62s0,.43,0,.63V50c0,.21,0,.4,0,.58a2.92,2.92,0,0,0,0,.38,13.13,13.13,0,0,1-1.65.37,10.4,10.4,0,0,1-1.65.14,6.4,6.4,0,0,1-2-.28,4.5,4.5,0,0,1-1.55-.82,3.84,3.84,0,0,1-1-1.31A4,4,0,0,1,0,47.36a5.1,5.1,0,0,1,.39-2.07,4.14,4.14,0,0,1,1.08-1.48,4.59,4.59,0,0,1,1.63-.89,6.91,6.91,0,0,1,2-.3,6.06,6.06,0,0,1,1.63.2,6.23,6.23,0,0,1,1.35.56c-.06.21-.13.42-.19.63s-.11.42-.15.63H7.59A3.05,3.05,0,0,0,6.6,43.74Z"/></g><path class="cls-2" d="M17.3,45.74a3.54,3.54,0,0,0-.55-1.1,2.45,2.45,0,0,0-1.95-1,2.15,2.15,0,0,0-1.13.31,2.83,2.83,0,0,0-.85.84,4,4,0,0,0-.52,1.24,6.13,6.13,0,0,0-.18,1.51,5.88,5.88,0,0,0,.21,1.7,3,3,0,0,0,.57,1.12,2.18,2.18,0,0,0,.82.61,2.81,2.81,0,0,0,1,.19A2.49,2.49,0,0,0,15.78,51a2.53,2.53,0,0,0,.88-.73,3.93,3.93,0,0,0,.6-1.25,5.94,5.94,0,0,0,.23-1.79A5.06,5.06,0,0,0,17.3,45.74Zm-6.87,0a4.43,4.43,0,0,1,1-1.44,4.35,4.35,0,0,1,1.49-1,5.14,5.14,0,0,1,2-.36,6.06,6.06,0,0,1,1.84.28,4.06,4.06,0,0,1,1.48.83,4,4,0,0,1,1,1.4,5.07,5.07,0,0,1,.36,2,4.29,4.29,0,0,1-.35,1.76A4.38,4.38,0,0,1,16.7,51.6a5.06,5.06,0,0,1-1.9.34A6.87,6.87,0,0,1,13,51.7a4,4,0,0,1-1.49-.79,3.91,3.91,0,0,1-1-1.4,5,5,0,0,1-.37-2,4.44,4.44,0,0,1,.34-1.75Zm15,.51c.41-1.08.77-2.11,1.09-3.1a2.51,2.51,0,0,0,1.09,0c-.21.49-.46,1.09-.74,1.78l-.91,2.22c-.31.78-.62,1.57-.92,2.37s-.58,1.56-.82,2.27a4.39,4.39,0,0,0-.54,0,4.68,4.68,0,0,0-.55,0l-.45-1.22L22.09,49l-.64-1.65c-.22-.56-.44-1.11-.64-1.63s-.4-1-.59-1.47-.33-.84-.47-1.15l.57,0,.55,0,.54,0,.54,0c.14.47.3,1,.48,1.48L23,46.21c.19.54.39,1.09.59,1.63s.4,1.08.58,1.61c.43-1.06.85-2.13,1.25-3.21Zm3.3-1.47c0-.55,0-1.09-.08-1.63.38,0,.74,0,1.11,0l1.1,0,1.63,0,.95,0a2.53,2.53,0,0,0,0,.53,2.73,2.73,0,0,0,0,.31c0,.08,0,.16,0,.25l-.79,0-.83,0-.72,0h-.46c0,.46-.05.92-.06,1.37v1.37l1.45,0,1.35-.06c0,.14,0,.25,0,.33a1.77,1.77,0,0,0,0,.24,1.5,1.5,0,0,0,0,.2c0,.07,0,.18,0,.31-.94-.07-1.87-.11-2.8-.11,0,.26,0,.53,0,.8s0,.54,0,.8c0,.55,0,1.07,0,1.57q.7,0,1.41,0c.47,0,.95-.06,1.42-.12a2.42,2.42,0,0,0,0,.25,2.45,2.45,0,0,0,0,.32,2.41,2.41,0,0,0,0,.31c0,.08,0,.14,0,.19l-.82,0H28.87l-.24,0c0-.52.05-1.05.07-1.59s0-1.16,0-1.86V46.62C28.72,45.92,28.71,45.31,28.7,44.77Zm10-.15a1.05,1.05,0,0,0-.34-.49,1.2,1.2,0,0,0-.6-.22,5.51,5.51,0,0,0-.87,0c0,1.14,0,2.27,0,3.42l.14,0h.13a1.66,1.66,0,0,0,1.24-.44,1.88,1.88,0,0,0,.44-1.36A3,3,0,0,0,38.69,44.62Zm-1.84,3.2v.52c0,.69,0,1.31,0,1.85s0,1.07.08,1.59a3.33,3.33,0,0,0-.46,0H35.38a3.23,3.23,0,0,0-.46,0c0-.52.06-1.05.07-1.59s0-1.16,0-1.86V46.62c0-.69,0-1.31,0-1.85s0-1.09-.07-1.63l.46,0a4.7,4.7,0,0,0,.55,0l.76,0c.29,0,.64,0,1.06,0l.81,0c.22,0,.41.05.57.08a2.08,2.08,0,0,1,.42.13,1.9,1.9,0,0,1,.34.2,1.93,1.93,0,0,1,.59.68,2,2,0,0,1,.22,1,2.21,2.21,0,0,1-.5,1.5,2.66,2.66,0,0,1-1.42.82c.39.71.82,1.42,1.27,2.13l1.36,2.11a5.25,5.25,0,0,0-.56,0H39.74a5.44,5.44,0,0,0-.57,0l-2.21-4Zm5.8-3.64c0-.39,0-.74,0-1a3.35,3.35,0,0,0,.55.06,3.45,3.45,0,0,0,.56-.06l2.67,3c.87,1,1.78,2,2.7,3V45.6c0-.4,0-.77,0-1.1s0-.63,0-.87,0-.41,0-.49a3.35,3.35,0,0,0,.56.06,3.46,3.46,0,0,0,.55-.06c0,.76-.08,1.45-.1,2.07S50,46.4,50,47s0,1.08,0,1.62,0,1.1,0,1.7v1.51a4.07,4.07,0,0,0-.5,0,3.48,3.48,0,0,0-.49,0q-2.53-3-5.4-6.08c0,.25,0,.49,0,.73s0,.49,0,.75v1.45c0,.51,0,.93,0,1.29s0,.65,0,.89,0,.44,0,.6,0,.28,0,.37a1.53,1.53,0,0,0-.3,0H43a5.44,5.44,0,0,0-.57,0,5.41,5.41,0,0,0,.06-.72c0-.41,0-.91.08-1.5s.06-1.23.08-1.93,0-1.35,0-2,0-1.06,0-1.46ZM52.88,49l-.2,2.82a1.43,1.43,0,0,0-.29,0h-.58l-.29,0c.26-1.44.5-2.88.71-4.3s.39-2.87.56-4.34l.26,0a1.51,1.51,0,0,0,.49,0l.26,0c.22.5.45,1,.7,1.53l.72,1.56L56,47.74l.7,1.41c.5-.94,1-1.92,1.48-2.95s1-2.05,1.4-3.06a2.86,2.86,0,0,0,.53.06,2.76,2.76,0,0,0,.52-.06l.27,2.33.28,2.43q.13,1.18.27,2.22c.09.69.17,1.24.25,1.66l-.5,0h-1a4.41,4.41,0,0,0-.52,0c0-.86-.11-1.8-.21-2.81s-.19-2-.29-3h0L57.72,48.9q-.69,1.44-1.35,2.88l-.12,0H56l-.12,0c-.45-.94-.89-1.88-1.33-2.82s-.9-1.89-1.37-2.85h0q-.2,1.44-.3,2.85ZM63,44.77c0-.54,0-1.09-.08-1.63l1.11,0,1.1,0c.61,0,1.15,0,1.62,0l1,0a2.44,2.44,0,0,0,0,.53,2.28,2.28,0,0,0,0,.31l0,.25-.78,0-.83,0-.72,0H65c0,.46,0,.92-.06,1.37v1.37l1.45,0,1.35-.06c0,.15,0,.25,0,.33a1.77,1.77,0,0,0,0,.24.82.82,0,0,0,0,.21c0,.07,0,.17,0,.3-.94-.07-1.87-.11-2.8-.11,0,.27,0,.53,0,.8s0,.54,0,.8c0,.55,0,1.07,0,1.57q.7,0,1.41,0c.47,0,.94-.06,1.42-.12,0,.09,0,.18,0,.25a2.82,2.82,0,0,0,0,.32,2.63,2.63,0,0,0,0,.31c0,.08,0,.14,0,.19l-.82,0H63.2l-.24,0c0-.52.06-1.05.08-1.59s0-1.16,0-1.86V46.62c0-.69,0-1.31,0-1.85Zm6.4-.59c0-.39,0-.74,0-1a3.45,3.45,0,0,0,.56.06,3.57,3.57,0,0,0,.56-.06l2.66,3,2.71,3V46.81c0-.41,0-.82,0-1.21s0-.77,0-1.1,0-.63,0-.87a3.17,3.17,0,0,0,0-.49,3.45,3.45,0,0,0,.56.06,3.57,3.57,0,0,0,.56-.06c0,.76-.08,1.45-.11,2.07s0,1.19-.06,1.74,0,1.08,0,1.62v3.21a4.36,4.36,0,0,0-.51,0,3.43,3.43,0,0,0-.48,0q-2.55-3-5.4-6.08l0,.73v3.49c0,.35,0,.65,0,.89s0,.44,0,.6,0,.28,0,.37a1.53,1.53,0,0,0-.3,0h-.28a5.44,5.44,0,0,0-.57,0,5.41,5.41,0,0,0,.06-.72c0-.41,0-.91.08-1.5s0-1.23.07-1.93,0-1.35,0-2S69.46,44.58,69.44,44.18Zm11,.35a3.43,3.43,0,0,0,0-.44h-.46l-.58,0-.63,0-.6.06a2.56,2.56,0,0,0,.05-.27c0-.1,0-.19,0-.28s0-.18,0-.28a2.56,2.56,0,0,0-.05-.27l.77,0,.69,0,.76,0h2l.76,0,.68,0,.7,0c0,.09,0,.18,0,.27s0,.19,0,.28,0,.18,0,.28,0,.18,0,.27l-.55-.06-.61,0-.58,0h-.46s0,.1,0,.17a2.26,2.26,0,0,0,0,.27v3.8c0,.7,0,1.32,0,1.86s0,1.07.08,1.59a3.23,3.23,0,0,0-.46,0H80.8a3.23,3.23,0,0,0-.46,0c0-.52.06-1.05.07-1.59s0-1.16,0-1.85V45.19C80.44,45,80.43,44.73,80.43,44.53Zm15.4,1.21a3.65,3.65,0,0,0-.55-1.1,2.42,2.42,0,0,0-.86-.7,2.36,2.36,0,0,0-1.09-.25A2.15,2.15,0,0,0,92.2,44a2.83,2.83,0,0,0-.85.84,3.77,3.77,0,0,0-.52,1.24,6.15,6.15,0,0,0-.18,1.52,5.85,5.85,0,0,0,.21,1.69,3.17,3.17,0,0,0,.56,1.12,2.29,2.29,0,0,0,.83.61,2.81,2.81,0,0,0,1,.19A2.49,2.49,0,0,0,94.31,51a2.43,2.43,0,0,0,.88-.73,3.83,3.83,0,0,0,.6-1.25A5.92,5.92,0,0,0,96,47.21,5.09,5.09,0,0,0,95.83,45.74Zm-6.87,0a4.3,4.3,0,0,1,2.45-2.4,5.14,5.14,0,0,1,2-.36,6.11,6.11,0,0,1,1.84.28,4.21,4.21,0,0,1,1.48.83,4,4,0,0,1,1,1.4,5.09,5.09,0,0,1,.36,2,4.36,4.36,0,0,1-.35,1.76,4.4,4.4,0,0,1-1,1.42,4.18,4.18,0,0,1-1.49,1,5.1,5.1,0,0,1-1.9.34,6.87,6.87,0,0,1-1.84-.24A3.88,3.88,0,0,1,90,50.91a3.82,3.82,0,0,1-1-1.4,5,5,0,0,1-.37-2A4.44,4.44,0,0,1,89,45.73Zm10.48-1c0-.54,0-1.09-.07-1.63l1.1,0,1.1,0c.61,0,1.15,0,1.63,0l1,0a1.94,1.94,0,0,0,0,.53,2.63,2.63,0,0,0,0,.31c0,.08,0,.16,0,.25l-.79,0-.83,0-.72,0h-.46c0,.46,0,.92-.06,1.37v1.37l1.45,0,1.35-.06c0,.15,0,.25,0,.33v.24a1.62,1.62,0,0,0,0,.21c0,.07,0,.17,0,.3-.93-.07-1.87-.11-2.8-.11v.64c0,.7,0,1.32,0,1.86s0,1.07.07,1.59a3.19,3.19,0,0,0-.45,0H99.82a3.19,3.19,0,0,0-.45,0c0-.52,0-1.05.07-1.59s0-1.16,0-1.86V46.62c0-.69,0-1.31,0-1.85ZM111,49.26V50c0,.24,0,.46,0,.67v.39l.45,0h.64a2.75,2.75,0,0,0,2.22-1,4.49,4.49,0,0,0,.81-2.93,4.34,4.34,0,0,0-.2-1.4,3.3,3.3,0,0,0-.57-1.05,2.59,2.59,0,0,0-.9-.67,2.86,2.86,0,0,0-1.16-.23l-.72,0-.57,0c0,.06,0,.19,0,.39v4.95Zm-1.86-4.49c0-.54,0-1.09-.07-1.63l.45,0a4.88,4.88,0,0,0,.56,0l.92,0c.33,0,.78,0,1.32,0a8.83,8.83,0,0,1,1.93.19,4,4,0,0,1,1.51.66,3,3,0,0,1,1,1.25,4.83,4.83,0,0,1,.35,2,4.92,4.92,0,0,1-.34,1.88,4.26,4.26,0,0,1-.93,1.44,3.92,3.92,0,0,1-1.36.91,4.29,4.29,0,0,1-1.65.32c-.62,0-1.15,0-1.58,0h-1.7a3.44,3.44,0,0,0-.46,0c0-.52.06-1.05.08-1.59s0-1.16,0-1.86V46.62C109.19,45.93,109.18,45.31,109.17,44.77Zm11.93,7a3.12,3.12,0,0,1-1.19-.56,2.89,2.89,0,0,1-.8-1,3.65,3.65,0,0,1-.29-1.52c0-.33,0-.63,0-.9s0-.51,0-.73,0-.45,0-.66,0-.42,0-.65c0-.68,0-1.23,0-1.65s0-.73,0-.94l.51,0a4.26,4.26,0,0,0,.5,0,4.43,4.43,0,0,0,.51,0l.5,0c-.08.81-.13,1.57-.15,2.27s0,1.41,0,2.13a8.46,8.46,0,0,0,.16,1.85,2.58,2.58,0,0,0,.47,1.08,1.46,1.46,0,0,0,.77.51,3.8,3.8,0,0,0,1.06.13,1.67,1.67,0,0,0,1.16-.38,2.43,2.43,0,0,0,.64-1,5.52,5.52,0,0,0,.26-1.44c0-.54,0-1.11,0-1.7s0-1.15,0-1.72,0-1.15-.07-1.73l.34,0a2.34,2.34,0,0,0,.61,0l.31,0c0,.18,0,.43-.06.74s0,.67,0,1.08,0,.85,0,1.34,0,1,0,1.56a4.4,4.4,0,0,1-.92,3.13,3.6,3.6,0,0,1-2.72.95A5.81,5.81,0,0,1,121.1,51.77Zm10.83-3.7a1.42,1.42,0,0,0-1.12-.43h-.53c0,.17,0,.35,0,.54s0,.41,0,.68,0,.4,0,.61,0,.41,0,.62v.55c0,.17,0,.31,0,.42l.32,0H131a1.13,1.13,0,0,0,.51-.12,1.16,1.16,0,0,0,.44-.33,1.8,1.8,0,0,0,.29-.53,2.35,2.35,0,0,0,.11-.74,1.93,1.93,0,0,0-.39-1.32Zm.24-3.32a1.11,1.11,0,0,0-.23-.46,1.09,1.09,0,0,0-.41-.31,1.4,1.4,0,0,0-.62-.12h-.37l-.23,0c0,.31,0,.62,0,.94s0,.58,0,.8,0,.44,0,.64,0,.42,0,.64h.55a1.29,1.29,0,0,0,.51-.1,1.37,1.37,0,0,0,.45-.3,1.46,1.46,0,0,0,.33-.49,1.9,1.9,0,0,0,.12-.7,2.2,2.2,0,0,0-.07-.58Zm-3.76,0c0-.54,0-1.09-.08-1.63l.46,0a4.7,4.7,0,0,0,.55,0l1.12,0,1.11,0a4.62,4.62,0,0,1,1,.11,2.29,2.29,0,0,1,.79.35,1.6,1.6,0,0,1,.52.6,2,2,0,0,1,.17.89,1.76,1.76,0,0,1-.21.88,2.23,2.23,0,0,1-.51.62,2.75,2.75,0,0,1-.66.38,3.42,3.42,0,0,1-.64.19v0a2.72,2.72,0,0,1,1.39.5,2.31,2.31,0,0,1,.59.65,1.86,1.86,0,0,1,.24,1,2.58,2.58,0,0,1-.24,1.16,2.25,2.25,0,0,1-.65.78,2.35,2.35,0,0,1-.92.42,4.68,4.68,0,0,1-1.07.12c-.33,0-.64,0-.92,0h-1.58a4.17,4.17,0,0,0-.56,0c0-.52.06-1.05.08-1.59s0-1.16,0-1.86V46.62c0-.69,0-1.31,0-1.85Zm9.71.73c-.21.5-.41,1-.6,1.49s-.38,1-.56,1.5h2.26q-.27-.77-.54-1.5c-.17-.49-.36-1-.56-1.49Zm4.38,6.28-.56,0h-1.06a4.53,4.53,0,0,0-.52,0L140,50.52c-.14-.43-.29-.86-.44-1.29l-.79,0h-1.44l-.64,0c-.17.43-.32.86-.46,1.29s-.27.85-.38,1.26l-.29,0h-.59l-.32,0,.4-.91.54-1.31.64-1.56c.22-.56.45-1.12.68-1.69l.66-1.69c.22-.56.42-1.07.6-1.55l.24,0,.23,0,.24,0,.23,0,.85,2.29c.3.82.6,1.62.91,2.4s.6,1.53.89,2.23.55,1.3.79,1.79Zm1.29-7c0-.54,0-1.09-.07-1.63l.46,0a4.7,4.7,0,0,0,.55,0,4.88,4.88,0,0,0,.56,0l.45,0c0,.54-.05,1.09-.07,1.63s0,1.16,0,1.85v1.71c0,.7,0,1.32,0,1.86s0,1.07.07,1.59a3.19,3.19,0,0,0-.45,0h-1.12a3.09,3.09,0,0,0-.45,0c0-.52.05-1.05.07-1.59s0-1.16,0-1.86V46.62c0-.69,0-1.31,0-1.85Z"/></g></g></svg>