<svg id="Layer_1" data-name="Layer 1" xmlns="http://www.w3.org/2000/svg" viewBox="0 0 500 150"><title>HH_Logotype_stacked</title><polygon points="184.1 98.8 159 98.8 159 80.7 152.6 80.7 152.6 123.3 159 123.3 159 104.8 184.1 104.8 184.1 123.3 190.5 123.3 190.5 80.7 184.1 80.7 184.1 98.8"/><path d="M221.8,108.3c0,5.8-3.8,10-9.1,10-5.5,0-9.4-4.1-9.4-10s3.9-10,9.4-10c5.3,0,9.1,4.3,9.1,10m-.1-10.8a11.75,11.75,0,0,0-10-4.8c-7.2,0-14.6,5.4-14.6,15.6,0,9.2,6,15.6,14.6,15.6a11.83,11.83,0,0,0,10-4.9v4.2h6V93.4h-6Z"/><path d="M251.8,105.4l-2.7-.3c-1.2-.1-2.2-.2-3.6-.4-4.2-.5-4.7-2.2-4.7-3.5,0-2.1,2.4-3.4,6.4-3.4,5.2,0,7.3,2.5,8,3.3l.1.1h6.3l-.1-.4c-.8-2.5-3.8-8.3-14.3-8.3-7.4,0-12.3,3.5-12.3,8.8,0,5.1,3.5,8.3,9.9,9l6.3.7c4.1.5,4.9,1.9,4.9,3.8,0,2.3-2.7,3.8-7.1,3.8-6,0-8.2-3.2-8.5-4l-.1-.2h-6.4l.1.4c.1.4,2.4,9.2,14.9,9.2,7.8,0,13.1-3.7,13.1-9.1s-3.3-8.6-10.2-9.5"/><path d="M284.3,92.8a11.28,11.28,0,0,0-9.6,5.2V79.1h-6v44.1h6V107.1c0-5.3,3.3-8.8,8.3-8.8s8,3.4,8,8.8v16.1h6.1V106.1c-.1-7.8-5.3-13.3-12.8-13.3"/><path d="M319.3,118.4c-5.5,0-9.5-4.2-9.5-10s3.9-10.1,9.5-10.1,9.4,4.1,9.4,10.1-4,10-9.4,10m9.3-20.9a12.28,12.28,0,0,0-10.3-4.8c-8.7,0-14.7,6.4-14.7,15.7s6.1,15.6,14.7,15.6a12.51,12.51,0,0,0,10.3-4.9v3.8c0,5.5-3.5,8.7-9.6,8.7-4.1,0-7.2-1.5-8.7-4.1l-.1-.2h-6.5l.1.4c.1.4,2.6,9.5,15.2,9.5,9.6,0,15.6-5.5,15.6-14.3V93.4h-6Z"/><path d="M349.6,97.8V93.5h-6v29.8h6V106.5c0-5.2,2.7-7.2,9.7-7.2h7.8v-6h-7.6c-6-.1-8.7,2.5-9.9,4.5"/><path d="M394.8,108.3c0,5.8-3.8,10-9.1,10-5.5,0-9.4-4.1-9.4-10s3.9-10,9.4-10c5.2,0,9.1,4.3,9.1,10m-.1-10.8a12.14,12.14,0,0,0-10-4.8c-7.2,0-14.5,5.4-14.5,15.6,0,9.2,6,15.6,14.5,15.6a11.83,11.83,0,0,0,10-4.9v4.2h6V93.4h-6Z"/><path d="M425,98.3c5.6,0,9.5,4.1,9.5,10s-3.9,10-9.5,10-9.5-4.1-9.5-10,3.9-10,9.5-10m1-5.6a12.51,12.51,0,0,0-10.3,4.9V93.4h-6v43.1h6V119.3A13.68,13.68,0,0,0,426,124c8.6,0,14.7-6.4,14.7-15.6s-6-15.7-14.7-15.7"/><path d="M463.1,92.8a11.28,11.28,0,0,0-9.6,5.2V79.1h-6v44.1h6V107.1c0-5.3,3.3-8.8,8.3-8.8s8,3.4,8,8.8v16.1h6.1V106.1c0-7.8-5.3-13.3-12.8-13.3"/><polygon points="184.1 43.3 159 43.3 159 25.2 152.6 25.2 152.6 67.8 159 67.8 159 49.3 184.1 49.3 184.1 67.8 190.5 67.8 190.5 25.2 184.1 25.2 184.1 43.3"/><path d="M212.5,42.5c4.2,0,7.1,2.2,8.5,6.2H203.9a8.43,8.43,0,0,1,8.6-6.2m0-5.3c-8.6,0-15.1,6.7-15.1,15.6a15.24,15.24,0,0,0,15,15.6h.7c10.3,0,13.9-6.9,14.3-9.3l.1-.4h-5.9l-.1.2c-.1.2-2,3.9-8.4,3.9a9.42,9.42,0,0,1-9.6-9h24.3v-.4c-.1-9.5-6.3-16.2-15.3-16.2"/><path d="M248.2,62.9c-5.6,0-9.5-4.1-9.5-10s3.9-10,9.5-10,9.4,4.1,9.4,10-3.9,10-9.4,10M257.5,42a12.47,12.47,0,0,0-10.3-4.7c-8.7,0-14.7,6.4-14.7,15.6s6.1,15.6,14.7,15.6a12.21,12.21,0,0,0,10.3-5v4.3h6V23.6h-6Z"/><path d="M285.7,42.5c4.2,0,7.1,2.2,8.5,6.2H277.1a8.59,8.59,0,0,1,8.6-6.2m0-5.3c-8.6,0-15.1,6.7-15.1,15.6a15.24,15.24,0,0,0,15,15.6h.7c10.3,0,13.9-6.9,14.3-9.3l.1-.4h-5.9l-.1.2c-.1.2-2,3.9-8.4,3.9a9.42,9.42,0,0,1-9.6-9H301v-.4c-.1-9.5-6.3-16.2-15.3-16.2"/><path d="M313.8,42.3V38h-6V67.8h6V51c0-5.2,2.7-7.2,9.7-7.2h7.8v-6h-7.6c-6.1-.1-8.7,2.5-9.9,4.5"/><path d="M358,52.9c0,5.8-3.8,10-9.1,10-5.5,0-9.4-4.1-9.4-10s3.9-10,9.4-10c5.3,0,9.1,4.2,9.1,10M357.9,42a11.75,11.75,0,0,0-10-4.8c-7.2,0-14.6,5.4-14.6,15.6,0,9.2,6,15.6,14.6,15.6a11.67,11.67,0,0,0,10-5v4.2h6V37.9h-6Z"/><polygon points="369.8 38.8 371.4 38.8 371.4 42.6 372 42.6 372 38.8 373.7 38.8 373.7 38.3 369.8 38.3 369.8 38.8"/><polygon points="378.4 38.3 377 41.7 375.6 38.3 374.6 38.3 374.6 42.6 375.2 42.6 375.2 38.8 376.8 42.6 377.2 42.6 378.8 38.9 378.8 42.6 379.4 42.6 379.4 38.3 378.4 38.3"/><rect x="51.23" y="70.85" width="28.29" height="7.22"/><path d="M65.38,24.2a50.27,50.27,0,1,0,50.26,50.26A50.26,50.26,0,0,0,65.38,24.2M86.14,97H79.52V82.89H51.23V97H44.61V51.89h6.62V66H79.52V51.89h6.62Z"/></svg>