<svg xmlns="http://www.w3.org/2000/svg" viewBox="0 0 122 32.53"><defs><style>.cls-1{fill:#333;}.cls-2{fill:#004b6a;}</style></defs><g id="Layer_2" data-name="Layer 2"><g id="Layer_1-2" data-name="Layer 1"><path class="cls-1" d="M16.27,0A16.26,16.26,0,1,1,0,16.09,16.27,16.27,0,0,1,16.27,0Zm.34,1.18a15.08,15.08,0,1,0-.34,30.15,14.64,14.64,0,0,0,10.62-4.39,14.69,14.69,0,0,0,4.4-12A14.53,14.53,0,0,0,27,5.63,14.74,14.74,0,0,0,16.61,1.18Z"/><path class="cls-2" d="M30.88,14.67a14.08,14.08,0,0,0-4.17-8.75A14.29,14.29,0,0,0,16.23,1.56a14.7,14.7,0,0,0-.1,29.4,14.18,14.18,0,0,0,10.49-4.28A14.24,14.24,0,0,0,30.88,14.67ZM22.62,4.82a.45.45,0,0,1,.3.78.45.45,0,0,1-.76-.34A.45.45,0,0,1,22.62,4.82Zm-2-.93a.45.45,0,0,1,.45.46.44.44,0,0,1-.45.43.42.42,0,0,1-.32-.13.41.41,0,0,1-.12-.32A.44.44,0,0,1,20.61,3.89Zm-2.12-.58a.52.52,0,0,1,.45.44.49.49,0,0,1-.49.46A.45.45,0,0,1,18,3.75.46.46,0,0,1,18.49,3.31Zm-2.22-.18a.46.46,0,0,1,.45.44.45.45,0,0,1-.45.45.46.46,0,0,1-.45-.44A.45.45,0,0,1,16.27,3.13Zm-2.19.18a.49.49,0,0,1,.44.44.45.45,0,0,1-.14.33.5.5,0,0,1-.33.12.44.44,0,0,1-.31-.13.48.48,0,0,1-.13-.32.46.46,0,0,1,.46-.44Zm-2.15.58a.43.43,0,0,1,.44.45.39.39,0,0,1-.12.31.44.44,0,0,1-.32.13.42.42,0,0,1-.33-.13.45.45,0,0,1,.33-.76Zm-2,.93a.47.47,0,0,1,.41.22.43.43,0,0,1,0,.46.45.45,0,0,1-.83-.23A.46.46,0,0,1,9.92,4.82ZM8.12,6.09a.45.45,0,0,1,.44.45A.45.45,0,0,1,8.12,7a.45.45,0,0,1-.32-.12.44.44,0,0,1-.13-.32.45.45,0,0,1,.12-.33A.51.51,0,0,1,8.12,6.09ZM6.56,7.65A.46.46,0,0,1,7,8.11a.45.45,0,0,1-.46.44.45.45,0,1,1,0-.9ZM5.28,9.47a.42.42,0,0,1,.32.13.45.45,0,0,1-.31.77.47.47,0,0,1-.46-.46.45.45,0,0,1,.45-.44Zm-.93,2a.43.43,0,0,1,.32.14.46.46,0,0,1,.13.33.45.45,0,0,1-.47.41.44.44,0,1,1,0-.88ZM3.77,13.6a.47.47,0,0,1,.46.46.45.45,0,0,1-.77.31.45.45,0,0,1-.12-.31.43.43,0,0,1,.43-.45Zm-.64,2.67a.46.46,0,0,1,.45-.46.46.46,0,0,1,.31.13.47.47,0,0,1,.14.31.48.48,0,0,1-.14.34.44.44,0,0,1-.33.13A.47.47,0,0,1,3.13,16.27Zm.21,2.2A.44.44,0,0,1,3.78,18a.47.47,0,0,1,.46.46.45.45,0,0,1-.46.43.42.42,0,0,1-.32-.13.41.41,0,0,1-.12-.32Zm1,2.58a.45.45,0,0,1-.46-.44.47.47,0,0,1,.46-.46.47.47,0,0,1,.44.45.45.45,0,0,1-.45.44Zm.93,2a.47.47,0,0,1-.45-.45A.44.44,0,0,1,5,22.29a.49.49,0,0,1,.33-.13.46.46,0,0,1,.31.13.44.44,0,0,1,.13.32.45.45,0,0,1-.14.32.41.41,0,0,1-.32.12Zm0-3.51,0-.08h4.76c1.23,0,1.23,0,1.23-1.25,0-1,0-2.08,0-3.13,0-.34,0-.5.46-.48.89,0,1.79,0,2.68,0,.32,0,.42.1.42.4,0,1.75,0,3.5,0,5.26,0,.33-.1.5-.45.47H14.1c-.41,0-.54-.12-.54-.51,0-1.27,0-2.53,0-3.8,0-.34-.11-.51-.49-.51s-.49.12-.49.49c0,1.27,0,2.53,0,3.8,0,.42-.13.53-.53.53-1.28,0-2.57.05-3.84,0a6.25,6.25,0,0,1-1.76-.61c-.4-.15-.79-.36-1.19-.54Zm1.32,5.33a.49.49,0,0,1-.37-.12.51.51,0,0,1-.15-.36.5.5,0,0,1,.48-.46.47.47,0,0,1,0,.93Zm1.5,1.55a.41.41,0,0,1-.31-.14A.38.38,0,0,1,7.68,26a.45.45,0,0,1,.45-.44.46.46,0,0,1,.44.45.43.43,0,0,1-.14.32.41.41,0,0,1-.33.12ZM9.94,27.7a.44.44,0,0,1-.45-.44.44.44,0,0,1,.45-.47.46.46,0,0,1,.44.45.42.42,0,0,1-.13.32.39.39,0,0,1-.32.13Zm2,.93a.47.47,0,0,1-.34-.13.43.43,0,0,1-.14-.32.46.46,0,0,1,.46-.44.44.44,0,0,1,.44.44.43.43,0,0,1-.12.32.46.46,0,0,1-.31.13Zm-1.7-6.78c-.4-.16-.78-.36-1.16-.54l0-.13h6.09c.94,0,.82.09.82-.83,0-2.72,0-5.45,0-8.17,0-.44.13-.58.58-.56.86,0,1.73,0,2.6,0,.31,0,.45.08.45.41V22.14c0,.36-.15.48-.48.42a1.41,1.41,0,0,0-.35,0c-.55,0-.56,0-.56-.56V13.61c0-.23.09-.53-.29-.59s-.58,0-.58.5V22c0,.57,0,.58-.59.58-1.47,0-2.94,0-4.42,0a5.18,5.18,0,0,1-2.16-.73Zm3.83,7.35a.44.44,0,0,1-.33-.13.43.43,0,0,1-.14-.32.46.46,0,0,1,.46-.45.45.45,0,0,1,.45.45A.46.46,0,0,1,14.08,29.2Zm2.19.21a.47.47,0,0,1-.45-.47.45.45,0,1,1,.45.47Zm2.17-.21a.45.45,0,0,1-.42-.46.46.46,0,0,1,.69-.37.44.44,0,0,1,.21.4.42.42,0,0,1-.15.32A.44.44,0,0,1,18.44,29.2Zm2.16-.57a.44.44,0,0,1-.44-.45.45.45,0,0,1,.44-.44.47.47,0,0,1,.46.46A.45.45,0,0,1,20.6,28.63Zm2-.94a.45.45,0,0,1-.32-.12.45.45,0,0,1-.14-.32.45.45,0,1,1,.9,0,.44.44,0,0,1-.13.31.39.39,0,0,1-.32.13Zm.37-4.3c.07-.66,0-10,0-12.81,0-.27,0-.53-.39-.52s-.42.12-.42.44c0,1.47,0,12.45,0,12.45v1.38c-.16,0-.29,0-.42,0-1.91,0-3.82,0-5.73,0a4.5,4.5,0,0,1-1.43-.52A8.43,8.43,0,0,1,13,23c.13,0,.25,0,.38,0l6.4,0c1,0,1,0,1-.94V9.2c0-.36.08-.53.49-.52.93,0,1.86,0,2.78,0,.31,0,.42.11.42.42V23.77c0,.6,0,.6-.61.6-.95,0-.94,0-.84-1Zm1.43,3A.45.45,0,0,1,24,26a.47.47,0,0,1,.46-.46.45.45,0,0,1,.44.46.42.42,0,0,1-.13.32.41.41,0,0,1-.32.12ZM24.44,7a.44.44,0,0,1-.33-.12A.43.43,0,0,1,24,6.54a.45.45,0,0,1,.9,0,.47.47,0,0,1-.12.32.43.43,0,0,1-.32.14ZM26,24.86a.45.45,0,1,1,.45-.45A.45.45,0,0,1,26,24.86Zm0-16.3a.46.46,0,0,1-.45-.46.45.45,0,1,1,.9,0A.46.46,0,0,1,26,8.56Zm3.22,5.5a.46.46,0,0,1-.13.32.43.43,0,0,1-.32.12.44.44,0,0,1-.45-.44.47.47,0,0,1,.14-.33.48.48,0,0,1,.34-.13A.46.46,0,0,1,29.2,14.06ZM27.25,9.47a.45.45,0,0,1,.45.45.46.46,0,0,1-.46.45.45.45,0,0,1-.44-.46.48.48,0,0,1,.13-.32.45.45,0,0,1,.33-.12Zm0,13.59a.48.48,0,0,1-.32-.13.49.49,0,0,1,0-.64.44.44,0,0,1,.31-.13.51.51,0,0,1,.33.13.44.44,0,0,1,.13.32.45.45,0,0,1-.45.44Zm.93-11.59a.45.45,0,0,1,.46.44.45.45,0,1,1-.46-.44Zm0,9.57a.44.44,0,0,1-.46-.43.43.43,0,0,1,.21-.42.45.45,0,0,1,.69.4A.45.45,0,0,1,28.2,21Zm.55-2.13a.46.46,0,0,1-.44-.45.47.47,0,0,1,.47-.45.45.45,0,0,1,.42.47.48.48,0,0,1-.13.31A.47.47,0,0,1,28.75,18.91ZM29,16.7a.39.39,0,0,1-.32-.12.4.4,0,0,1-.13-.31.41.41,0,0,1,.1-.32.41.41,0,0,1,.3-.14.44.44,0,0,1,.35.12.46.46,0,0,1,.16.34.44.44,0,0,1-.13.31.43.43,0,0,1-.32.12Z"/><path class="cls-2" d="M40.78,29.2H36.55V5.84h4.23Z"/><path class="cls-2" d="M69.05,19.42a10.22,10.22,0,0,1-.74,3.94,9.16,9.16,0,0,1-5.14,5.11,10.2,10.2,0,0,1-3.9.73H47.84A2.26,2.26,0,0,1,47,29a2,2,0,0,1-1.12-1.12,2.26,2.26,0,0,1-.17-.85V8a2.21,2.21,0,0,1,.17-.84,2,2,0,0,1,.45-.68A2.06,2.06,0,0,1,47,6a2.25,2.25,0,0,1,.85-.16H59.27a10.2,10.2,0,0,1,3.9.74,9.17,9.17,0,0,1,5.14,5.12,10.3,10.3,0,0,1,.74,3.92Zm-4.24-3.81a6,6,0,0,0-.4-2.26,4.71,4.71,0,0,0-1.13-1.75,4.93,4.93,0,0,0-1.75-1.13,6.23,6.23,0,0,0-2.26-.4H49.94V25h9.33a6,6,0,0,0,2.25-.4,5,5,0,0,0,1.75-1.12,4.92,4.92,0,0,0,1.14-1.74,6.12,6.12,0,0,0,.39-2.28Z"/><path class="cls-1" d="M94.32,29.2H79a6.94,6.94,0,0,1-1.92-.31A5.63,5.63,0,0,1,73.7,26a6,6,0,0,1-.59-2.78V8a2.2,2.2,0,0,1,.16-.84,2.37,2.37,0,0,1,.45-.68A2,2,0,0,1,74.4,6a2.17,2.17,0,0,1,.84-.16H94.32v4.24h-17V23.25a1.74,1.74,0,0,0,.44,1.27,1.77,1.77,0,0,0,1.29.44H94.32Zm-1.91-9.55H79V15.38H92.42Z"/><path class="cls-1" d="M109.07,14.18l7.14-8.34H122L112,17.55l10,11.65h-5.76l-7.11-8.28L102,29.2H96.24l10-11.65-10-11.71h5.73Z"/></g></g></svg>