<svg id="Layer_1" data-name="Layer 1" xmlns="http://www.w3.org/2000/svg" viewBox="0 0 1000 170"><polygon points="652.62 65.37 652.62 78.9 652.62 141.23 674.12 141.23 674.12 78.9 695.63 78.9 695.63 57.4 652.62 57.4 652.62 65.37"/><polygon points="292.18 28.26 266.16 28.26 220.03 79.99 220.03 28.26 197.75 28.26 197.75 141.23 220.03 141.23 220.03 107.26 235.62 90.28 268.96 141.23 295.3 141.23 250.57 73.76 292.18 28.26"/><path d="M331.68,55.53c-24.77,0-42.07,18.54-42.07,43.47,0,24.15,15.74,44.25,42.7,44.25,22.9,0,35.06-13.86,39.58-26.33H349.76c-4.36,7.32-10.91,9.66-17.61,9.66-10.28,0-19.94-7-21.19-21.35h61.86C373.6,75.63,357.55,55.53,331.68,55.53Zm-20.41,34.9c1.71-14.18,12.15-19.16,20.26-19.16,9,0,19,5,19.48,19.16Z"/><path d="M421.3,55.53c-24.78,0-42.08,18.54-42.08,43.47,0,24.15,15.74,44.25,42.7,44.25,22.91,0,35.06-13.86,39.58-26.33H439.37c-4.36,7.32-10.91,9.66-17.61,9.66-10.28,0-19.94-7-21.19-21.35h61.86C463.21,75.63,447.16,55.53,421.3,55.53Zm-20.42,34.9C402.6,76.25,413,71.27,421.14,71.27c9,0,19,5,19.48,19.16Z"/><path d="M516.41,55.53c-10.59,0-19.63,4.67-24.15,12.62V57.4h-21.5V169.64h21.5v-39c5.45,9.35,15.27,12.62,24,12.62,19.94,0,36.62-17.14,36.62-43.94C552.88,73,536.67,55.53,516.41,55.53Zm-5.29,71.21c-11.85,0-19.64-10-19.64-27.43,0-16.83,7.79-27.27,19.64-27.27,11.21,0,19.16,11.22,19.16,27.43C530.28,115.83,522.33,126.74,511.12,126.74Z"/><path d="M601.76,55.53C577,55.53,559.69,74.07,559.69,99c0,24.15,15.73,44.25,42.69,44.25,22.91,0,35.06-13.86,39.58-26.33H619.83c-4.36,7.32-10.91,9.66-17.61,9.66-10.28,0-19.94-7-21.19-21.35h61.86C643.67,75.63,627.62,55.53,601.76,55.53Zm-20.42,34.9c1.72-14.18,12.16-19.16,20.26-19.16,9,0,19,5,19.48,19.16Z"/><path d="M736.8,28.26H703.3v113h33.5c35.84,0,62.8-11.69,62.8-56.56S772.64,28.26,736.8,28.26Zm-.94,95.52H725.58V45.71h10.28c20.42,0,40.67,5.14,40.67,39C776.53,118.79,756.28,123.78,735.86,123.78Z"/><path d="M834,28.26,792,141.23H814.7l7.95-22.91h43.94l7.95,22.91h24.15l-42.23-113Zm-5,71.83,15.58-44.56,15.58,44.56Z"/><path d="M944.68,26.23c-33.65,0-55.31,23.38-55.31,58.44s21.66,58.58,55.31,58.58S1000,119.73,1000,84.67,978.34,26.23,944.68,26.23Zm0,99.26c-17.6,0-32.25-14.18-32.25-40.82S927.08,44,944.68,44s32.26,14.18,32.26,40.67C976.94,111.31,962.29,125.49,944.68,125.49Z"/><rect width="28.25" height="28.25"/><path d="M84.74,0H56.49V28.25H28.25v113H113v-113H84.74Zm0,84.74H56.49V56.49H84.74Z"/><rect x="112.98" width="28.25" height="28.25"/></svg>