<svg xmlns="http://www.w3.org/2000/svg" viewBox="0 0 125.41 54.75"><defs><style>.cls-1{fill:#efac3b;}.cls-2{fill:#009be5;}.cls-3{fill:#9cc2d9;}.cls-4{fill:#296599;}.cls-5{fill:#030303;}.cls-6{fill:#060606;}</style></defs><g id="Layer_2" data-name="Layer 2"><g id="Layer_1-2" data-name="Layer 1"><path class="cls-1" d="M125.41,2.08V40.5H0V2.08H101.84V4.56H2.47V38H122.94V4.56h-8V2.08Z"/><path class="cls-2" d="M105.11,1.66l3.09,1.86V7.86L105.11,6Z"/><path class="cls-3" d="M108.2,0l3.09,1.66L108.2,3.52l-3.09-1.86Z"/><path class="cls-4" d="M111.29,1.66,108.2,3.52V7.86L111.29,6Z"/><path class="cls-5" d="M1.66,53V48.81L3.3,53h.57l1.64-4.12V53h.71V47.31H5.51l-1.92,4.6-1.93-4.6H1V53ZM9.09,53a1.81,1.81,0,0,0,1.4-.56A2,2,0,0,0,11,51.09a2,2,0,0,0-.52-1.4,1.84,1.84,0,0,0-1.4-.55,1.81,1.81,0,0,0-1.4.55,2.1,2.1,0,0,0,0,2.79,1.78,1.78,0,0,0,1.4.56Zm-.9-1a1.34,1.34,0,0,1-.34-.94,1.24,1.24,0,1,1,2.47,0A1.44,1.44,0,0,1,10,52a1.18,1.18,0,0,1-.9.37A1.17,1.17,0,0,1,8.19,52ZM14,49.14a1.47,1.47,0,0,0-1.35.75V47.31h-.7V53h.7v-.66a1.44,1.44,0,0,0,1.31.75,1.72,1.72,0,0,0,1.32-.55,2,2,0,0,0,.51-1.4,2,2,0,0,0-.49-1.41,1.69,1.69,0,0,0-1.3-.54Zm-.13,3.27a1.32,1.32,0,0,1,0-2.64,1.13,1.13,0,0,1,.88.37,1.35,1.35,0,0,1,.34,1,1.22,1.22,0,0,1-1.22,1.32ZM17,48.6a.54.54,0,0,0,.56-.56.57.57,0,1,0-1.13,0,.56.56,0,0,0,.57.56ZM17.36,53V49.24h-.7V53Zm1.9,0V47.31h-.7V53Zm1.56-4.35a.55.55,0,0,0,.56-.56.57.57,0,1,0-1.13,0,.55.55,0,0,0,.57.56ZM21.16,53V49.24h-.7V53Zm2.75-.59c-.41,0-.59-.15-.59-.8V49.82h.93v-.59h-.93V48.06h-.7v1.17H22v.59h.66v1.89a1.54,1.54,0,0,0,.27,1,1.06,1.06,0,0,0,.81.31h.06a2.72,2.72,0,0,0,.62-.05v-.62A2.74,2.74,0,0,1,23.91,52.36Zm4-1.22c0,.72-.38,1.27-1.05,1.27s-.94-.39-.94-1.11V49.23h-.7v2.22c0,1,.47,1.59,1.4,1.59a1.33,1.33,0,0,0,1.29-.76V53c0,.79-.35,1.2-1,1.2s-.93-.25-1-.76h-.7a1.2,1.2,0,0,0,.42,1,1.82,1.82,0,0,0,1.25.38,1.75,1.75,0,0,0,1.21-.4,1.68,1.68,0,0,0,.5-1.33V49.23h-.69v1.91Zm8.63,1.08a3.16,3.16,0,0,0,0-4.18,3,3,0,0,0-4.21,0,3.16,3.16,0,0,0,0,4.18,2.72,2.72,0,0,0,2.11.85,2.75,2.75,0,0,0,2.11-.85Zm-3.66-.47a2.4,2.4,0,0,1-.58-1.62,2.43,2.43,0,0,1,.58-1.63,2,2,0,0,1,1.56-.66A2,2,0,0,1,36,48.5a2.32,2.32,0,0,1,.57,1.63A2.3,2.3,0,0,1,36,51.75a1.93,1.93,0,0,1-1.55.66A2,2,0,0,1,32.84,51.75Zm7.4-2.61a1.47,1.47,0,0,0-1.35.75v-.66h-.7v5.43h.7V52.29A1.44,1.44,0,0,0,40.2,53a1.72,1.72,0,0,0,1.32-.55,2,2,0,0,0,.51-1.4,2,2,0,0,0-.5-1.41,1.67,1.67,0,0,0-1.29-.54Zm-.13,3.27a1.32,1.32,0,0,1,0-2.64,1.13,1.13,0,0,1,.88.37,1.35,1.35,0,0,1,.34,1,1.22,1.22,0,0,1-1.22,1.32Zm6.1-1.53a1.7,1.7,0,0,0-.48-1.26,1.75,1.75,0,0,0-1.28-.48,1.73,1.73,0,0,0-1.32.53,2,2,0,0,0-.5,1.42A1.78,1.78,0,0,0,44.49,53a1.86,1.86,0,0,0,1.11-.32,1.26,1.26,0,0,0,.56-.84h-.7a1,1,0,0,1-1,.55,1.08,1.08,0,0,1-1.17-1.13h2.87v-.17a2.36,2.36,0,0,0,0-.25Zm-2.89-.12a1.05,1.05,0,0,1,1.13-1.06,1,1,0,0,1,1.07,1.06ZM47.81,53V51c0-.77.37-1.24,1-1.24s.93.39.93,1.22v2h.7V50.66c0-1-.46-1.52-1.38-1.52a1.29,1.29,0,0,0-1.29.78v-.69h-.7v3.71h.7Zm8.44-2.89a1.17,1.17,0,0,0,1-1.29c0-.91-.66-1.46-1.74-1.46H53.71v5.63h1.93c1.08,0,1.74-.59,1.74-1.53a1.28,1.28,0,0,0-1.13-1.35ZM55.53,48c.65,0,1,.33,1,.9a.88.88,0,0,1-1,.9H54.44V48Zm-1.09,4.33V50.41h1.24a.94.94,0,1,1,0,1.88Zm4.6.65V47.31h-.7v5.63Zm2.83.1a1.81,1.81,0,0,0,1.4-.56,2,2,0,0,0,.52-1.39,2,2,0,0,0-.52-1.4,2.07,2.07,0,0,0-2.81,0,2.13,2.13,0,0,0,0,2.79,1.82,1.82,0,0,0,1.41.56ZM61,52a1.37,1.37,0,0,1-.34-.94,1.24,1.24,0,1,1,2.47,0,1.44,1.44,0,0,1-.33.95,1.17,1.17,0,0,1-.9.37A1.14,1.14,0,0,1,61,52Zm5.27,1A1.54,1.54,0,0,0,68,51.69h-.69a.92.92,0,0,1-1,.72c-.71,0-1.15-.49-1.15-1.32s.43-1.32,1.15-1.32a.92.92,0,0,1,1,.75H68a1.54,1.54,0,0,0-1.72-1.37,1.73,1.73,0,0,0-1.34.53,2,2,0,0,0-.5,1.41,2,2,0,0,0,.5,1.41A1.73,1.73,0,0,0,66.24,53Zm5-3.81-1.64,1.69V47.31h-.7v5.63h.7V51.2l1.61,1.74h.92L70.31,51l1.79-1.8ZM74.46,53a1.54,1.54,0,0,0,1.73-1.35h-.7a.91.91,0,0,1-1,.72c-.71,0-1.15-.49-1.15-1.32s.44-1.32,1.15-1.32a.91.91,0,0,1,1,.75h.7a1.55,1.55,0,0,0-1.73-1.37,1.73,1.73,0,0,0-1.34.53,2,2,0,0,0-.49,1.41,2,2,0,0,0,.49,1.41,1.73,1.73,0,0,0,1.34.54Zm4.63-3.9a1.31,1.31,0,0,0-1.29.78V47.31h-.7v5.63h.7V51c0-.77.37-1.24,1-1.24s.93.39.93,1.22v2h.7V50.66c0-1-.46-1.52-1.38-1.52ZM83.16,53a1.49,1.49,0,0,0,1.32-.75v.65h.69V49.23h-.69v.66a1.42,1.42,0,0,0-1.3-.75,1.71,1.71,0,0,0-1.34.55,2.23,2.23,0,0,0,0,2.8,1.66,1.66,0,0,0,1.33.55Zm.1-.63a1.32,1.32,0,0,1,0-2.64,1.22,1.22,0,0,1,1.25,1.32,1.38,1.38,0,0,1-.33.94,1.17,1.17,0,0,1-.92.38Zm3.46-3.81a.57.57,0,1,0-.56-.56.55.55,0,0,0,.57.56Zm.35,4.34V49.23h-.7v3.71Zm1.9,0V51c0-.77.37-1.24,1-1.24s.93.39.93,1.22v2h.7V50.66c0-1-.46-1.52-1.38-1.52a1.3,1.3,0,0,0-1.29.78v-.69h-.7v3.71Zm6.64,0V47.31h-.74v5.63h.74Zm1.94,0V51c0-.77.37-1.24,1-1.24s.93.39.93,1.22v2h.7V50.66c0-1-.46-1.52-1.38-1.52a1.29,1.29,0,0,0-1.29.78v-.69h-.7v3.71Zm4.18-4.34a.55.55,0,0,0,.56-.56.57.57,0,1,0-1.13,0A.55.55,0,0,0,101.73,48.6Zm.35,4.34V49.23h-.7v3.71Zm2.75-.58c-.41,0-.59-.15-.59-.8V49.82h.93v-.59h-.93V48.06h-.7v1.17h-.67v.59h.67v1.89a1.54,1.54,0,0,0,.27,1,1,1,0,0,0,.8.31h.07a2.62,2.62,0,0,0,.61-.05v-.62a2.71,2.71,0,0,1-.46,0Zm1.66-3.76a.55.55,0,0,0,.56-.56.57.57,0,1,0-1.13,0,.55.55,0,0,0,.57.56Zm.34,4.35V49.24h-.69V53Zm2.74.09a1.51,1.51,0,0,0,1.32-.75V53h.69V49.24h-.69v.65a1.44,1.44,0,0,0-1.3-.75,1.69,1.69,0,0,0-1.34.55,2.21,2.21,0,0,0,0,2.8,1.68,1.68,0,0,0,1.34.55Zm.1-.63a1.32,1.32,0,0,1,0-2.64,1.23,1.23,0,0,1,1.25,1.32,1.38,1.38,0,0,1-.33.94,1.18,1.18,0,0,1-.92.38Zm4.66,0c-.41,0-.6-.15-.6-.8V49.82h.93v-.58h-.93V48.06H113v1.18h-.67v.58H113v1.89a1.54,1.54,0,0,0,.27,1,1,1,0,0,0,.8.31h.06a2.72,2.72,0,0,0,.62-.05v-.62a2.71,2.71,0,0,1-.46,0ZM116,48.6a.55.55,0,0,0,.56-.56.57.57,0,1,0-1.13,0,.55.55,0,0,0,.57.56Zm.34,4.35V49.24h-.7V53Zm2.83,0,1.62-3.71H120L118.87,52l-1.17-2.77H117L118.59,53Zm5.53-2.07a1.7,1.7,0,0,0-.48-1.26,1.77,1.77,0,0,0-1.28-.48,1.73,1.73,0,0,0-1.32.53,2,2,0,0,0-.5,1.42A1.78,1.78,0,0,0,123,53a1.87,1.87,0,0,0,1.12-.32,1.26,1.26,0,0,0,.56-.84h-.7a1,1,0,0,1-1,.55,1.07,1.07,0,0,1-1.16-1.13h2.86l0-.17C124.68,51,124.69,51,124.69,50.88Zm-2.89-.12a1.05,1.05,0,0,1,1.12-1.06A1,1,0,0,1,124,50.76Z"/><path class="cls-4" d="M15.07,11.67h3.55L24.76,28l6.17-16.3h3.55V31.06H32V14.93H32L25.88,31.06H23.67L17.58,14.93h0V31.06H15.07Z"/><path class="cls-6" d="M57.06,11.22a9.3,9.3,0,0,1,4.07.84,8.6,8.6,0,0,1,2.92,2.25,9.74,9.74,0,0,1,1.76,3.25,12.66,12.66,0,0,1,0,7.64,9.6,9.6,0,0,1-1.76,3.24,8.45,8.45,0,0,1-2.92,2.24,10.37,10.37,0,0,1-8.13,0,8.36,8.36,0,0,1-2.92-2.24,9.43,9.43,0,0,1-1.76-3.24,12.66,12.66,0,0,1,0-7.64,9.57,9.57,0,0,1,1.76-3.25A8.5,8.5,0,0,1,53,12.06a9.26,9.26,0,0,1,4.06-.84Zm0,2.17a6.22,6.22,0,0,0-3.05.7,6.13,6.13,0,0,0-2.11,1.83,8.09,8.09,0,0,0-1.2,2.57,11.18,11.18,0,0,0,0,5.78,8.09,8.09,0,0,0,1.2,2.57A6.13,6.13,0,0,0,54,28.67a6.22,6.22,0,0,0,3.05.7,6.29,6.29,0,0,0,3.06-.7,6.19,6.19,0,0,0,2.1-1.83,7.68,7.68,0,0,0,1.2-2.57,11.18,11.18,0,0,0,0-5.78,7.68,7.68,0,0,0-1.2-2.57,6.19,6.19,0,0,0-2.1-1.83,6.29,6.29,0,0,0-3.06-.7ZM81.81,20V13.84H87a13.53,13.53,0,0,1,1.6.09,3.6,3.6,0,0,1,1.32.43,2.28,2.28,0,0,1,.9.92,3.39,3.39,0,0,1,.33,1.63,2.8,2.8,0,0,1-1,2.32A5.12,5.12,0,0,1,87,20Zm-2.6-8.34V31.06h9.42a6.55,6.55,0,0,0,2.55-.47A5.86,5.86,0,0,0,93,29.34a5.32,5.32,0,0,0,1.14-1.78,5.88,5.88,0,0,0,.38-2.07,4.84,4.84,0,0,0-1-3,4.5,4.5,0,0,0-2.75-1.63v-.05A4.5,4.5,0,0,0,93,19.1a4.76,4.76,0,0,0,.75-2.68A4.32,4.32,0,0,0,93.06,14a5.08,5.08,0,0,0-1.62-1.58,3.33,3.33,0,0,0-1-.4,12,12,0,0,0-1.33-.21c-.47,0-1-.07-1.43-.08H79.21ZM81.8,28.89V22.18h5.93a8.22,8.22,0,0,1,1.58.15,3.84,3.84,0,0,1,1.35.52,2.71,2.71,0,0,1,.94,1A3.09,3.09,0,0,1,92,25.41,3.4,3.4,0,0,1,91,28a3.78,3.78,0,0,1-2.69.92Zm25.12-17.22h2.59V31.06h-2.59Z"/></g></g></svg>