<svg xmlns="http://www.w3.org/2000/svg" xmlns:xlink="http://www.w3.org/1999/xlink" viewBox="0 0 141.92 52.6"><defs><style>.cls-1{fill:#fff;fill-rule:evenodd;}.cls-2{mask:url(#mask);}.cls-3{fill:#193740;}.cls-4,.cls-5,.cls-6,.cls-7{fill:none;}.cls-4,.cls-7{stroke-width:2px;}.cls-4{stroke:url(#linear-gradient);}.cls-5{stroke-width:2px;stroke:url(#linear-gradient-2);}.cls-6{stroke-width:2px;stroke:url(#linear-gradient-3);}.cls-7{stroke:url(#linear-gradient-4);}</style><mask id="mask" x="-44.86" y="-43.68" width="224" height="140" maskUnits="userSpaceOnUse"><g id="prefix_b" data-name="prefix  b"><path id="prefix_a" data-name="prefix  a" class="cls-1" d="M-44.86-43.68h224v140h-224Z"/></g></mask><linearGradient id="linear-gradient" x1="-803.94" y1="824.69" x2="-803.94" y2="823.69" gradientTransform="matrix(30.41, -17.56, -17.55, -30.4, 38939.8, 10970.84)" gradientUnits="userSpaceOnUse"><stop offset="0" stop-color="#006eff"/><stop offset="1" stop-color="#006eff" stop-opacity="0"/></linearGradient><linearGradient id="linear-gradient-2" x1="-798.3" y1="839.12" x2="-798.3" y2="838.12" gradientTransform="matrix(39.67, 6.99, 6.99, -39.66, 25827.79, 38865.3)" xlink:href="#linear-gradient"/><linearGradient id="linear-gradient-3" x1="-806.27" y1="857.08" x2="-806.27" y2="856.08" gradientTransform="matrix(15.54, 42.69, 42.7, -15.54, -24022.27, 47758.72)" xlink:href="#linear-gradient"/><linearGradient id="linear-gradient-4" x1="-808.41" y1="830.43" x2="-808.41" y2="829.43" gradientTransform="matrix(43.82, -25.3, -25.3, -43.82, 56447.86, 15936.59)" xlink:href="#linear-gradient"/></defs><g id="Layer_2" data-name="Layer 2"><g id="Layer_1-2" data-name="Layer 1"><g class="cls-2"><path class="cls-3" d="M65.53,33V20.11h2.56l5.57,9.53,5.56-9.53h2.55V33H79.12v-7.5L74.74,33H72.56l-4.38-7.5V33Zm26,0a5.86,5.86,0,0,1-6.16-6V20.11H88V27a3.51,3.51,0,0,0,7,0V20.11h2.65V27a5.84,5.84,0,0,1-6.15,6Zm9.75,0V20.11h2.65V30.43h6V33ZM115,33V22.69H110.2V20.11h12.21v2.58h-4.78V33Zm11.14,0V20.11h2.65V33Zm11.41,0a4.16,4.16,0,0,1-4.44-3.26l2.38-1a1.9,1.9,0,0,0,2.06,1.64c1,0,1.61-.38,1.61-1.12s-.64-1.07-2.4-1.64c-2-.69-3.52-1.68-3.52-3.82,0-2.3,1.7-3.74,4.26-3.74a4.17,4.17,0,0,1,4.44,3.26l-2.38,1a1.89,1.89,0,0,0-2.06-1.64c-1,0-1.61.39-1.61,1.12s.64,1.07,2.4,1.64c2,.69,3.51,1.68,3.51,3.82C141.78,31.58,140.08,33,137.53,33Z"/><path class="cls-4" d="M17.53,11.1h0A17.55,17.55,0,1,0,35.08,41.5h0A17.55,17.55,0,0,0,17.53,11.1Z"/><path class="cls-5" d="M29.8,6.47A20.15,20.15,0,0,0,6.47,22.81h0A20.14,20.14,0,0,0,22.81,46.13h0A20.13,20.13,0,0,0,46.14,29.8h0A20.13,20.13,0,0,0,29.81,6.48Z"/><path class="cls-6" d="M47.66,18.53A22.72,22.72,0,0,0,18.54,5h0A22.72,22.72,0,0,0,34.07,47.65h0A22.71,22.71,0,0,0,47.66,18.53Z"/><path class="cls-7" d="M13.65,4.4h0A25.3,25.3,0,1,0,39,48.21h0A25.3,25.3,0,0,0,13.66,4.39Z"/></g></g></g></svg>