<svg xmlns="http://www.w3.org/2000/svg" viewBox="0 0 577.06 144.52"><defs><style>.cls-1{fill:#fff;}.cls-2{fill:#4b11f2;}</style></defs><g id="Layer_2" data-name="Layer 2"><g id="Layer_1-2" data-name="Layer 1"><path d="M209.19,108.85a7.7,7.7,0,0,0-2.88-6.31q-2.73-2.33-10.28-5.75l-9.32-4.39q-13.29-6.3-13.29-19.46A19,19,0,0,1,181,57.17q7.53-5.89,20.56-5.89A81.75,81.75,0,0,1,225.64,55L218,74.86h-.36L207,55.9a3.61,3.61,0,0,0-3.14-2h-1.91A12.49,12.49,0,0,0,194,56.32a8.48,8.48,0,0,0-3.15,7.11,8.77,8.77,0,0,0,2.88,6.84,40.73,40.73,0,0,0,9.71,5.61l8.76,3.83q7.38,3.15,11.21,7.39t4,11.49q0,10.81-8.34,16.83t-22.3,5.88a75.18,75.18,0,0,1-25.18-4.24l7.53-21.2h.3l11,21.22a2.93,2.93,0,0,0,2.88,1.78h3.1q5.9,0,9.32-2.75A8.68,8.68,0,0,0,209.19,108.85Z"/><path d="M295.13,78.76c0,.55-.05,1.51-.14,2.89v2.08l-.83,19.6q-.41,8,3.72,8a4.07,4.07,0,0,0,3.85-2.48H302a10.93,10.93,0,0,1-1.1,5q-3.7,7.59-13.47,7.59A16.06,16.06,0,0,1,277,118a13,13,0,0,1-4.54-9.94,19.72,19.72,0,0,1-7.15,9.8,19.17,19.17,0,0,1-11.55,3.59,18.58,18.58,0,0,1-13.34-5.11Q235,111.06,235,102q0-9.66,6.88-15.19a25.08,25.08,0,0,1,16.22-5.66q9.35,0,14.57,3.73L273,70.06v-.69q0-15.89-10-15.88a7.57,7.57,0,0,0-2.61.27,5.07,5.07,0,0,0-1.1,1.38L248.1,75.86h-.27l-8.66-19.75a81.9,81.9,0,0,1,27.77-5.25q14.58,0,21.31,6.36t6.88,21.54ZM267.21,85.9a9.75,9.75,0,0,0-8.19,4,16.81,16.81,0,0,0-2.86,10.1q0,5.46,2.18,8.6a7.14,7.14,0,0,0,5.87,3q4.64,0,7.78-4.78v-.13l.27-19.93A16,16,0,0,0,267.21,85.9Z"/><path d="M376,21v89.67a4.19,4.19,0,0,0,1.22,3.28l6.78,6.68v.28H354V108Q347.92,122,333.71,122A24.4,24.4,0,0,1,314,112.8q-7.46-9.14-7.45-25.52,0-15.69,8.27-25.38a27.08,27.08,0,0,1,21.38-9.69q12.84,0,17.8,10.92V34.88a4.32,4.32,0,0,0-1.38-3.41L346,25.19v-.71Zm-31.55,90.34q5.6,0,9.55-5.19V63.93a10.62,10.62,0,0,0-8.87-4.23q-6.28,0-10.37,6.42-4.1,6.27-4.1,20.06,0,13.09,3.69,19.1t10.1,6Z"/><path d="M458,21v89.67a4.19,4.19,0,0,0,1.22,3.28l6.78,6.68v.28H436V108Q429.92,122,415.71,122A24.4,24.4,0,0,1,396,112.8q-7.46-9.14-7.45-25.52,0-15.69,8.27-25.38a27.08,27.08,0,0,1,21.38-9.69q12.84,0,17.8,10.92V34.88a4.32,4.32,0,0,0-1.38-3.41L428,25.19v-.71Zm-31.55,90.34q5.6,0,9.55-5.19V63.93a10.62,10.62,0,0,0-8.87-4.23q-6.28,0-10.37,6.42-4.1,6.27-4.1,20.06,0,13.09,3.69,19.1t10.1,6Z"/><path d="M500,21V111a4.21,4.21,0,0,0,1.36,3.28l6.64,6.27v.28H470v-.28l6.76-6.27A4.41,4.41,0,0,0,478,111V34.88a4.56,4.56,0,0,0-1.24-3.41L470,25.19v-.71Z"/><path d="M576.92,83.86H535v.28q0,12.85,5.59,19.29a18.4,18.4,0,0,0,14.4,6.29q14.82,0,21.25-12.86h.28q-5.32,25.86-30.9,25.86-14.4,0-24.32-9t-9.92-26.28q0-18.31,9.92-27.26t25.16-8.94a38.66,38.66,0,0,1,11,1.53,32.06,32.06,0,0,1,9.65,4.76,21.46,21.46,0,0,1,7.27,9.22,33.76,33.76,0,0,1,2.65,14C577.06,81.71,577,82.74,576.92,83.86ZM546.13,54.11q-5.32,0-8,6.28t-2.87,20.47h20.06c.09-1.19.14-2.55.14-4.1q0-12.69-2.46-17.6c-1.54-3.37-3.82-5-6.82-5Z"/><circle class="cls-1" cx="72.26" cy="72.26" r="72.26"/><path class="cls-2" d="M105.47,41.68s4.32-10.73,3.76-13.19-.56-3.13-4.47-6c-1.57.71-4.36,1.72-6.63,1.27a12.54,12.54,0,0,1-6.67-3.2,8.39,8.39,0,0,1-2.61-4.74.35.35,0,0,1,.56-.33c1.38,1,2.49,2.83,6.41,4.13a8.15,8.15,0,0,0,5.18.15c-5-3.43-12.15-8.12-16.44-9.54-5.47-1.78-7.93,1.72-7.93,1.72L71.49,20A56.84,56.84,0,0,1,89,26.25C97.75,31.17,105.47,41.68,105.47,41.68Z"/><path class="cls-2" d="M119.25,53.86a12.86,12.86,0,0,1-4.91-.41c-8.61-2.42-13.9-16.61-28.81-25.56C61.72,15.6,48.94,26.7,48.94,26.7c-1.64,1.12,0,1.83,0,1.83l7.82,3.95,3.69,1.93s-2.34,3-7.11.71a7,7,0,0,0-7.12,1.31c-2.65,1.45-1.49,5.66-3.43,8.34s-5.7,2.24-6.11,6.11,2.8,4.7,2.87,7.64a11.37,11.37,0,0,1-1.3,5.41,3.47,3.47,0,0,0-.19,1.15,2.87,2.87,0,0,0,.67,1.57,4,4,0,0,0,.86.74,9.42,9.42,0,0,1,3,3.32,6.62,6.62,0,0,0,.38.67c.11.18.22.41.37.67a7.33,7.33,0,0,1,.86,4.84,3.14,3.14,0,0,0,.11,1.45,2.91,2.91,0,0,0,2,1.83,5.88,5.88,0,0,1,3.39,2.31,2.48,2.48,0,0,0,.19.26c1.11,1.57.89,4,1.34,5.81s1.93,2.35,4.1,3.58,2.6,3.17,1.71,4.1S51,94.89,48.83,97.42c-1.56,1.46-.89,2.39-1.68,5.14s-3.16.75-4.43,2.69-1.45,4-.82,8.16,4.66,9.83,4.66,9.83-2.16-7.52,2.53-14c4-4.69,7-5.33,11.55-5.4s11.26,4,12.63,12a10.93,10.93,0,0,1-2.42,8.72c-.52.6-4.8,5.33-10.51,2.16a9.68,9.68,0,0,1-3.87-4.36c-.67-2-.86-4.62.26-6.4a4.26,4.26,0,0,1,2.87-2,4.69,4.69,0,0,1,3,.67,3.77,3.77,0,0,1,1.76,3.54,2.52,2.52,0,0,1-2.76,2.16c-.6-.11-.19,0,0,0a2.18,2.18,0,0,1-1.9-1.6c0-.15-.26-.11-.3,0a3.91,3.91,0,0,0,2.65,4.28,4.76,4.76,0,0,0,4.54-1.3c1.31-1.31,2-2.42,2-5.29a6.83,6.83,0,0,0-2.57-5.41,9.49,9.49,0,0,0-6.75-2.53,8.91,8.91,0,0,0-7,4.14,13.15,13.15,0,0,0-1.11,11.66l.07.15c3.65,8.53,12.18,10.69,18.07,10.69a19.78,19.78,0,0,0,3.17-.22A24.93,24.93,0,0,0,81,131.81c5.07-3.35,8.09-8.19,8.09-15.68,0-9.95-4.36-16.58-13.3-26.94-1.72-2.13-8.68-10.73-10-12.41-6.22-8-13.19-17.51-9.73-24.7.12-.23.23-.41.34-.64,5.18-9.5,19.78-7.15,16.58-6.56-5.55.94-8.87,3.4-9.87,4.48a10.13,10.13,0,0,0-2.24,3.76c-1.15,2.87-.22,7.3,2.24,11.18,10.69,15.16,26.49,34.05,28.43,38.6A31.45,31.45,0,0,1,94.44,116a70.33,70.33,0,0,1-.71,7.26,22.57,22.57,0,0,0,5.44-6.52c1.75-3.57,2-5.29,1.53-6.63s-1.94-1.38-2.5-3.58,1-4.13-.63-7.63c-.71-1.53-4.47-3.77-6.41-6.23S85.68,85.8,83,82.26c-4.77-6.34-6.34-8.5-9.1-12.08,3,.9,6.71,2.13,15.28-1.86,7.94,4.06,13.38,3.84,15.28,3.73a9.31,9.31,0,0,0,5.07-2,8.54,8.54,0,0,0,2-3.06.4.4,0,0,0-.52-.52c-6.67,2.76-12.82.52-20.38-3.69L89.3,62,88,62.7c-7.93,4.24-16.28.93-17,.63A8.68,8.68,0,0,1,67.35,60a7.11,7.11,0,0,1-.48-5.93c.59-1.45,2-2.42,4.32-2.91a14.54,14.54,0,0,1,6.33,1.27.51.51,0,0,0,.67-.67,5.49,5.49,0,0,1-.37-1.9,4.93,4.93,0,0,1,1-2.94l2.64,1.23A2.31,2.31,0,0,0,80.8,50a2.21,2.21,0,0,0,4.4-.11L87.69,51A5,5,0,0,1,84,54.72a.34.34,0,0,0,0,.67c3.39,1.6,13.3,6.22,13.3,6.22S103,64.82,108,64.19c4.84-.26,7-4.1,4.13-3.73s-9.65-2.57-9.65-2.57L98,55.77l1.9-3a52.85,52.85,0,0,0,12.22,5,7.69,7.69,0,0,0,7.68-2.91A.6.6,0,0,0,119.25,53.86ZM65.77,40.94a31.22,31.22,0,0,0-8.2,2.42,22.25,22.25,0,0,0-2,1.08,14.3,14.3,0,0,0-4.77,5.44C45.68,59.79,55,71.94,62.56,81.7q1.91,2.46,3.47,4.58c1.6,2.2,3.35,4.36,5.07,6.41,4.39,5.4,9.24,11.14,11.32,17.51a15.46,15.46,0,0,1,.38,6,9.53,9.53,0,0,1-5.44,7,19.37,19.37,0,0,0,.63-8.16V115c-1.38-7.49-7.45-14.12-7.45-14.12-1.46-1.94-3-3.95-4.29-5.59C53.47,78.83,52.21,77,49.19,71.49l0-.08c-.07-.14-.19-.33-.3-.52-1.75-2.94-6.44-10.8-4.39-19A12.89,12.89,0,0,1,47,46.75C54.52,37,68.86,40.34,65.77,40.94Z"/></g></g></svg>