<svg xmlns="http://www.w3.org/2000/svg" width="153" height="26" viewBox="0 0 153 26">
    <g fill="#099" fill-rule="evenodd">
        <path d="M150.764 1.046v4.527c-2.345-.886-4.433-1.333-6.26-1.333-1.083 0-1.945.2-2.594.588-.648.39-.979.872-.979 1.44 0 .755.732 1.426 2.206 2.028l4.256 2.071c3.441 1.64 5.148 3.819 5.148 6.555 0 2.275-.905 4.09-2.732 5.433-1.815 1.356-4.257 2.028-7.297 2.028-1.403 0-2.663-.06-3.782-.187-1.12-.12-2.406-.368-3.832-.722v-4.738c2.616.886 4.998 1.333 7.143 1.333 2.559 0 3.832-.741 3.832-2.238 0-.745-.521-1.346-1.58-1.818L139.565 14c-1.744-.789-3.04-1.744-3.889-2.877-.835-1.142-1.26-2.452-1.26-3.949 0-2.095.883-3.782 2.627-5.065 1.757-1.273 4.089-1.91 6.989-1.91.942 0 2.028.083 3.23.236 1.213.164 2.38.365 3.502.612zM16.87 1.046v4.527c-2.345-.886-4.43-1.333-6.257-1.333-1.086 0-1.945.2-2.593.588-.648.39-.979.872-.979 1.44 0 .755.742 1.426 2.215 2.028l4.257 2.071c3.428 1.64 5.138 3.819 5.138 6.555 0 2.275-.908 4.09-2.723 5.433-1.827 1.356-4.256 2.028-7.306 2.028-1.404 0-2.666-.06-3.786-.187-1.119-.12-2.392-.368-3.828-.722v-4.738c2.626.886 5.008 1.333 7.14 1.333 2.558 0 3.831-.741 3.831-2.238 0-.745-.518-1.346-1.567-1.818L5.685 14c-1.757-.789-3.054-1.744-3.889-2.877C.947 9.98.533 8.67.533 7.173c0-2.095.875-3.782 2.63-5.065C4.905.835 7.241.198 10.141.198c.952 0 2.024.083 3.24.236 1.203.164 2.37.365 3.489.612zM21.748.621L28.681.621 28.681 23.958 21.748 23.958zM51.015.621L51.015 4.935 40.715 4.935 40.715 10.11 49.649 10.11 49.649 13.999 40.715 13.999 40.715 19.431 51.226 19.431 51.226 23.958 34.043 23.958 34.043.621zM83.38.621L83.38 23.958 76.908 23.958 76.908 8.566 70.193 24.172 66.197 24.172 59.739 8.566 59.739 23.958 55.058 23.958 55.058.621 63.521.621 69.297 14.908 75.341.621zM105.704.621L105.704 4.935 95.46 4.935 95.46 10.11 104.394 10.11 104.394 13.999 95.46 13.999 95.46 19.431 105.915 19.431 105.915 23.958 88.732 23.958 88.732.621zM130.03.621L130.03 23.958 122.676 23.958 114.425 8.991 114.425 23.958 109.747 23.958 109.747.621 117.314.621 125.353 15.332 125.353.621z" transform="translate(0 .074)"/>
    </g>
</svg>
