<svg xmlns="http://www.w3.org/2000/svg" width="160" height="45" viewBox="0 0 160 45">
    <g fill="none">
        <path fill="#EB0A1E" d="M0 0.079H43.841V43.92H0z" transform="translate(0 .5)"/>
        <path fill="#000" d="M147.271 23.367l2.46-6.45 2.456 6.45h-4.916zm5.013-10.112h-5.108l-7.138 17.488h4.425l1.626-4.267h7.282l1.626 4.267h4.423l-7.136-17.488zm-36.027 14.448c-2.883 0-5.216-2.6-5.216-5.81 0-3.209 2.333-5.811 5.216-5.811 2.877 0 5.214 2.602 5.214 5.812 0 3.209-2.336 5.809-5.214 5.809m0-15.047c-5.103 0-9.24 4.136-9.24 9.238 0 5.101 4.137 9.235 9.24 9.235 5.1 0 9.238-4.134 9.238-9.235 0-5.102-4.139-9.238-9.238-9.238M79.804 27.703c-2.877 0-5.212-2.6-5.212-5.81 0-3.209 2.335-5.811 5.212-5.811 2.881 0 5.216 2.602 5.216 5.812 0 3.209-2.335 5.809-5.216 5.809m0-15.047c-5.1 0-9.234 4.136-9.234 9.238 0 5.101 4.133 9.235 9.234 9.235 5.102 0 9.238-4.134 9.238-9.235 0-5.102-4.136-9.238-9.238-9.238m22.833.6l-4.526 7.075-4.53-7.076h-4.427l7.007 10.967v6.521h3.897v-6.52l7.006-10.968h-4.427zm38.332 0h-14.952v3.353h5.538v14.134h3.9V16.608h5.514v-3.353zm-86.167 3.352h5.54v14.135h3.898V16.608h5.515v-3.353H54.802v3.353z" transform="translate(0 .5)"/>
        <path fill="#FFF" d="M21.92 12.047c-8.277 0-14.613 4.27-14.613 9.953 0 5.497 6.174 9.953 14.614 9.953 8.44 0 14.613-4.456 14.613-9.953 0-5.684-6.336-9.953-14.613-9.953zm9.113 4.27c.304 1.226-1.125 2.76-5.723 3.261-.307-3.125-1.233-5.765-2.769-6.324 2.068.059 4.028.408 5.737 1.028 1.598.603 2.59 1.372 2.755 2.034zm-6.812 5.635c0 3.96-1.189 5.6-2.3 5.6-1.112 0-2.301-1.641-2.301-5.6v-.041c.739.062 1.508.095 2.3.095.793 0 1.562-.033 2.301-.095v.041zm-2.301-2.207c-.776 0-1.493-.022-2.156-.063.35-2.589 1.277-4.094 2.157-4.094.88 0 1.807 1.505 2.156 4.094-.663.041-1.38.063-2.157.063zm-9.113-3.429c.164-.658 1.147-1.423 2.731-2.025 1.715-.625 3.684-.978 5.762-1.037-1.536.56-2.462 3.2-2.769 6.324-4.599-.501-6.028-2.035-5.724-3.262zm-3.345 5.325c0-1.676.561-3.124 1.538-4.323.126 2.222 3.133 3.88 7.419 4.46v.174c0 5.362 1.374 8.204 2.897 8.791-6.543-.235-11.854-4.265-11.854-9.102zm13.036 9.103c1.534-.613 2.925-3.662 2.925-8.792v-.173c4.286-.582 7.292-2.24 7.418-4.461.977 1.199 1.538 2.647 1.538 4.323 0 4.844-5.325 8.878-11.881 9.103z" transform="translate(0 .5)"/>
    </g>
</svg>
