<svg xmlns="http://www.w3.org/2000/svg" viewBox="0 0 104.57 64.52"><defs><style>.cls-1,.cls-3{fill:#5a5b5d;}.cls-1,.cls-2{fill-rule:evenodd;}.cls-2{fill:#0051a1;}</style></defs><g id="Layer_2" data-name="Layer 2"><g id="Layer_1-2" data-name="Layer 1"><path class="cls-1" d="M36.16,10.71a4.62,4.62,0,0,1-.28-1.59,4.29,4.29,0,0,1,4.46-4.47A5,5,0,0,1,42,4.92c.52-.41,1.06-.79,1.61-1.17a6.52,6.52,0,0,0-3.25-.86,6.35,6.35,0,0,0-6.41,6.23,6.1,6.1,0,0,0,1,3.33l.43-.63c.27-.38.55-.74.84-1.11m8.52-6.17c-.51.34-1,.68-1.48,1a4.48,4.48,0,0,1,1.61,3.54,4.5,4.5,0,0,1-8,2.82l-.45.6c-.22.32-.44.63-.65,1a6.5,6.5,0,0,0,4.62,1.87,6.26,6.26,0,0,0,6.42-6.24,6.17,6.17,0,0,0-2.08-4.58M33.36,25.36a4.36,4.36,0,0,1-2.78,4.17c0,.34,0,.69,0,1s0,.56,0,.83a6.17,6.17,0,0,0,1.8-11.26c-.21.58-.4,1.15-.57,1.74a4.45,4.45,0,0,1,1.55,3.49m-4.07,4.46-.39,0a4.37,4.37,0,0,1-4.46-4.48,4.29,4.29,0,0,1,4.46-4.47,4.9,4.9,0,0,1,1.77.31c.17-.55.35-1.1.55-1.65a6.59,6.59,0,0,0-2.32-.43,6.37,6.37,0,0,0-6.42,6.24A6.26,6.26,0,0,0,28.9,31.6h.4c0-.34,0-.69,0-1s0-.49,0-.74m4.22,7.38A4.28,4.28,0,0,1,38,41.68,4.36,4.36,0,0,1,34.7,46c.3.53.63,1,1,1.56a6.16,6.16,0,0,0,4.26-5.88A6.44,6.44,0,0,0,31,35.93c.1.58.22,1.17.36,1.74a4.7,4.7,0,0,1,2.12-.47m-4.46,4.48a4.57,4.57,0,0,1,1.22-3.19c-.17-.63-.31-1.27-.43-1.92a6.2,6.2,0,0,0,3.67,11.34,7.55,7.55,0,0,0,.83,0c-.37-.56-.71-1.14-1-1.72a4.36,4.36,0,0,1-4.26-4.46"/><path class="cls-2" d="M84,55.52a33.86,33.86,0,0,1-43-.33l-1,1.12A35.41,35.41,0,0,0,85,56.64Z"/><path class="cls-1" d="M64.67,35.71v7.22c0,1.67-.55,3.22-2.69,3.22s-2.69-1.55-2.69-3.22V35.71h-2v7.57a4.66,4.66,0,0,0,9.32,0V35.71Zm1.57-22.28h5.38V15.1H64.29v-12h1.95ZM0,19.4H7v1.73H2V24h4.9v1.73H2v3.95H7v1.73H0Zm39.4-.62,8.23,8.42V19.4h1.95V31.85l-8.23-8.37v7.89h-2ZM90.45,31.37h-2v-12h2ZM19.27,37.42v2.85h4.26V42H19.27v5.66h-2v-12h6.36v1.73Zm7.92-26.8h0l1.92-7.49h1.95L27.73,15.61l-4.21-9-4.21,9L16,3.13H17.9l1.92,7.49h0l3.67-7.74ZM73,23.89h0L71,31.37h-2L72.41,18.9l4.21,9,4.21-9,3.36,12.47h-2l-1.91-7.48h0l-3.68,7.74ZM74,40.19h0l-1.91,7.48h-2L73.49,35.2l4.2,9,4.21-9,3.36,12.47h-2L81.4,40.19h0l-3.68,7.74Z"/><path class="cls-3" d="M46.11,41.05H47c1.57,0,3.41,0,3.41-1.88s-2-1.83-3.49-1.83h-.83Zm1.29-5.36a7,7,0,0,1,3.34.56,3.36,3.36,0,0,1-1.34,6.21l3.87,5.2H51l-3.6-5.06H46.11v5.06h-2v-12Zm5.42-27.2h.92c1.56,0,3.41,0,3.41-1.88s-2-1.83-3.49-1.83h-.84Zm1.29-5.36a7,7,0,0,1,3.34.56,3.28,3.28,0,0,1,1.61,2.86A3.29,3.29,0,0,1,56.12,9.9L60,15.1H57.76L54.15,10H52.82V15.1h-2v-12Zm21,0h3.28c3.76,0,6.88,1.85,6.88,5.92s-3.06,6-6.92,6H75.11Zm2,10.28h1.14c2.62,0,5.1-.95,5.1-4.37s-2.48-4.27-5.1-4.27H77.07Z"/><path class="cls-1" d="M103.54,29.32a4.65,4.65,0,0,1-2.18.53,4.37,4.37,0,0,1-4.46-4.48,4.28,4.28,0,0,1,4.46-4.47,4.69,4.69,0,0,1,2.19.5l1-1.43a6.48,6.48,0,0,0-3.18-.84,6.37,6.37,0,0,0-6.42,6.24,6.26,6.26,0,0,0,6.42,6.24,6.62,6.62,0,0,0,3.21-.81Zm-84.2,0a4.62,4.62,0,0,1-2.18.53,4.38,4.38,0,0,1-4.46-4.48,4.29,4.29,0,0,1,4.46-4.47,4.73,4.73,0,0,1,2.2.5l1-1.43a6.48,6.48,0,0,0-3.19-.84,6.37,6.37,0,0,0-6.42,6.24,6.26,6.26,0,0,0,6.42,6.24,6.69,6.69,0,0,0,3.22-.81Z"/><path class="cls-2" d="M83.75,55.2a33.33,33.33,0,0,1-21,7.42,33,33,0,0,1-23.21-9.39,31.5,31.5,0,0,1-3.68-41A32.71,32.71,0,0,1,51,.6L50.79,0A33.38,33.38,0,0,0,35.3,11.81a32.15,32.15,0,0,0,3.77,41.88,33.64,33.64,0,0,0,23.67,9.58,34,34,0,0,0,21.44-7.58l-.43-.49Z"/><path class="cls-3" d="M66.53,25.37a6.42,6.42,0,0,1-12.84,0,6.42,6.42,0,0,1,12.84,0m-2,0a4.47,4.47,0,1,0-8.93,0,4.47,4.47,0,1,0,8.93,0"/></g></g></svg>